<svg width="50" height="50" viewBox="0 0 50 50" fill="none" xmlns="http://www.w3.org/2000/svg">
<path d="M25 0C11.2142 0 0 11.2142 0 25C0 38.7858 11.2142 50 25 50C38.7858 50 50 38.7839 50 25C50 11.2161 38.7858 0 25 0ZM25 46.1271C13.3521 46.1271 3.87295 36.6499 3.87295 25C3.87295 13.3501 13.3521 3.87295 25 3.87295C36.6479 3.87295 46.1271 13.3501 46.1271 25C46.1271 36.6499 36.6499 46.1271 25 46.1271Z" fill="#E0DEDE"/>
<path d="M34.6825 22.8892H26.9366V15.1433C26.9366 14.0744 26.071 13.2068 25.0001 13.2068C23.9292 13.2068 23.0636 14.0744 23.0636 15.1433V22.8892H15.3177C14.2468 22.8892 13.3812 23.7568 13.3812 24.8257C13.3812 25.8947 14.2468 26.7623 15.3177 26.7623H23.0636V34.5082C23.0636 35.5771 23.9292 36.4447 25.0001 36.4447C26.071 36.4447 26.9366 35.5771 26.9366 34.5082V26.7623H34.6825C35.7534 26.7623 36.6191 25.8947 36.6191 24.8257C36.6191 23.7568 35.7534 22.8892 34.6825 22.8892Z" fill="#E0DEDE"/>
</svg>
