<svg width="87" height="43" viewBox="0 0 87 43" fill="none" xmlns="http://www.w3.org/2000/svg">
<mask id="mask0" mask-type="alpha" maskUnits="userSpaceOnUse" x="0" y="0" width="87" height="43">
<rect y="0.117188" width="86.1293" height="42.3347" rx="9.45178" fill="white"/>
<rect x="1.18147" y="1.29866" width="83.7664" height="39.9718" rx="8.2703" stroke="black" stroke-opacity="0.2" stroke-width="2.36294"/>
</mask>
<g mask="url(#mask0)">
<g clip-path="url(#clip0)">
<path d="M86.1293 45.5608C86.1293 48.3728 83.8499 50.6523 81.0381 50.6523H5.09122C2.2794 50.6525 0 48.3728 0 45.5608V-3.65471C0 -6.46653 2.2794 -8.74609 5.09122 -8.74609H81.0381C83.8501 -8.74609 86.1293 -6.46653 86.1293 -3.65471V45.5608Z" fill="#009DDD"/>
<path opacity="0.15" d="M3.61962 45.5608V-3.65471C3.61962 -6.46653 5.89935 -8.74609 8.71117 -8.74609H5.09105C2.2794 -8.74609 0 -6.46669 0 -3.65471V45.561C0 48.373 2.2794 50.6525 5.09122 50.6525H8.71134C5.89952 50.6525 3.61962 48.3728 3.61962 45.5608Z" fill="#202121"/>
<path d="M12.5547 15.0214H15.1281L13.8417 11.7461L12.5547 15.0214Z" fill="white"/>
<path d="M26.2266 26.0176V27.5385H30.5547V29.1764H26.2266V30.9315H31.0224L33.2448 28.4744L31.1395 26.0176H26.2266Z" fill="white"/>
<path d="M60.0405 11.7461L58.6367 15.0214H61.3274L60.0405 11.7461Z" fill="white"/>
<path d="M38.7524 31.8685V25.2012L35.7109 28.4766L38.7524 31.8685Z" fill="white"/>
<path d="M44.4856 27.0708C44.3685 26.369 43.9002 26.0176 43.1981 26.0176H40.7422V28.123H43.3158C44.0175 28.1232 44.4856 27.7724 44.4856 27.0708Z" fill="white"/>
<path d="M52.6657 27.8934C52.8997 27.7761 53.0171 27.4249 53.0171 27.0747C53.1342 26.6072 52.8997 26.3728 52.6657 26.2558C52.4324 26.1387 52.081 26.1387 51.7306 26.1387H49.3906V28.0105H51.7304C52.0808 28.0105 52.4322 28.0105 52.6657 27.8934Z" fill="white"/>
<path d="M69.5137 8.70703V10.1107L68.8124 8.70703H63.3152V10.1107L62.6131 8.70703H55.1269C53.8403 8.70703 52.7871 8.9412 51.8518 9.40902V8.70703H46.5883V8.82411V9.40902C46.0036 8.94136 45.3018 8.70703 44.366 8.70703H25.5336L24.2464 11.6314L22.96 8.70703H18.7492H16.9945V10.1107L16.4096 8.70703H16.2925H11.2629L8.92308 14.2045L6.23305 20.17L6.18359 20.2872H6.23305H12.1987H12.2734L12.3158 20.17L13.0179 18.4158H14.5385L15.2403 20.2872H22.024V20.17V18.8836L22.6092 20.2871H26.0011L26.5856 18.8836V20.17V20.2872H29.276H42.7278H42.8449V17.2458H43.0794C43.3131 17.2458 43.3131 17.2458 43.3131 17.5969V20.1701H51.7351V19.4683C52.4369 19.8197 53.4889 20.1701 54.8927 20.1701H58.4023L59.1042 18.299H60.7413L61.4431 20.1701H68.2271V19.0007V18.4159L69.2804 20.1701H69.5137H69.6311H74.7778V8.70703H69.514H69.5137ZM29.8612 18.533H28.6913H27.9896V17.8317V12.0994L27.8725 12.3677V12.3645L25.1514 18.533H25.0653H24.4396H23.4275L20.6203 12.0994V18.533H16.6436L15.8249 16.7785H11.8474L11.0285 18.533H8.97237L12.4327 10.3448H15.3567L18.6318 18.1818V10.3448H19.3335H21.7308L21.7859 10.4621H21.79L23.2658 13.6741L24.3256 16.0807L24.3631 15.9594L26.7024 10.345H29.8611V18.533H29.8612ZM37.9325 12.0994H33.3705V13.6199H37.8154V15.2574H33.3705V16.8955H37.9325V18.6496H31.3821V10.345H37.9325V12.0994ZM46.2754 15.1156C46.2785 15.1183 46.2823 15.1201 46.286 15.1227C46.3303 15.1694 46.3681 15.2164 46.4004 15.2613C46.6245 15.555 46.8057 15.9919 46.8148 16.6324C46.8154 16.6435 46.8159 16.6545 46.8166 16.6656C46.8166 16.672 46.8178 16.6775 46.8178 16.6841C46.8178 16.6878 46.8174 16.6906 46.8174 16.6942C46.8201 16.7586 46.8218 16.8244 46.8218 16.8955V18.5332H45.0676V17.597C45.0676 17.1292 45.0676 16.4272 44.7162 15.9594C44.6057 15.8489 44.4938 15.776 44.372 15.7242C44.1967 15.6107 43.8645 15.6088 43.3131 15.6088H41.2069V18.5332H39.2189V10.345H43.6641C44.7162 10.345 45.4184 10.345 46.0034 10.6959C46.5766 11.0401 46.9228 11.6109 46.9359 12.5147C46.9088 13.7596 46.1097 14.4425 45.5353 14.6728C45.5353 14.6728 45.9255 14.7514 46.2754 15.1156ZM50.2143 18.533H48.2256V10.3448H50.2143V18.533ZM73.0238 18.533H70.45L66.7071 12.3332V17.4799L66.6948 17.4678V18.5381H64.7187V18.5332H62.73L62.0282 16.7786H57.9338L57.232 18.6498H55.0097C54.0745 18.6498 52.904 18.4161 52.2025 17.7143C51.5007 17.0125 51.1502 16.0766 51.1502 14.5563C51.1502 13.3866 51.3838 12.2161 52.2025 11.2806C52.7869 10.5783 53.8402 10.345 55.1266 10.345H56.9985V12.0994H55.1266C54.4247 12.0994 54.0745 12.216 53.6057 12.5675C53.2554 12.9183 53.0213 13.6199 53.0213 14.4387C53.0213 15.3747 53.1384 15.9594 53.6057 16.4272C53.9574 16.7786 54.4249 16.8957 55.0097 16.8957H55.8284L58.5184 10.4624H59.6887H61.4429L64.7185 18.2993V17.8997V15.2577V15.0241V10.4626H67.6426L71.0341 16.1939V10.4626H73.0235V18.5333H73.0238V18.533Z" fill="white"/>
<path d="M44.6039 13.7554C44.638 13.7189 44.669 13.6775 44.6952 13.6301C44.8012 13.4624 44.9227 13.1602 44.8572 12.7479C44.8545 12.7101 44.8476 12.6751 44.8396 12.6413C44.8374 12.6319 44.8377 12.6236 44.8352 12.6142L44.834 12.6144C44.7758 12.414 44.6273 12.2909 44.4791 12.2162C44.2446 12.0996 43.8937 12.0996 43.5429 12.0996H41.2031V13.9714H43.5429C43.8937 13.9714 44.2447 13.9714 44.4791 13.8542C44.5142 13.8363 44.5455 13.8121 44.5756 13.7847L44.576 13.7862C44.5761 13.786 44.5881 13.7736 44.6039 13.7554Z" fill="white"/>
<path d="M79.9246 30.2284C79.9246 29.4097 79.691 28.5906 79.3402 28.0058V22.7424H79.3348V22.391C79.3348 22.391 74.432 22.391 73.7023 22.391C72.9729 22.391 72.0877 23.0926 72.0877 23.0926V22.391H66.7073C65.8881 22.391 64.836 22.6251 64.3675 23.0926V22.391H54.7762V22.7424V23.0924C54.0749 22.508 52.7872 22.3908 52.2028 22.3908H45.8862V22.7422V23.0923C45.3015 22.5079 43.8972 22.3906 43.195 22.3906H36.1778L34.5399 24.1453L33.0191 22.3906H32.5294H31.7326H22.4922V22.742V23.6661V34.2053H32.7856L34.4769 32.5135L35.943 34.2053H36.0604H41.9916H42.2604H42.3775H42.4939V33.0357V31.5151H43.0791C43.8972 31.5151 44.9504 31.5151 45.7691 31.1637V34.0877V34.3222H51.0329V34.0877V31.2808H51.2663C51.6177 31.2808 51.6177 31.2808 51.6177 31.6317V34.0877V34.3222H67.5252C68.5788 34.3222 69.6308 34.0877 70.2156 33.6199V34.0877V34.3222H75.2457C76.2978 34.3222 77.3513 34.2053 78.0532 33.7371C79.1301 33.091 79.8089 31.9473 79.9098 30.5832C79.9145 30.5428 79.9204 30.5024 79.9241 30.4619L79.9172 30.4553C79.9216 30.3796 79.9246 30.3048 79.9246 30.2284ZM43.0793 29.5267H40.7393V29.8768V30.579V31.2809V32.5677H36.8946L34.6569 29.9941L34.6492 30.0026L34.5399 29.8768L31.9666 32.5677H24.4806V24.3798H32.0837L34.1609 26.655L34.5976 27.1314L34.6568 27.07L37.1135 24.38H43.3128C44.5159 24.38 45.8632 24.6769 46.3737 25.9011C46.4351 26.1435 46.4708 26.413 46.4708 26.7191C46.4708 29.0584 44.8331 29.5267 43.0793 29.5267ZM54.7762 29.4095C55.0099 29.7596 55.1269 30.2282 55.1269 30.9304V32.5675H53.1387V31.5151C53.1387 31.0464 53.1387 30.2282 52.7873 29.8768C52.554 29.5267 52.0855 29.5267 51.3842 29.5267H49.2789V32.5677H47.2905V24.2628H51.7351C52.6702 24.2628 53.489 24.2628 54.0749 24.6133C54.6593 24.9646 55.1269 25.5495 55.1269 26.4853C55.1269 27.7717 54.3086 28.4735 53.7235 28.7078C54.3086 28.9408 54.6593 29.1755 54.7762 29.4095ZM62.8475 26.0166H58.285V27.5374H62.73V29.1753H58.285V30.8131H62.8475V32.5675H56.2971V24.2626H62.8475V26.0166ZM67.7599 32.5677H64.0166V30.8133H67.7599C68.1101 30.8133 68.3446 30.8133 68.5791 30.5791C68.6962 30.4619 68.8124 30.2284 68.8124 29.9942C68.8124 29.7597 68.6962 29.5269 68.5791 29.4097C68.4617 29.2927 68.2273 29.1757 67.8766 29.1757C66.005 29.0586 63.7826 29.1757 63.7826 26.6025C63.7826 25.4327 64.4844 24.1458 66.59 24.1458H70.4499V26.134H66.824C66.4733 26.134 66.239 26.1341 66.0048 26.2511C65.7715 26.3684 65.7715 26.6025 65.7715 26.8362C65.7715 27.1873 66.0048 27.3044 66.2388 27.4204C66.4733 27.5377 66.707 27.5377 66.9406 27.5377H67.9935C69.0464 27.5377 69.7481 27.7717 70.2159 28.2397C70.567 28.5908 70.801 29.1757 70.801 29.9942C70.801 31.7483 69.7482 32.5677 67.7599 32.5677ZM77.8193 31.7483C77.352 32.2168 76.5328 32.5677 75.3626 32.5677H71.6204V30.8133H75.3624C75.7135 30.8133 75.948 30.8133 76.1817 30.5791C76.2983 30.4619 76.4157 30.2284 76.4157 29.9942C76.4157 29.7597 76.2983 29.5269 76.1817 29.4097C76.0646 29.2927 75.831 29.1757 75.4799 29.1757C73.6089 29.0586 71.3859 29.1757 71.3859 26.6027C71.3859 25.4909 72.0219 24.4867 73.5906 24.1884C73.7781 24.1625 73.9763 24.1458 74.1933 24.1458H78.0537V26.134H75.4799H74.5444H74.4273C74.0762 26.134 73.8426 26.1341 73.6089 26.2511C73.4912 26.3684 73.3741 26.6025 73.3741 26.8362C73.3741 27.1873 73.4912 27.3044 73.8426 27.4204C74.0762 27.5377 74.3102 27.5377 74.5444 27.5377H74.6606H75.5968C76.108 27.5377 76.4946 27.6008 76.8484 27.7251C77.1723 27.8423 78.2449 28.3221 78.4848 29.5745C78.5057 29.7057 78.521 29.8427 78.521 29.9942C78.521 30.6962 78.287 31.2809 77.8193 31.7483Z" fill="white"/>
</g>
</g>
<defs>
<clipPath id="clip0">
<rect width="86.1293" height="86.1293" fill="white" transform="translate(0 -22.1113)"/>
</clipPath>
</defs>
</svg>
