<svg width="108" height="108" viewBox="0 0 108 108" fill="none" xmlns="http://www.w3.org/2000/svg">
<g opacity="0.3">
<path d="M64.3817 27.0756L71.6623 32.4619C72.4819 33.0681 72.0676 34.4096 71.0314 34.416L68.7467 34.4299C68.7444 34.4299 68.7424 34.4299 68.7401 34.4299C68.1523 34.4299 67.6725 33.9543 67.6688 33.3665C67.6582 31.6473 66.257 30.2587 64.5369 30.2729C62.8178 30.2834 61.4327 31.6857 61.4431 33.4049C61.4636 36.7265 63.7128 39.5207 66.7606 40.3811V40.5317C66.7606 42.2509 68.1544 43.6447 69.8734 43.6447C71.5924 43.6447 72.9862 42.2509 72.9862 40.5317V40.3746C74.199 40.0384 75.3093 39.3918 76.2174 38.472C77.5876 37.0844 78.3351 35.2466 78.3216 33.2918V33.2723C78.306 30.989 77.2007 28.815 75.3649 27.4569L68.0845 22.0708C67.2577 21.459 67.692 20.1408 68.722 20.1408H71.0103C71.6011 20.1408 72.0817 20.6208 72.0817 21.2108C72.0817 22.93 73.4755 24.3238 75.1945 24.3238C76.9135 24.3238 78.3073 22.93 78.3073 21.2108C78.3073 17.8727 76.0522 15.0527 72.986 14.189V14.0391C72.986 12.32 71.5922 10.9262 69.8732 10.9262C68.1542 10.9262 66.7604 12.32 66.7604 14.0391V14.1848C63.6869 15.0438 61.4248 17.8673 61.4248 21.2108C61.425 23.5134 62.5303 25.7057 64.3817 27.0756Z" fill="#dbf1dc" stroke="#F8F8F8" stroke-width="0.5"/>
<path d="M69.8735 53.5708C84.3712 53.5708 96.1656 41.7793 96.1656 27.2853C96.1656 12.7913 84.371 1 69.8735 1C55.376 1 43.5814 12.7915 43.5814 27.2855C43.5814 41.7795 55.376 53.5708 69.8735 53.5708ZM69.8735 7.22594C80.9382 7.22594 89.9399 16.2247 89.9399 27.2855C89.9399 38.3463 80.9382 47.345 69.8735 47.345C58.809 47.345 49.8071 38.3463 49.8071 27.2855C49.8071 16.2247 58.809 7.22594 69.8735 7.22594Z" fill="#dbf1dc" stroke="#F8F8F8" stroke-width="0.5"/>
<path d="M105.115 60.6C101.749 56.2655 95.6703 55.4502 91.2952 58.4855L79.4512 66.4092C77.8052 63.3446 74.569 61.2556 70.8531 61.2556H62.4043C58.1396 57.2557 52.446 54.9847 46.5732 54.9847C42.1655 54.9847 37.8777 56.2299 34.1739 58.5857C30.8366 60.7086 28.1067 63.641 26.2308 67.103L24.6449 68.0728L24.234 66.871C23.6778 65.2446 21.9088 64.3765 20.2822 64.9322L3.10708 70.801C1.48107 71.3566 0.61193 73.127 1.16811 74.7539L11.5598 105.149C12.1162 106.777 13.8858 107.643 15.5116 107.088L32.6867 101.22C34.2206 100.695 35.2254 99.0213 34.5912 97.1662L61.8444 96.3225C69.2664 96.3126 76.3839 94.0333 82.4296 89.7301L102.982 75.1112C107.694 71.7573 108.666 65.1686 105.115 60.6ZM16.4439 100.19L8.06624 75.6859L19.3499 71.8304C20.5654 75.3858 26.473 92.665 27.7275 96.3348L16.4439 100.19ZM99.3727 70.0381L78.8205 84.657C73.8208 88.2156 67.9334 90.0964 61.795 90.0964C61.7631 90.0964 61.7307 90.0968 61.6987 90.0979L32.4839 91.0021L26.7084 74.1084L30.2187 71.9617C30.2196 71.9613 30.2202 71.9607 30.221 71.9601C30.7378 71.6438 31.1418 71.1796 31.3884 70.6771C34.2534 64.8378 40.0719 61.2102 46.5732 61.2102C51.2713 61.2102 55.6349 63.091 58.8601 66.5062C59.4541 67.1354 60.3074 67.4809 61.1233 67.4809H70.8531C72.7981 67.4809 74.3803 69.0623 74.3803 71.0063C74.3803 72.9299 72.8245 74.5316 70.8531 74.5316H53.29C51.5708 74.5316 50.1772 75.9254 50.1772 77.6446C50.1772 79.3637 51.571 80.7575 53.29 80.7575H70.8531C73.4604 80.7575 75.9099 79.7423 77.7484 77.9011C79.0347 76.6152 79.916 75.0334 80.3319 73.3101L94.7805 63.6439C94.7979 63.6323 94.8151 63.6204 94.8323 63.6084C96.5362 62.4182 98.8962 62.7422 100.199 64.4196C101.573 66.1878 101.198 68.7392 99.3727 70.0381Z" fill="#dbf1dc" stroke="#F8F8F8" stroke-width="0.5"/>
</g>
</svg>
