<svg width="101" height="102" viewBox="0 0 101 102" fill="none" xmlns="http://www.w3.org/2000/svg">
<g opacity="0.3">
<path d="M29.2237 69.1483C30.1182 69.1483 30.8472 69.8723 30.8472 70.7645H34.0941C34.0941 68.0913 31.9089 65.9159 29.2237 65.9159V62.6835H25.9767V65.9159H21.1062V70.7645C21.1062 73.4376 23.2914 75.613 25.9767 75.613H29.2237C30.1182 75.613 30.8472 76.3371 30.8472 77.2292V78.8454H25.9767C25.0822 78.8454 24.3532 78.1214 24.3532 77.2292H21.1062C21.1062 79.9024 23.2914 82.0778 25.9767 82.0778V85.3102H29.2237V82.0778H34.0941V77.2292C34.0941 74.5561 31.9089 72.3807 29.2237 72.3807H25.9767C25.0822 72.3807 24.3532 71.6566 24.3532 70.7645V69.1483H29.2237Z" fill="#dbf1dc"/>
<path d="M90.3552 43.2897C93.8376 37.9062 95.7858 31.5513 95.7858 24.8393V7.73353H91.5696C85.2347 7.73353 79.02 5.56299 74.07 1.62272L73.057 0.816238L72.0423 1.62272C67.0939 5.56299 60.8792 7.73353 54.5443 7.73353H50.3281V24.8393C50.3281 31.5513 52.2763 37.9062 55.7587 43.2897H37.764L34.4894 21.56C34.1338 19.2069 32.0639 17.4307 29.6741 17.4307H16.2349C13.5496 17.4307 11.3644 19.6061 11.3644 22.2792C11.3644 24.9524 13.5496 27.1278 16.2349 27.1278H32.046L35.6632 51.1363C34.8952 50.868 34.1176 50.624 33.327 50.4349L32.0168 46.5221H23.1834L21.8733 50.4332C19.4137 51.0232 17.0823 51.9864 14.9166 53.3052L11.2086 51.4595L4.96138 57.6786L6.81703 61.3684C5.49064 63.5244 4.52304 65.8468 3.93209 68.2954L0 69.5996V78.3933L3.92884 79.6976C4.51979 82.1461 5.48739 84.4686 6.81378 86.6246L4.95813 90.3143L11.2053 96.5334L14.9134 94.6877C17.0791 96.0065 19.412 96.9698 21.87 97.5597L23.1818 101.472H32.0152L33.3253 97.5597C33.6273 97.487 33.9179 97.3851 34.2166 97.3027C35.9781 99.8191 38.902 101.472 42.2107 101.472C47.5828 101.472 51.9516 97.1233 51.9516 91.7754C51.9516 89.2897 51.0002 87.0286 49.4514 85.3106H80.4276C78.8788 87.0286 77.9274 89.2897 77.9274 91.7754C77.9274 97.1233 82.2962 101.472 87.6684 101.472C93.0405 101.472 97.4093 97.1233 97.4093 91.7754C97.4093 86.4274 93.0405 82.0782 87.6684 82.0782H43.6085L42.6344 75.6135H90.0516C94.1379 75.6135 97.6009 72.5702 98.1058 68.5346L100.642 48.3387L100.656 43.2897H90.3552ZM16.2349 23.8954C15.3403 23.8954 14.6114 23.1714 14.6114 22.2792C14.6114 21.3871 15.3403 20.663 16.2349 20.663H29.6741C30.4712 20.663 31.1612 21.2546 31.2797 22.04L31.559 23.8954H16.2349ZM97.4093 48.038L96.7875 52.9868H89.2918V46.5221H97.4093V48.038ZM33.6078 87.2387C31.7165 88.0921 29.7017 88.543 27.5993 88.543C19.5435 88.543 12.9879 82.0184 12.9879 73.9973C12.9879 65.9761 19.5435 59.4516 27.5993 59.4516C31.3025 59.4516 34.793 60.8302 37.4993 63.3207L40.3534 82.2592C37.4263 82.8249 34.9667 84.6964 33.6078 87.2387ZM39.7121 56.2192H47.0812V62.684H40.6862L39.7121 56.2192ZM50.3281 56.2192H56.8221V62.684H50.3281V56.2192ZM86.0449 52.9868H80.8562C82.7459 51.7084 84.4766 50.2571 86.0449 48.6651V52.9868ZM69.81 56.2192H76.3039V62.684H69.81V56.2192ZM66.563 62.684H60.0691V56.2192H66.563V62.684ZM60.0691 52.9868V48.6651C61.639 50.2571 63.3696 51.71 65.2577 52.9868H60.0691ZM56.8221 52.9868H50.3281V46.5221H56.8221V52.9868ZM56.8221 65.9163V72.3811H50.3281V65.9163H56.8221ZM60.0691 65.9163H66.563V72.3811H60.0691V65.9163ZM69.81 65.9163H76.3039V72.3811H69.81V65.9163ZM79.5509 65.9163H86.0449V72.3811H79.5509V65.9163ZM79.5509 62.684V56.2192H86.0449V62.684H79.5509ZM89.2918 56.2192H96.3816L95.5699 62.684H89.2918V56.2192ZM53.5751 10.9659H54.5443C61.1876 10.9659 67.7124 8.82769 73.057 4.92136C78.4015 8.82769 84.9263 10.9659 91.5696 10.9659H92.5388V24.8393C92.5388 36.6003 85.9751 47.1734 75.4078 52.4341C73.9531 53.1565 72.1608 53.1565 70.7078 52.4341C60.1389 47.1734 53.5751 36.6003 53.5751 24.8393V10.9659ZM47.0812 46.5221V52.9868H39.2251L38.251 46.5221H47.0812ZM31.757 94.5956L30.8349 94.7799L29.6757 98.2401H25.5212L24.3621 94.7782L23.4383 94.5956C20.7433 94.059 18.2123 93.0134 15.9118 91.4877L15.1293 90.9673L11.8482 92.6012L8.91133 89.6775L10.5527 86.4128L10.0299 85.6322C8.49734 83.3437 7.44694 80.8208 6.90956 78.1396L6.72611 77.2183L3.24698 76.0644V71.9286L6.72449 70.7762L6.90794 69.855C7.44694 67.1737 8.49734 64.6509 10.0283 62.3623L10.5527 61.5817L8.91133 58.3154L11.8482 55.3917L15.1293 57.0257L15.9134 56.5053C18.2139 54.9796 20.7449 53.9339 23.4399 53.3973L24.3637 53.2147L25.5229 49.7544H29.6774L30.8365 53.2147L31.7603 53.3989C33.301 53.706 34.7897 54.2216 36.2265 54.8632L36.8175 58.7873C34.0592 57.1243 30.9015 56.2192 27.5993 56.2192C17.7528 56.2192 9.74093 64.1951 9.74093 73.9973C9.74093 83.7995 17.7528 91.7754 27.5993 91.7754C29.2845 91.7754 30.9209 91.52 32.5055 91.0675C32.4892 91.3018 32.4698 91.5362 32.4698 91.7754C32.4698 92.6546 32.598 93.5014 32.8188 94.3112C32.4633 94.4017 32.1175 94.5245 31.757 94.5956ZM48.7046 91.7754C48.7046 95.3407 45.7921 98.2401 42.2107 98.2401C38.6293 98.2401 35.7167 95.3407 35.7167 91.7754C35.7167 88.21 38.6293 85.3106 42.2107 85.3106C45.7921 85.3106 48.7046 88.21 48.7046 91.7754ZM94.1623 91.7754C94.1623 95.3407 91.2498 98.2401 87.6684 98.2401C84.0869 98.2401 81.1744 95.3407 81.1744 91.7754C81.1744 88.21 84.0869 85.3106 87.6684 85.3106C91.2498 85.3106 94.1623 88.21 94.1623 91.7754ZM41.1733 65.9163H47.0812V72.3811H42.1474L41.1733 65.9163ZM90.0533 72.3811H89.2918V65.9163H95.164L94.8848 68.1337C94.5828 70.5548 92.5047 72.3811 90.0533 72.3811Z" fill="#dbf1dc"/>
<path d="M72.1655 49.5479C72.4431 49.6836 72.7515 49.7548 73.0568 49.7548C73.3733 49.7548 73.6899 49.6788 73.9545 49.543C83.4146 44.8335 89.2916 35.3691 89.2916 24.8396V14.1534L87.8451 13.995C82.9487 13.4616 78.122 11.8519 73.888 9.34035L73.0568 8.84741L72.2255 9.34035C67.9915 11.8519 63.1632 13.4616 58.2684 13.995L56.8219 14.1534V24.8396C56.8219 35.3691 62.6989 44.8335 72.1655 49.5479ZM60.0688 17.0221C64.6081 16.3465 69.0549 14.8322 73.0568 12.597C77.0586 14.8322 81.5054 16.3465 86.0447 17.0221V24.8396C86.0447 33.9226 81.0898 42.1102 73.0551 46.3672C65.0286 42.1199 60.0688 33.929 60.0688 24.8396V17.0221Z" fill="#dbf1dc"/>
<path d="M83.9457 25.0379L81.6501 22.7526L69.81 34.5395L66.0874 30.8336L63.7917 33.1188L69.81 39.1101L83.9457 25.0379Z" fill="#dbf1dc"/>
</g>
</svg>
