<svg width="42" height="42" viewBox="0 0 42 42" fill="none" xmlns="http://www.w3.org/2000/svg">
<path d="M41.3438 0.65625H9.84375V21.8584C8.37966 22.1504 6.88406 22.3125 5.37009 22.3125H5.25C2.71688 22.3125 0.65625 24.3731 0.65625 26.9062C0.65625 29.1907 2.33428 31.0853 4.52156 31.4363L5.25 32.9746V38.7188C5.25 40.1664 6.42731 41.3438 7.875 41.3438C9.32269 41.3438 10.5 40.1664 10.5 38.7188V32.0867C13.1624 32.7009 15.7034 33.789 18.0108 35.3273L18.1762 35.4375H21.6562V32.1562H41.3438V0.65625ZM19.0312 18.375H18.1762L18.0108 18.4852C17.4884 18.8337 16.9509 19.1533 16.4062 19.4558V13.7812H19.0312V18.375ZM17.7188 20.2033V33.6092C14.5123 31.6923 10.9351 30.5445 7.21875 30.261V23.5515C10.9351 23.268 14.5123 22.1202 17.7188 20.2033ZM1.96875 26.9062C1.96875 25.097 3.44072 23.625 5.25 23.625H5.37009C5.54991 23.625 5.72709 23.6099 5.90625 23.6053V30.2072C5.72709 30.2026 5.54991 30.1875 5.37009 30.1875H5.25C3.44072 30.1875 1.96875 28.7155 1.96875 26.9062ZM9.1875 38.7188C9.1875 39.4426 8.59884 40.0312 7.875 40.0312C7.15116 40.0312 6.5625 39.4426 6.5625 38.7188V32.6793L6.01519 31.5236C7.08422 31.5538 8.14341 31.6555 9.1875 31.8327V38.7188ZM20.3438 34.125H19.0312V19.6875H20.3438V34.125ZM26.9062 30.8438H24.2812V11.1562H26.9062V30.8438ZM34.7812 30.8438H32.1562V16.4062H34.7812V30.8438ZM40.0312 30.8438H36.0938V15.0938H30.8438V30.8438H28.2188V9.84375H22.9688V30.8438H21.6562V18.375H20.3438V12.4688H15.0938V20.1357C13.8265 20.7342 12.5068 21.1988 11.1562 21.5532V1.96875H40.0312V30.8438Z" fill="#033603"/>
<path d="M17.7188 11.1562C19.1664 11.1562 20.3438 9.97894 20.3438 8.53125C20.3438 8.47022 20.33 8.41378 20.326 8.35406L23.3953 7.33097C23.8632 8.05153 24.6724 8.53125 25.5938 8.53125C26.2644 8.53125 26.8702 8.27072 27.3348 7.85597L30.9993 10.2992C30.9054 10.5689 30.8438 10.8544 30.8438 11.1562C30.8438 12.6039 32.0211 13.7812 33.4688 13.7812C34.9164 13.7812 36.0938 12.6039 36.0938 11.1562C36.0938 9.70856 34.9164 8.53125 33.4688 8.53125C32.7981 8.53125 32.1923 8.79178 31.7277 9.20653L28.0632 6.76331C28.1571 6.49359 28.2188 6.20813 28.2188 5.90625C28.2188 4.45856 27.0414 3.28125 25.5938 3.28125C24.1461 3.28125 22.9688 4.45856 22.9688 5.90625C22.9688 5.96662 22.9825 6.02372 22.9865 6.08344L19.9172 7.10653C19.4493 6.38597 18.6401 5.90625 17.7188 5.90625C16.2711 5.90625 15.0938 7.08356 15.0938 8.53125C15.0938 9.97894 16.2711 11.1562 17.7188 11.1562ZM33.4688 9.84375C34.1926 9.84375 34.7812 10.4324 34.7812 11.1562C34.7812 11.8801 34.1926 12.4688 33.4688 12.4688C32.7449 12.4688 32.1562 11.8801 32.1562 11.1562C32.1562 10.4324 32.7449 9.84375 33.4688 9.84375ZM25.5938 4.59375C26.3176 4.59375 26.9062 5.18241 26.9062 5.90625C26.9062 6.63009 26.3176 7.21875 25.5938 7.21875C24.8699 7.21875 24.2812 6.63009 24.2812 5.90625C24.2812 5.18241 24.8699 4.59375 25.5938 4.59375ZM17.7188 7.21875C18.4426 7.21875 19.0312 7.80741 19.0312 8.53125C19.0312 9.25509 18.4426 9.84375 17.7188 9.84375C16.9949 9.84375 16.4062 9.25509 16.4062 8.53125C16.4062 7.80741 16.9949 7.21875 17.7188 7.21875Z" fill="#033603"/>
<path d="M8.53125 27.5625H9.84375V28.875H8.53125V27.5625Z" fill="#033603"/>
<path d="M8.53125 24.9375H9.84375V26.25H8.53125V24.9375Z" fill="#033603"/>
</svg>
