<svg width="91" height="95" viewBox="0 0 91 95" fill="none" xmlns="http://www.w3.org/2000/svg">
<path d="M88.2424 46.3275H79.0505V42.2093C79.0505 37.1572 75.5248 32.905 70.7778 31.7257V2.75758C70.7778 1.23466 69.5431 0 68.0202 0H2.75758C1.23466 0 0 1.23466 0 2.75758V78.3151C0 79.8381 1.23466 81.0727 2.75758 81.0727H45.2242V83.3325C45.2242 89.2837 50.0735 94.1253 56.0339 94.1253H80.1903C86.1507 94.1253 91 89.2837 91 83.3325V49.085C91 47.5621 89.7653 46.3275 88.2424 46.3275ZM73.5354 42.2093V46.3275H62.6889V42.2093C62.6889 39.2899 65.1216 36.9147 68.1121 36.9147C71.1026 36.9147 73.5354 39.2898 73.5354 42.2093ZM5.51515 75.5576V5.51515H65.2626V31.7739C60.6088 33.0163 57.1737 37.2227 57.1737 42.2091V46.3273H47.9818C46.4589 46.3273 45.2242 47.5619 45.2242 49.0848V75.5576H5.51515ZM85.4848 83.3325C85.4848 86.2426 83.1097 88.6101 80.1903 88.6101H56.0339C53.1146 88.6101 50.7394 86.2426 50.7394 83.3325V51.8426H57.1737V59.104C57.1737 60.627 58.4084 61.8616 59.9313 61.8616C61.4542 61.8616 62.6889 60.627 62.6889 59.104V51.8426H73.5354V59.104C73.5354 60.627 74.77 61.8616 76.2929 61.8616C77.8158 61.8616 79.0505 60.627 79.0505 59.104V51.8426H85.4848V83.3325Z" fill="#DBF1DC" fill-opacity="0.3"/>
<path d="M19.2812 11.9088L16.1471 15.2754L15.9373 15.0145C14.9832 13.8275 13.2474 13.6383 12.0604 14.5926C10.8733 15.5466 10.6843 17.2824 11.6383 18.4694L13.8443 21.2143C14.346 21.8383 15.0937 22.2137 15.8936 22.2427C15.9272 22.2438 15.9605 22.2445 15.994 22.2445C16.7578 22.2445 17.4895 21.9272 18.0121 21.366L23.3175 15.667C24.3555 14.5524 24.293 12.8074 23.1782 11.7696C22.0641 10.7318 20.3189 10.7942 19.2812 11.9088Z" fill="#DBF1DC" fill-opacity="0.3"/>
<path d="M32.3556 19.395H56.9897C58.5126 19.395 59.7473 18.1604 59.7473 16.6375C59.7473 15.1145 58.5126 13.8799 56.9897 13.8799H32.3556C30.8327 13.8799 29.598 15.1145 29.598 16.6375C29.598 18.1604 30.8327 19.395 32.3556 19.395Z" fill="#DBF1DC" fill-opacity="0.3"/>
<path d="M19.2812 28.638L16.1471 32.0047L15.9373 31.7438C14.9832 30.5567 13.2474 30.3678 12.0604 31.3219C10.8733 32.276 10.6843 34.0116 11.6383 35.1987L13.8443 37.9436C14.346 38.5675 15.0937 38.9429 15.8936 38.972C15.9272 38.9731 15.9605 38.9738 15.994 38.9738C16.7578 38.9738 17.4895 38.6565 18.0121 38.0952L23.3175 32.3962C24.3555 31.2816 24.293 29.5366 23.1782 28.4988C22.0641 27.4611 20.3189 27.5234 19.2812 28.638Z" fill="#DBF1DC" fill-opacity="0.3"/>
<path d="M32.3556 36.1243H47.7976C49.3205 36.1243 50.5552 34.8896 50.5552 33.3667C50.5552 31.8438 49.3205 30.6091 47.7976 30.6091H32.3556C30.8327 30.6091 29.598 31.8438 29.598 33.3667C29.598 34.8896 30.8327 36.1243 32.3556 36.1243Z" fill="#DBF1DC" fill-opacity="0.3"/>
<path d="M19.2812 45.3673L16.1471 48.7339L15.9373 48.473C14.9832 47.2858 13.2474 47.097 12.0604 48.0511C10.8733 49.0051 10.6843 50.7409 11.6383 51.9279L13.8443 54.6728C14.346 55.2968 15.0937 55.6722 15.8936 55.7012C15.9272 55.7023 15.9605 55.703 15.994 55.703C16.7578 55.703 17.4895 55.3857 18.0121 54.8245L23.3175 49.1255C24.3555 48.0109 24.293 46.2659 23.1782 45.2281C22.0641 44.1903 20.3189 44.2527 19.2812 45.3673Z" fill="#DBF1DC" fill-opacity="0.3"/>
<path d="M36.951 47.3384H32.3556C30.8327 47.3384 29.598 48.573 29.598 50.096C29.598 51.6189 30.8327 52.8535 32.3556 52.8535H36.951C38.4739 52.8535 39.7086 51.6189 39.7086 50.096C39.7086 48.573 38.4739 47.3384 36.951 47.3384Z" fill="#DBF1DC" fill-opacity="0.3"/>
</svg>
