<svg width="20" height="20" viewBox="0 0 20 20" fill="none" xmlns="http://www.w3.org/2000/svg">
<path d="M16.6406 19.341H3.35937C2.36859 19.341 1.5625 18.535 1.5625 17.5441V8.09024C1.5625 7.74508 1.8423 7.46524 2.1875 7.46524C2.5327 7.46524 2.8125 7.74508 2.8125 8.09024V17.5441C2.8125 17.8457 3.05781 18.091 3.35937 18.091H16.6406C16.9422 18.091 17.1875 17.8457 17.1875 17.5441V8.09024C17.1875 7.74508 17.4673 7.46524 17.8125 7.46524C18.1577 7.46524 18.4375 7.74508 18.4375 8.09024V17.5441C18.4375 18.5349 17.6314 19.341 16.6406 19.341Z" fill="black"/>
<path d="M19.375 10.2775C19.215 10.2775 19.0551 10.2165 18.9331 10.0945L11.1601 2.32153C10.5204 1.68184 9.4796 1.68184 8.83991 2.32153L1.06694 10.0945C0.822881 10.3386 0.427139 10.3386 0.183076 10.0945C-0.0610254 9.85043 -0.0610254 9.45469 0.183076 9.21063L7.95604 1.43762C9.08308 0.310588 10.9169 0.310588 12.0439 1.43762L19.8169 9.21059C20.061 9.45469 20.061 9.85039 19.8169 10.0945C19.6949 10.2165 19.535 10.2775 19.375 10.2775Z" fill="black"/>
<path d="M12.5 19.341H7.5C7.1548 19.341 6.875 19.0612 6.875 18.716V13.1692C6.875 12.0922 7.75117 11.216 8.82813 11.216H11.1719C12.2488 11.216 13.125 12.0922 13.125 13.1692V18.716C13.125 19.0612 12.8452 19.341 12.5 19.341ZM8.125 18.091H11.875V13.1692C11.875 12.7815 11.5596 12.466 11.1719 12.466H8.82813C8.44043 12.466 8.125 12.7815 8.125 13.1692V18.091Z" fill="black"/>
</svg>
