<svg width="100" height="100" viewBox="0 0 100 100" fill="none" xmlns="http://www.w3.org/2000/svg">
<path d="M96.1411 1C93.5184 1 91.3841 3.13433 91.3841 5.75706V10.641L53.3276 13.8123V20.0282H5.75706C3.13433 20.0282 1 22.1626 1 24.7853V91.3841C1 94.0068 3.13433 96.1411 5.75706 96.1411H71.0794L71.7565 97.2242C72.5763 98.5323 73.9843 99.3125 75.5272 99.3125C77.0701 99.3125 78.4782 98.5323 79.298 97.2242L86.627 85.4964V48.5706C90.125 48.5706 92.9698 45.7258 92.9698 42.2278C92.9698 40.8736 92.5353 39.6241 91.8106 38.5934C93.4264 37.8323 94.5554 36.2006 94.5554 34.2994V5.75706C94.5554 4.88176 95.2658 4.17137 96.1411 4.17137H99.3125V1H96.1411ZM89.7984 35.8851H80.2843V32.7137H91.3841V34.2994C91.3841 35.1747 90.6737 35.8851 89.7984 35.8851ZM73.9415 82.0745L70.7749 79.9656L67.5988 82.0809V39.0564H73.9415V82.0745ZM66.0131 29.5423V15.9372L72.3559 15.4091V29.5423H66.0131ZM75.5272 15.1443L81.87 14.6163V29.5423H75.5272V15.1443ZM85.0413 29.5423V14.3515L91.3841 13.8234V29.5423H85.0413ZM56.499 16.73L62.8417 16.202V29.5423H58.0847C57.2094 29.5423 56.499 28.832 56.499 27.9567V16.73ZM5.75706 23.1996H53.3276V27.9567C53.3276 30.5794 55.462 32.7137 58.0847 32.7137H77.1129V35.8851H54.9133C52.576 35.8851 50.5527 37.1695 49.4522 39.0564H4.17137V24.7853C4.17137 23.91 4.88176 23.1996 5.75706 23.1996ZM58.0847 42.2278C58.0847 43.9768 56.6623 45.3992 54.9133 45.3992C53.1643 45.3992 51.7419 43.9768 51.7419 42.2278C51.7419 40.4788 53.1643 39.0564 54.9133 39.0564C56.6623 39.0564 58.0847 40.4788 58.0847 42.2278ZM5.75706 92.9698C4.88176 92.9698 4.17137 92.2594 4.17137 91.3841V42.2278H48.5706C48.5706 45.7258 51.4153 48.5706 54.9133 48.5706C58.4113 48.5706 61.2561 45.7258 61.2561 42.2278C61.2561 41.0671 60.9199 39.9936 60.3744 39.0564H64.4274V85.4964L69.0973 92.9698H5.75706ZM76.6102 95.5417C76.1393 96.2918 74.9167 96.2918 74.4458 95.5417L68.176 85.5075L70.7765 83.776L75.5367 86.9489L80.2906 83.7775L82.8832 85.5075L76.6102 95.5417ZM83.4556 82.0761L80.289 79.9624L77.1129 82.0824V39.0564H81.1659C80.6204 39.9936 80.2843 41.0671 80.2843 42.2278C80.2843 44.5651 81.5687 46.5885 83.4556 47.6889V82.0761ZM86.627 45.3992C84.878 45.3992 83.4556 43.9768 83.4556 42.2278C83.4556 40.4788 84.878 39.0564 86.627 39.0564C88.376 39.0564 89.7984 40.4788 89.7984 42.2278C89.7984 43.9768 88.376 45.3992 86.627 45.3992Z" fill="#DBF1DC" fill-opacity="0.3" stroke="#F5FBF5" stroke-width="0.5"/>
<path d="M12.0998 35.885C14.7225 35.885 16.8568 33.7506 16.8568 31.1279C16.8568 28.5052 14.7225 26.3708 12.0998 26.3708C9.47704 26.3708 7.34271 28.5052 7.34271 31.1279C7.34271 33.7506 9.47704 35.885 12.0998 35.885ZM12.0998 29.5422C12.9751 29.5422 13.6855 30.2526 13.6855 31.1279C13.6855 32.0032 12.9751 32.7136 12.0998 32.7136C11.2245 32.7136 10.5141 32.0032 10.5141 31.1279C10.5141 30.2526 11.2245 29.5422 12.0998 29.5422Z" fill="#DBF1DC" fill-opacity="0.3" stroke="#F5FBF5" stroke-width="0.5"/>
<path d="M24.7853 35.885C27.408 35.885 29.5423 33.7506 29.5423 31.1279C29.5423 28.5052 27.408 26.3708 24.7853 26.3708C22.1625 26.3708 20.0282 28.5052 20.0282 31.1279C20.0282 33.7506 22.1625 35.885 24.7853 35.885ZM24.7853 29.5422C25.6606 29.5422 26.3709 30.2526 26.3709 31.1279C26.3709 32.0032 25.6606 32.7136 24.7853 32.7136C23.91 32.7136 23.1996 32.0032 23.1996 31.1279C23.1996 30.2526 23.91 29.5422 24.7853 29.5422Z" fill="#DBF1DC" fill-opacity="0.3" stroke="#F5FBF5" stroke-width="0.5"/>
<path d="M37.4707 35.885C40.0935 35.885 42.2278 33.7506 42.2278 31.1279C42.2278 28.5052 40.0935 26.3708 37.4707 26.3708C34.848 26.3708 32.7137 28.5052 32.7137 31.1279C32.7137 33.7506 34.848 35.885 37.4707 35.885ZM37.4707 29.5422C38.346 29.5422 39.0564 30.2526 39.0564 31.1279C39.0564 32.0032 38.346 32.7136 37.4707 32.7136C36.5954 32.7136 35.8851 32.0032 35.8851 31.1279C35.8851 30.2526 36.5954 29.5422 37.4707 29.5422Z" fill="#DBF1DC" fill-opacity="0.3" stroke="#F5FBF5" stroke-width="0.5"/>
<path d="M28.4212 68.0632L25.7145 70.77H7.34271V89.7982H26.3709V74.5978L30.6634 70.3054L28.4212 68.0632ZM23.1996 86.6269H10.5141V73.9414H22.5431L16.8568 79.6276L14.8065 77.5773L12.5644 79.8195L16.8568 84.112L23.1996 77.7692V86.6269Z" fill="#DBF1DC" fill-opacity="0.3" stroke="#F5FBF5" stroke-width="0.5"/>
<path d="M25.7145 48.5705H7.34271V67.5988H26.3709V52.3984L30.6634 48.1059L28.4212 45.8638L25.7145 48.5705ZM23.1996 64.4274H10.5141V51.7419H22.5431L16.8568 57.4282L14.8065 55.3779L12.5644 57.62L16.8568 61.9125L23.1996 55.5698V64.4274Z" fill="#DBF1DC" fill-opacity="0.3" stroke="#F5FBF5" stroke-width="0.5"/>
<path d="M32.7137 70.7703H61.256V73.9416H32.7137V70.7703Z" fill="#DBF1DC" fill-opacity="0.3" stroke="#F5FBF5" stroke-width="0.5"/>
<path d="M58.0847 77.1128H61.256V80.2842H58.0847V77.1128Z" fill="#DBF1DC" fill-opacity="0.3" stroke="#F5FBF5" stroke-width="0.5"/>
<path d="M32.7137 77.1128H54.9133V80.2842H32.7137V77.1128Z" fill="#DBF1DC" fill-opacity="0.3" stroke="#F5FBF5" stroke-width="0.5"/>
<path d="M32.7137 83.4556H35.8851V86.6269H32.7137V83.4556Z" fill="#DBF1DC" fill-opacity="0.3" stroke="#F5FBF5" stroke-width="0.5"/>
<path d="M39.0565 83.4556H61.2561V86.6269H39.0565V83.4556Z" fill="#DBF1DC" fill-opacity="0.3" stroke="#F5FBF5" stroke-width="0.5"/>
<path d="M32.7137 64.4275H61.256V67.5989H32.7137V64.4275Z" fill="#DBF1DC" fill-opacity="0.3" stroke="#F5FBF5" stroke-width="0.5"/>
<path d="M32.7137 58.0847H35.8851V61.2561H32.7137V58.0847Z" fill="#DBF1DC" fill-opacity="0.3" stroke="#F5FBF5" stroke-width="0.5"/>
<path d="M39.0565 58.0847H61.2561V61.2561H39.0565V58.0847Z" fill="#DBF1DC" fill-opacity="0.3" stroke="#F5FBF5" stroke-width="0.5"/>
<path d="M32.7137 51.7419H61.256V54.9133H32.7137V51.7419Z" fill="#DBF1DC" fill-opacity="0.3" stroke="#F5FBF5" stroke-width="0.5"/>
</svg>
