<svg width="42" height="42" viewBox="0 0 42 42" fill="none" xmlns="http://www.w3.org/2000/svg">
<path d="M40.0312 0.65625C38.9458 0.65625 38.0625 1.53956 38.0625 2.625V4.64625L22.3125 5.95875V8.53125H2.625C1.53956 8.53125 0.65625 9.41456 0.65625 10.5V38.0625C0.65625 39.1479 1.53956 40.0312 2.625 40.0312H29.6592L29.9394 40.4795C30.2787 41.0209 30.8615 41.3438 31.5 41.3438C32.1385 41.3438 32.7213 41.0209 33.0606 40.4795L36.0938 35.6258V20.3438C37.5414 20.3438 38.7188 19.1664 38.7188 17.7188C38.7188 17.1583 38.5389 16.6412 38.239 16.2146C38.9077 15.8996 39.375 15.2243 39.375 14.4375V2.625C39.375 2.26275 39.669 1.96875 40.0312 1.96875H41.3438V0.65625H40.0312ZM37.4062 15.0938H33.4688V13.7812H38.0625V14.4375C38.0625 14.7998 37.7685 15.0938 37.4062 15.0938ZM30.8438 34.2097L29.5332 33.3368L28.2188 34.2123V16.4062H30.8438V34.2097ZM27.5625 12.4688V6.83813L30.1875 6.61959V12.4688H27.5625ZM31.5 6.51L34.125 6.29147V12.4688H31.5V6.51ZM35.4375 12.4688V6.18188L38.0625 5.96334V12.4688H35.4375ZM23.625 7.16625L26.25 6.94772V12.4688H24.2812C23.919 12.4688 23.625 12.1748 23.625 11.8125V7.16625ZM2.625 9.84375H22.3125V11.8125C22.3125 12.8979 23.1958 13.7812 24.2812 13.7812H32.1562V15.0938H22.9688C22.0014 15.0938 21.1641 15.6253 20.7086 16.4062H1.96875V10.5C1.96875 10.1377 2.26275 9.84375 2.625 9.84375ZM24.2812 17.7188C24.2812 18.4426 23.6926 19.0312 22.9688 19.0312C22.2449 19.0312 21.6562 18.4426 21.6562 17.7188C21.6562 16.9949 22.2449 16.4062 22.9688 16.4062C23.6926 16.4062 24.2812 16.9949 24.2812 17.7188ZM2.625 38.7188C2.26275 38.7188 1.96875 38.4248 1.96875 38.0625V17.7188H20.3438C20.3438 19.1664 21.5211 20.3438 22.9688 20.3438C24.4164 20.3438 25.5938 19.1664 25.5938 17.7188C25.5938 17.2384 25.4546 16.7941 25.2289 16.4062H26.9062V35.6258L28.8389 38.7188H2.625ZM31.9482 39.7832C31.7533 40.0936 31.2473 40.0936 31.0524 39.7832L28.4576 35.6304L29.5339 34.9138L31.5039 36.227L33.4714 34.9145L34.5443 35.6304L31.9482 39.7832ZM34.7812 34.2103L33.4707 33.3355L32.1562 34.2129V16.4062H33.8336C33.6079 16.7941 33.4688 17.2384 33.4688 17.7188C33.4688 18.6861 34.0003 19.5234 34.7812 19.9789V34.2103ZM36.0938 19.0312C35.3699 19.0312 34.7812 18.4426 34.7812 17.7188C34.7812 16.9949 35.3699 16.4062 36.0938 16.4062C36.8176 16.4062 37.4062 16.9949 37.4062 17.7188C37.4062 18.4426 36.8176 19.0312 36.0938 19.0312Z" fill="#033603"/>
<path d="M5.25 15.0938C6.33544 15.0938 7.21875 14.2104 7.21875 13.125C7.21875 12.0396 6.33544 11.1562 5.25 11.1562C4.16456 11.1562 3.28125 12.0396 3.28125 13.125C3.28125 14.2104 4.16456 15.0938 5.25 15.0938ZM5.25 12.4688C5.61225 12.4688 5.90625 12.7628 5.90625 13.125C5.90625 13.4873 5.61225 13.7812 5.25 13.7812C4.88775 13.7812 4.59375 13.4873 4.59375 13.125C4.59375 12.7628 4.88775 12.4688 5.25 12.4688Z" fill="#033603"/>
<path d="M10.5 15.0938C11.5854 15.0938 12.4688 14.2104 12.4688 13.125C12.4688 12.0396 11.5854 11.1562 10.5 11.1562C9.41456 11.1562 8.53125 12.0396 8.53125 13.125C8.53125 14.2104 9.41456 15.0938 10.5 15.0938ZM10.5 12.4688C10.8623 12.4688 11.1562 12.7628 11.1562 13.125C11.1562 13.4873 10.8623 13.7812 10.5 13.7812C10.1378 13.7812 9.84375 13.4873 9.84375 13.125C9.84375 12.7628 10.1378 12.4688 10.5 12.4688Z" fill="#033603"/>
<path d="M15.75 15.0938C16.8354 15.0938 17.7188 14.2104 17.7188 13.125C17.7188 12.0396 16.8354 11.1562 15.75 11.1562C14.6646 11.1562 13.7812 12.0396 13.7812 13.125C13.7812 14.2104 14.6646 15.0938 15.75 15.0938ZM15.75 12.4688C16.1123 12.4688 16.4062 12.7628 16.4062 13.125C16.4062 13.4873 16.1123 13.7812 15.75 13.7812C15.3878 13.7812 15.0938 13.4873 15.0938 13.125C15.0938 12.7628 15.3878 12.4688 15.75 12.4688Z" fill="#033603"/>
<path d="M12.0048 28.4111L10.8846 29.5314H3.28125V37.4064H11.1562V31.1155L12.9327 29.3391L12.0048 28.4111ZM9.84375 36.0939H4.59375V30.8439H9.57206L7.21875 33.1972L6.37022 32.3486L5.44228 33.2766L7.21875 35.053L9.84375 32.428V36.0939Z" fill="#033603"/>
<path d="M10.8846 20.3439H3.28125V28.2189H11.1562V21.928L12.9327 20.1516L12.0048 19.2236L10.8846 20.3439ZM9.84375 26.9064H4.59375V21.6564H9.57206L7.21875 24.0097L6.37022 23.1611L5.44228 24.0891L7.21875 25.8655L9.84375 23.2405V26.9064Z" fill="#033603"/>
<path d="M13.7812 29.5312H25.5938V30.8438H13.7812V29.5312Z" fill="#033603"/>
<path d="M24.2812 32.1562H25.5938V33.4688H24.2812V32.1562Z" fill="#033603"/>
<path d="M13.7812 32.1562H22.9688V33.4688H13.7812V32.1562Z" fill="#033603"/>
<path d="M13.7812 34.7812H15.0938V36.0938H13.7812V34.7812Z" fill="#033603"/>
<path d="M16.4062 34.7812H25.5938V36.0938H16.4062V34.7812Z" fill="#033603"/>
<path d="M13.7812 26.9062H25.5938V28.2188H13.7812V26.9062Z" fill="#033603"/>
<path d="M13.7812 24.2812H15.0938V25.5938H13.7812V24.2812Z" fill="#033603"/>
<path d="M16.4062 24.2812H25.5938V25.5938H16.4062V24.2812Z" fill="#033603"/>
<path d="M13.7812 21.6562H25.5938V22.9688H13.7812V21.6562Z" fill="#033603"/>
</svg>
