<svg width="30" height="30" viewBox="0 0 30 30" fill="none" xmlns="http://www.w3.org/2000/svg">
<path d="M11.3744 22.2353C11.3012 22.5279 10.7197 24.8543 10.6465 25.1471L12.4813 26.1176L14.5587 25.1471L15.2489 23.8206L14.5587 22.2353L13.0058 21.5235L11.3744 22.2353Z" fill="#233E59"/>
<path d="M15.8959 21.5235L14.5586 22.2353V25.1471L16.636 26.1176L18.4708 25.1471C18.3975 24.8542 17.816 22.528 17.7428 22.2353L15.8959 21.5235Z" fill="#0F2836"/>
<path d="M7.76465 25.1471V30H14.5588L16.2843 27.5735L14.5588 25.1471C12.729 25.1471 8.83055 25.1471 7.76465 25.1471Z" fill="#355270"/>
<path d="M21.3527 25.1471C19.523 25.1471 15.6245 25.1471 14.5586 25.1471V30H21.3527C21.3527 28.6933 21.3527 25.9083 21.3527 25.1471Z" fill="#233E59"/>
<path d="M1.94104 2.82353L1.03516 9.61764L1.94104 16.4118L8.28222 17.5765L14.5587 16.4118L15.5293 9.61764L14.5587 2.82353L8.24986 1.85294L1.94104 2.82353Z" fill="#F9F9F9"/>
<path d="M27.1763 2.82353L20.8674 1.85294L14.5586 2.82353V16.4118L21.013 17.9L27.1763 16.4118L27.4674 10.1353L27.1763 2.82353Z" fill="#E1DEF4"/>
<path d="M17.1763 2.82353L10.8674 1.85294L4.55859 2.82353V16.4118L11.013 17.9L17.1763 16.4118L17.4674 10.1353L17.1763 2.82353Z" fill="#E1DEF4"/>
<path d="M6.86466 2.96774L3.93233 2L1 2.96774V16.5161L4 18L6.86466 16.5161L7 10.2581L6.86466 2.96774Z" fill="#E1DEF4"/>
<path d="M17.5293 14.4706H25.294C25.294 13.7917 25.294 13.2083 25.294 12.5294C24.3546 12.5294 18.4748 12.5294 17.5293 12.5294V14.4706Z" fill="#7284FA"/>
<path d="M20.5293 6.47058H24.5293C24.5293 5.79169 24.5293 5.2083 24.5293 4.52941C24.0454 4.52941 21.0164 4.52941 20.5293 4.52941V6.47058Z" fill="#7284FA"/>
<path d="M3.5293 14.4706H11.294C11.294 13.7917 11.294 13.2083 11.294 12.5294C10.3546 12.5294 4.47485 12.5294 3.5293 12.5294V14.4706Z" fill="#7284FA"/>
<path d="M3.5293 6.47058H7.5293C7.5293 5.79169 7.5293 5.2083 7.5293 4.52941C7.04536 4.52941 4.0164 4.52941 3.5293 4.52941V6.47058Z" fill="#7284FA"/>
<path d="M4 10.5882H25C25 9.90934 25 9.32595 25 8.64706C22.459 8.64706 6.55745 8.64706 4 8.64706V10.5882Z" fill="#7284FA"/>
<path d="M1.94118 16.4118C1.94118 15.657 1.94118 3.57825 1.94118 2.82352H14.5588L14.9247 1.85294L14.5588 0.882347C13.5759 0.882347 0.983141 0.882347 0 0.882347V22.2353H14.5588L15.5294 19.4909L14.5588 16.4118C13.8586 16.4118 2.64142 16.4118 1.94118 16.4118Z" fill="#355270"/>
<path d="M29.1174 0.882347C28.1345 0.882347 15.5417 0.882347 14.5586 0.882347V2.82352H27.1762V16.4118C26.476 16.4118 15.2588 16.4118 14.5586 16.4118V22.2353H29.1174C29.1174 16.1401 29.1174 7.63596 29.1174 0.882347Z" fill="#233E59"/>
</svg>
