<svg width="20" height="20" viewBox="0 0 20 20" fill="none" xmlns="http://www.w3.org/2000/svg">
<path d="M11.6257 0H3.70436C3.10111 0 2.61035 0.490756 2.61035 1.09401V18.906C2.61035 19.5092 3.10111 20 3.70436 20H16.2962C16.8994 20 17.3902 19.5092 17.3902 18.906V5.39959C17.3902 5.10749 17.2764 4.8328 17.0699 4.62612L12.3871 0.308329C12.1819 0.10931 11.9122 0 11.6257 0ZM16.0227 18.6325H3.97787V1.36752H10.5207V5.03574C10.5207 5.84576 11.1794 6.50481 11.989 6.50481H16.0227V18.6325ZM11.989 5.1373C11.9335 5.1373 11.8883 5.09171 11.8883 5.03574V2.15666L15.0763 5.13721H11.989V5.1373ZM6.33628 8.07992H13.7664V9.44743H6.33628V8.07992ZM6.33628 10.3591H13.7664V11.7266H6.33628V10.3591ZM6.33628 12.6382H13.7664V14.0057H6.33628V12.6382ZM6.33628 14.9174H10.5756V16.2849H6.33628V14.9174Z" fill="#182342"/>
</svg>
