<svg width="26" height="22" viewBox="0 0 26 22" fill="none" xmlns="http://www.w3.org/2000/svg">
<path fill-rule="evenodd" clip-rule="evenodd" d="M20.1844 16.8595C20.1844 17.2239 19.8423 17.5207 19.4223 17.5207H18.1358V15.7432H20.1844V16.8595ZM5.84451 16.8595V15.7432H7.89306V17.5207H6.60657C6.18662 17.5207 5.84451 17.2239 5.84451 16.8595ZM6.60657 5.07828H7.89306V6.85577H5.84451V5.73951C5.84451 5.37512 6.18662 5.07828 6.60657 5.07828ZM20.1844 5.73951V6.85577H18.1358V5.07828H19.4223C19.8423 5.07828 20.1844 5.37512 20.1844 5.73951ZM18.1358 13.9661H20.1844V12.1886H18.1358V13.9661ZM18.1358 10.4109H20.1844V8.63343H18.1358V10.4109ZM9.94158 17.5208H16.0872V5.07828H9.94158V17.5208ZM5.84451 13.9661H7.89306V12.1886H5.84451V13.9661ZM5.84451 10.4109H7.89306V8.63343H5.84451V10.4109ZM19.4222 3.30078H6.6065C5.05678 3.30078 3.7959 4.39572 3.7959 5.73951V16.8595C3.7959 18.2042 5.05678 19.2982 6.6065 19.2982H19.4222C20.9719 19.2982 22.2328 18.2042 22.2328 16.8595V5.73951C22.2328 4.39572 20.9719 3.30078 19.4222 3.30078Z" fill="white"/>
<mask id="mask0" mask-type="alpha" maskUnits="userSpaceOnUse" x="3" y="3" width="20" height="17">
<path fill-rule="evenodd" clip-rule="evenodd" d="M20.1844 16.8595C20.1844 17.2239 19.8423 17.5207 19.4223 17.5207H18.1358V15.7432H20.1844V16.8595ZM5.84451 16.8595V15.7432H7.89306V17.5207H6.60657C6.18662 17.5207 5.84451 17.2239 5.84451 16.8595ZM6.60657 5.07828H7.89306V6.85577H5.84451V5.73951C5.84451 5.37512 6.18662 5.07828 6.60657 5.07828ZM20.1844 5.73951V6.85577H18.1358V5.07828H19.4223C19.8423 5.07828 20.1844 5.37512 20.1844 5.73951ZM18.1358 13.9661H20.1844V12.1886H18.1358V13.9661ZM18.1358 10.4109H20.1844V8.63343H18.1358V10.4109ZM9.94158 17.5208H16.0872V5.07828H9.94158V17.5208ZM5.84451 13.9661H7.89306V12.1886H5.84451V13.9661ZM5.84451 10.4109H7.89306V8.63343H5.84451V10.4109ZM19.4222 3.30078H6.6065C5.05678 3.30078 3.7959 4.39572 3.7959 5.73951V16.8595C3.7959 18.2042 5.05678 19.2982 6.6065 19.2982H19.4222C20.9719 19.2982 22.2328 18.2042 22.2328 16.8595V5.73951C22.2328 4.39572 20.9719 3.30078 19.4222 3.30078Z" fill="white"/>
</mask>
<g mask="url(#mask0)">
<rect x="0.722656" y="0.634766" width="24.5825" height="21.33" fill="white"/>
</g>
</svg>
