<svg width="20" height="20" viewBox="0 0 20 20" fill="none" xmlns="http://www.w3.org/2000/svg">
<g clip-path="url(#clip0)">
<path d="M17.845 9.41406H15.0546C15.2066 9.11911 15.293 8.7851 15.293 8.43109V2.155C15.293 0.966644 14.3263 0 13.138 0H6.86203C5.67368 0 4.70703 0.966644 4.70703 2.155V8.43109C4.70703 8.7851 4.7934 9.11911 4.94537 9.41406H2.155C0.966644 9.41406 0 10.3807 0 11.5691V17.8452C0 19.0334 0.966644 20 2.155 20H8.43094C9.04892 20 9.60663 19.7382 10 19.3199C10.3934 19.7382 10.9511 20 11.5691 20H17.845C19.0334 20 20 19.0334 20 17.8452V11.5691C20 10.3807 19.0334 9.41406 17.845 9.41406ZM18.8281 11.5691V16.9453H10.5859V11.5691C10.5859 11.0269 11.0269 10.5859 11.5691 10.5859H12.552V12.5104C12.552 12.834 12.8145 13.0963 13.138 13.0963H16.2761C16.5996 13.0963 16.862 12.834 16.862 12.5104V10.5859H17.845C18.3871 10.5859 18.8281 11.0269 18.8281 11.5691ZM15.6902 11.9244H13.7239V10.5859H15.6902V11.9244ZM10.9831 1.17188V2.51038H9.01688V1.17188H10.9831ZM6.86203 1.17188H7.845V3.09631C7.845 3.41995 8.10745 3.68225 8.43094 3.68225H11.5691C11.8925 3.68225 12.155 3.41995 12.155 3.09631V1.17188H13.138C13.6801 1.17188 14.1211 1.61285 14.1211 2.155V7.53128H5.87891V2.155C5.87891 1.61285 6.31989 1.17188 6.86203 1.17188ZM5.91751 8.70316H14.0825C13.9641 9.11316 13.5857 9.41406 13.138 9.41406H6.86203C6.41434 9.41406 6.03592 9.11316 5.91751 8.70316ZM6.27609 10.5859V11.9244H4.30984V10.5859H6.27609ZM2.155 10.5859H3.13797V12.5104C3.13797 12.834 3.40042 13.0963 3.72391 13.0963H6.86203C7.18552 13.0963 7.44797 12.834 7.44797 12.5104V10.5859H8.43094C8.97308 10.5859 9.41406 11.0269 9.41406 11.5691V16.9453H1.17188V11.5691C1.17188 11.0269 1.61285 10.5859 2.155 10.5859ZM8.43094 18.8281H2.155C1.70731 18.8281 1.32889 18.5272 1.21048 18.1172H9.37546C9.25705 18.5272 8.87863 18.8281 8.43094 18.8281ZM17.845 18.8281H11.5691C11.1214 18.8281 10.743 18.5272 10.6245 18.1172H18.7895C18.6711 18.5272 18.2927 18.8281 17.845 18.8281Z" fill="black"/>
</g>
<defs>
<clipPath id="clip0">
<rect width="20" height="20" fill="white"/>
</clipPath>
</defs>
</svg>
