<svg width="20" height="20" viewBox="0 0 20 20" fill="none" xmlns="http://www.w3.org/2000/svg">
<g clip-path="url(#clip0)">
<path d="M7.5 6.875C6.8225 6.875 6.25 6.44625 6.25 5.9375C6.25 5.42875 6.8225 5 7.5 5C7.84 5 8.1575 5.105 8.3925 5.2975C8.66 5.515 9.0525 5.47375 9.2725 5.2075C9.49 4.94 9.45 4.54625 9.1825 4.3275C8.88125 4.0825 8.51625 3.9175 8.125 3.82875V3.125C8.125 2.78 7.845 2.5 7.5 2.5C7.155 2.5 6.875 2.78 6.875 3.125V3.8275C5.8 4.0725 5 4.92125 5 5.9375C5 7.14375 6.12125 8.125 7.5 8.125C8.1775 8.125 8.75 8.55375 8.75 9.0625C8.75 9.57125 8.1775 10 7.5 10C7.16 10 6.8425 9.895 6.6075 9.7025C6.33875 9.48375 5.94625 9.525 5.72875 9.7925C5.51 10.06 5.55 10.4538 5.8175 10.6725C6.11875 10.9175 6.48375 11.0825 6.875 11.1725V11.875C6.875 12.22 7.155 12.5 7.5 12.5C7.845 12.5 8.125 12.22 8.125 11.875V11.1725C9.2 10.9275 10 10.0788 10 9.0625C10 7.85625 8.87875 6.875 7.5 6.875Z" fill="#000"/>
<path d="M17.4513 5.385C17.42 5.30875 17.3737 5.24 17.3162 5.1825L12.3175 0.18375C12.26 0.12625 12.1913 0.08 12.115 0.04875C12.04 0.0175 11.9587 0 11.875 0H3.75C3.06125 0 2.5 0.56125 2.5 1.25V18.75C2.5 19.4387 3.06125 20 3.75 20H16.25C16.9388 20 17.5 19.4387 17.5 18.75V5.625C17.5 5.54125 17.4825 5.46 17.4513 5.385ZM12.5 2.13375L15.3663 5H12.5V2.13375ZM16.25 19.375V18.75H3.75V1.25H11.25V5C11.25 5.68875 11.8112 6.25 12.5 6.25H16.25V18.75C16.25 18.75 16.25 18.75 16.2513 18.75L16.25 19.375Z" fill="#000"/>
<path d="M14.375 8.75H11.875C11.53 8.75 11.25 9.02875 11.25 9.375C11.25 9.72125 11.53 10 11.875 10H14.375C14.72 10 15 9.72 15 9.375C15 9.03 14.72 8.75 14.375 8.75Z" fill="#000"/>
<path d="M14.375 11.25H11.875C11.53 11.25 11.25 11.5288 11.25 11.875C11.25 12.2212 11.53 12.5 11.875 12.5H14.375C14.72 12.5 15 12.22 15 11.875C15 11.53 14.72 11.25 14.375 11.25Z" fill="#000"/>
<path d="M14.375 13.75H5.625C5.28 13.75 5 14.0288 5 14.375C5 14.7212 5.28 15 5.625 15H14.375C14.72 15 15 14.72 15 14.375C15 14.03 14.72 13.75 14.375 13.75Z" fill="#000"/>
<path d="M14.375 16.25H5.625C5.28 16.25 5 16.5288 5 16.875C5 17.2212 5.28 17.5 5.625 17.5H14.375C14.72 17.5 15 17.22 15 16.875C15 16.53 14.72 16.25 14.375 16.25Z" fill="#000"/>
</g>
<defs>
<clipPath id="clip0">
<rect width="20" height="20" fill="white"/>
</clipPath>
</defs>
</svg>
