<svg width="456" height="72" viewBox="0 0 456 72" fill="none" xmlns="http://www.w3.org/2000/svg">
<path d="M109.8 20.4155L106.399 23.1861V29.258C106.399 29.6009 106.477 29.8663 106.631 30.0544C106.797 30.2313 107.074 30.3696 107.461 30.4691V31H100.394V30.4691C100.792 30.3585 101.068 30.2147 101.223 30.0378C101.378 29.8608 101.455 29.6009 101.455 29.258V10.0799C101.455 9.74811 101.378 9.49373 101.223 9.31677C101.068 9.13981 100.792 8.99603 100.394 8.88543V8.35455H107.461V8.88543C107.063 8.98497 106.786 9.12875 106.631 9.31677C106.477 9.49373 106.399 9.74811 106.399 10.0799V18.01L115.723 10.3951C116.154 10.0412 116.37 9.75917 116.37 9.54903C116.37 9.22829 116.049 9.00709 115.408 8.88543V8.35455H124.665V8.88543C124.278 8.96285 124.001 9.05133 123.835 9.15087C123.669 9.25041 123.188 9.62645 122.392 10.279L121.115 11.3408L113.417 17.5289L122.143 28.0304C122.951 29.0037 123.531 29.6341 123.885 29.9216C124.25 30.1981 124.704 30.3806 125.246 30.4691V31H116.403V30.4691C116.989 30.3475 117.282 30.1373 117.282 29.8387C117.282 29.6839 117.017 29.2746 116.486 28.611L109.8 20.4155ZM145.771 14.1113V23.9492C145.771 26.1944 145.328 27.8424 144.444 28.8931C143.017 30.5631 140.329 31.3982 136.381 31.3982C133.737 31.3982 131.603 30.9945 129.977 30.1871C128.805 29.6009 128.003 28.7659 127.571 27.682C127.173 26.6866 126.974 25.4423 126.974 23.9492V14.1113C126.974 13.7684 126.897 13.5085 126.742 13.3316C126.587 13.1546 126.311 13.0053 125.912 12.8836V12.4191H132.499V12.8836C132.089 12.9942 131.807 13.1435 131.653 13.3316C131.498 13.5085 131.42 13.7684 131.42 14.1113V23.0534C131.42 24.093 131.509 24.8893 131.686 25.4423C131.874 25.9953 132.195 26.4488 132.648 26.8027C133.555 27.5216 134.866 27.8811 136.58 27.8811C138.294 27.8811 139.605 27.5216 140.512 26.8027C140.954 26.4488 141.264 25.9953 141.441 25.4423C141.618 24.8893 141.706 24.093 141.706 23.0534V14.1113C141.706 13.7684 141.629 13.5085 141.474 13.3316C141.33 13.1546 141.054 13.0053 140.644 12.8836V12.4191H146.833V12.8836C146.434 12.9942 146.158 13.1435 146.003 13.3316C145.848 13.5085 145.771 13.7684 145.771 14.1113ZM158.731 22.5225L156.093 24.6792V29.3078C156.093 29.6507 156.171 29.9161 156.325 30.1041C156.48 30.2811 156.757 30.4304 157.155 30.5521V31H150.585V30.5355C150.972 30.4359 151.243 30.2922 151.398 30.1041C151.564 29.9161 151.647 29.6507 151.647 29.3078V14.1113C151.647 13.7684 151.57 13.5085 151.415 13.3316C151.26 13.1546 150.983 13.0053 150.585 12.8836V12.4191H157.155V12.8836C156.757 12.9942 156.48 13.1435 156.325 13.3316C156.171 13.5085 156.093 13.7684 156.093 14.1113V20.1999L163.078 14.6256C163.597 14.2164 163.857 13.8569 163.857 13.5472C163.857 13.2154 163.537 12.9942 162.895 12.8836V12.4191H171.256V12.867C170.836 12.9334 170.482 13.0606 170.195 13.2486C169.918 13.4366 169.221 14.0173 168.104 14.9906L161.833 19.9842L168.735 27.9142C169.62 28.9428 170.25 29.612 170.626 29.9216C171.013 30.2313 171.456 30.4415 171.953 30.5521V31H163.824V30.5521C164.432 30.4083 164.737 30.1871 164.737 29.8885C164.737 29.7779 164.698 29.6728 164.62 29.5733C164.554 29.4627 164.3 29.153 163.857 28.6442L158.731 22.5225ZM189.807 26.3548H181.264L180.301 28.3788C180.069 28.8654 179.953 29.247 179.953 29.5235C179.953 30.0544 180.307 30.3917 181.015 30.5355V31H174.18V30.5355C174.6 30.4691 174.91 30.3419 175.109 30.1539C175.319 29.9659 175.562 29.5954 175.839 29.0424L182.624 15.3058C182.878 14.786 183.006 14.3325 183.006 13.9454C183.006 13.4919 182.696 13.138 182.076 12.8836V12.4191H189.293V12.8836C188.685 13.127 188.381 13.503 188.381 14.0118C188.381 14.3767 188.519 14.8247 188.795 15.3556L195.83 28.6774C196.217 29.4074 196.521 29.8829 196.742 30.1041C196.963 30.3143 197.301 30.4636 197.754 30.5521V31H190.172V30.5521C190.891 30.4304 191.251 30.0931 191.251 29.5401C191.251 29.1972 191.113 28.7714 190.836 28.2626L189.807 26.3548ZM188.464 23.7501L185.428 17.7943L182.541 23.7501H188.464ZM201.225 29.3078V14.1113C201.225 13.7684 201.147 13.5085 200.993 13.3316C200.838 13.1546 200.561 13.0053 200.163 12.8836V12.4191H211.063C213.33 12.4191 215.116 12.7011 216.421 13.2652C218.257 14.0615 219.579 15.3777 220.386 17.2136C220.95 18.4966 221.232 19.9952 221.232 21.7096C221.232 24.8838 220.287 27.2894 218.395 28.9262C217.544 29.6562 216.537 30.1871 215.376 30.5189C214.226 30.8396 212.788 31 211.063 31H200.163V30.5355C200.55 30.4359 200.821 30.2922 200.976 30.1041C201.142 29.9161 201.225 29.6507 201.225 29.3078ZM205.671 27.6322H210.416C212.594 27.6322 214.176 27.1345 215.16 26.1391C216.189 25.0995 216.703 23.6229 216.703 21.7096C216.703 19.7962 216.189 18.3197 215.16 17.28C214.652 16.7602 214.021 16.3841 213.269 16.1519C212.517 15.9086 211.566 15.7869 210.416 15.7869H205.671V27.6322ZM230.443 14.1113V29.3078C230.443 29.6507 230.521 29.9161 230.675 30.1041C230.83 30.2811 231.107 30.4304 231.505 30.5521V31H224.935V30.5355C225.322 30.4359 225.593 30.2922 225.748 30.1041C225.914 29.9161 225.997 29.6507 225.997 29.3078V14.1113C225.997 13.7684 225.92 13.5085 225.765 13.3316C225.61 13.1546 225.333 13.0053 224.935 12.8836V12.4191H231.505V12.8836C231.107 12.9942 230.83 13.1435 230.675 13.3316C230.521 13.5085 230.443 13.7684 230.443 14.1113ZM249.724 26.3548H241.18L240.218 28.3788C239.986 28.8654 239.87 29.247 239.87 29.5235C239.87 30.0544 240.224 30.3917 240.931 30.5355V31H234.096V30.5355C234.517 30.4691 234.826 30.3419 235.025 30.1539C235.236 29.9659 235.479 29.5954 235.755 29.0424L242.541 15.3058C242.795 14.786 242.922 14.3325 242.922 13.9454C242.922 13.4919 242.613 13.138 241.993 12.8836V12.4191H249.21V12.8836C248.602 13.127 248.297 13.503 248.297 14.0118C248.297 14.3767 248.436 14.8247 248.712 15.3556L255.746 28.6774C256.133 29.4074 256.438 29.8829 256.659 30.1041C256.88 30.3143 257.217 30.4636 257.671 30.5521V31H250.089V30.5521C250.808 30.4304 251.168 30.0931 251.168 29.5401C251.168 29.1972 251.029 28.7714 250.753 28.2626L249.724 26.3548ZM248.38 23.7501L245.344 17.7943L242.458 23.7501H248.38ZM281.02 24.4303L287.025 11.1251C287.28 10.561 287.407 10.1242 287.407 9.81447C287.407 9.33889 287.042 9.02921 286.312 8.88543V8.35455H294.06V8.88543C293.573 8.95179 293.236 9.09004 293.048 9.30018C292.859 9.51032 292.533 10.1186 292.069 11.1251L284.222 28.0636C283.89 28.7825 283.724 29.2525 283.724 29.4737C283.724 30.0378 284.072 30.3696 284.769 30.4691V31H276.972V30.4691C277.669 30.3696 278.017 30.0322 278.017 29.4571C278.017 29.247 277.851 28.7825 277.519 28.0636L269.672 11.1251C269.208 10.1186 268.881 9.51032 268.693 9.30018C268.505 9.09004 268.168 8.95179 267.681 8.88543V8.35455H275.727V8.88543C274.998 9.02921 274.633 9.33889 274.633 9.81447C274.633 10.1242 274.76 10.561 275.014 11.1251L281.02 24.4303ZM301.362 23.1031V27.6322H313.158C313.501 27.6322 313.761 27.5548 313.938 27.4C314.126 27.2451 314.275 26.9631 314.386 26.5539H314.85V32.0618H314.386C314.286 31.6747 314.142 31.3982 313.954 31.2323C313.766 31.0774 313.501 31 313.158 31H295.855V30.5355C296.242 30.4359 296.513 30.2922 296.667 30.1041C296.833 29.9161 296.916 29.6507 296.916 29.3078V14.1113C296.916 13.7684 296.839 13.5085 296.684 13.3316C296.529 13.1546 296.253 13.0053 295.855 12.8836V12.4191H312.644C312.998 12.4191 313.263 12.3417 313.44 12.1869C313.628 12.032 313.777 11.7555 313.888 11.3574H314.336V16.8653H313.888C313.777 16.456 313.628 16.174 313.44 16.0192C313.263 15.8643 312.998 15.7869 312.644 15.7869H301.362V19.8681H308.363C308.706 19.8681 308.966 19.7906 309.143 19.6358C309.331 19.481 309.486 19.2045 309.608 18.8063H310.056V24.1815H309.608C309.497 23.7833 309.348 23.5068 309.16 23.352C308.983 23.1861 308.717 23.1031 308.363 23.1031H301.362ZM323.613 18.7565V29.3078C323.613 29.6507 323.69 29.9161 323.845 30.1041C324.011 30.2922 324.288 30.4415 324.675 30.5521V31H318.503V30.5355C318.89 30.4359 319.161 30.2922 319.316 30.1041C319.482 29.9161 319.565 29.6507 319.565 29.3078V14.1113C319.565 13.7684 319.488 13.5085 319.333 13.3316C319.178 13.1546 318.901 13.0053 318.503 12.8836V12.4191H325.637V12.8836C325.15 13.0053 324.907 13.221 324.907 13.5307C324.907 13.7961 325.084 14.1058 325.438 14.4597L335.392 24.3474V14.1113C335.392 13.7684 335.315 13.5085 335.16 13.3316C335.005 13.1435 334.728 12.9942 334.33 12.8836V12.4191H340.502V12.8836C340.104 12.9942 339.827 13.1435 339.672 13.3316C339.517 13.5085 339.44 13.7684 339.44 14.1113V29.3078C339.44 29.6507 339.517 29.9161 339.672 30.1041C339.827 30.2811 340.104 30.4304 340.502 30.5521V31H333.849V30.5521C334.336 30.4525 334.579 30.2479 334.579 29.9382C334.579 29.7834 334.513 29.623 334.38 29.4571C334.247 29.2912 333.943 28.965 333.468 28.4783L323.613 18.7565ZM354.889 15.7869V29.3078C354.889 29.6507 354.966 29.9161 355.121 30.1041C355.276 30.2811 355.552 30.4304 355.95 30.5521V31H349.381V30.5355C349.768 30.4359 350.039 30.2922 350.194 30.1041C350.36 29.9161 350.443 29.6507 350.443 29.3078V15.7869H344.968C344.614 15.7869 344.343 15.8699 344.155 16.0358C343.978 16.1906 343.834 16.4671 343.724 16.8653H343.276V11.3574H343.74C343.84 11.7445 343.978 12.021 344.155 12.1869C344.343 12.3417 344.614 12.4191 344.968 12.4191H360.363C360.717 12.4191 360.983 12.3417 361.16 12.1869C361.348 12.032 361.497 11.7555 361.608 11.3574H362.056V16.8653H361.608C361.497 16.4671 361.348 16.1906 361.16 16.0358C360.983 15.8699 360.717 15.7869 360.363 15.7869H354.889ZM384.323 14.1113V23.9492C384.323 26.1944 383.88 27.8424 382.996 28.8931C381.569 30.5631 378.881 31.3982 374.933 31.3982C372.289 31.3982 370.155 30.9945 368.529 30.1871C367.357 29.6009 366.555 28.7659 366.123 27.682C365.725 26.6866 365.526 25.4423 365.526 23.9492V14.1113C365.526 13.7684 365.449 13.5085 365.294 13.3316C365.139 13.1546 364.863 13.0053 364.464 12.8836V12.4191H371.051V12.8836C370.642 12.9942 370.359 13.1435 370.205 13.3316C370.05 13.5085 369.972 13.7684 369.972 14.1113V23.0534C369.972 24.093 370.061 24.8893 370.238 25.4423C370.426 25.9953 370.747 26.4488 371.2 26.8027C372.107 27.5216 373.418 27.8811 375.132 27.8811C376.846 27.8811 378.157 27.5216 379.064 26.8027C379.506 26.4488 379.816 25.9953 379.993 25.4423C380.17 24.8893 380.258 24.093 380.258 23.0534V14.1113C380.258 13.7684 380.181 13.5085 380.026 13.3316C379.882 13.1546 379.606 13.0053 379.196 12.8836V12.4191H385.385V12.8836C384.986 12.9942 384.71 13.1435 384.555 13.3316C384.4 13.5085 384.323 13.7684 384.323 14.1113ZM394.645 23.3686V29.3078C394.645 29.6507 394.723 29.9161 394.877 30.1041C395.032 30.2811 395.309 30.4304 395.707 30.5521V31H389.137V30.5355C389.524 30.4359 389.795 30.2922 389.95 30.1041C390.116 29.9161 390.199 29.6507 390.199 29.3078V14.1113C390.199 13.7684 390.122 13.5085 389.967 13.3316C389.812 13.1546 389.535 13.0053 389.137 12.8836V12.4191H401.314C402.896 12.4191 404.101 12.5021 404.931 12.668C405.76 12.8228 406.502 13.1104 407.154 13.5307C408.492 14.4044 409.161 15.8311 409.161 17.8109C409.161 19.3151 408.747 20.493 407.917 21.3446C407.099 22.1851 405.772 22.7934 403.936 23.1695L407.453 28.0801C408.094 28.9871 408.603 29.6064 408.979 29.9382C409.366 30.259 409.803 30.4636 410.29 30.5521V31H402.492V30.5521C403.067 30.3972 403.355 30.1484 403.355 29.8055C403.355 29.5622 403.178 29.1917 402.824 28.694L399.108 23.3686H394.645ZM394.645 20.0008H401.348C402.365 20.0008 403.117 19.8902 403.604 19.669C404.29 19.3704 404.632 18.7786 404.632 17.8938C404.632 17.1086 404.389 16.5611 403.902 16.2514C403.427 15.9417 402.575 15.7869 401.348 15.7869H394.645V20.0008ZM418.887 23.1031V27.6322H430.682C431.025 27.6322 431.285 27.5548 431.462 27.4C431.65 27.2451 431.799 26.9631 431.91 26.5539H432.374V32.0618H431.91C431.81 31.6747 431.666 31.3982 431.478 31.2323C431.29 31.0774 431.025 31 430.682 31H413.379V30.5355C413.766 30.4359 414.037 30.2922 414.192 30.1041C414.357 29.9161 414.44 29.6507 414.44 29.3078V14.1113C414.44 13.7684 414.363 13.5085 414.208 13.3316C414.053 13.1546 413.777 13.0053 413.379 12.8836V12.4191H430.168C430.522 12.4191 430.787 12.3417 430.964 12.1869C431.152 12.032 431.301 11.7555 431.412 11.3574H431.86V16.8653H431.412C431.301 16.456 431.152 16.174 430.964 16.0192C430.787 15.8643 430.522 15.7869 430.168 15.7869H418.887V19.8681H425.888C426.23 19.8681 426.49 19.7906 426.667 19.6358C426.855 19.481 427.01 19.2045 427.132 18.8063H427.58V24.1815H427.132C427.021 23.7833 426.872 23.5068 426.684 23.352C426.507 23.1861 426.242 23.1031 425.888 23.1031H418.887ZM453.895 14.0947L451.655 18.4247L451.257 18.2091C451.257 17.8441 451.141 17.5565 450.909 17.3464C450.278 16.7823 449.349 16.3178 448.122 15.9528C446.894 15.5878 445.65 15.4053 444.389 15.4053C443.316 15.4053 442.365 15.5546 441.535 15.8533C440.341 16.2846 439.744 16.9095 439.744 17.7279C439.744 18.2699 440.031 18.657 440.606 18.8892C441.181 19.1104 442.293 19.2874 443.941 19.4201L446.562 19.6192C448.852 19.7962 450.593 20.2386 451.788 20.9464C452.452 21.3446 452.999 21.8755 453.43 22.5391C453.972 23.3686 454.243 24.3031 454.243 25.3428C454.243 27.2341 453.392 28.7272 451.688 29.8221C450.063 30.8728 447.862 31.3982 445.086 31.3982C442.287 31.3982 439.583 30.8064 436.973 29.623C436.796 29.5456 436.647 29.5069 436.525 29.5069C436.304 29.5069 436.099 29.6396 435.911 29.9051L435.497 29.7392L437.404 25.1935L437.819 25.3594C437.819 25.4257 437.819 25.47 437.819 25.4921C437.819 25.7797 437.93 26.023 438.151 26.2221C438.704 26.7087 439.661 27.1345 441.021 27.4995C442.381 27.8534 443.725 28.0304 445.052 28.0304C446.225 28.0304 447.275 27.8755 448.205 27.5659C449.355 27.1898 449.93 26.5815 449.93 25.7409C449.93 25.0663 449.532 24.5962 448.735 24.3308C448.205 24.1538 447.248 24.0045 445.865 23.8829L443.261 23.6672C441.856 23.5566 440.783 23.4128 440.042 23.2358C439.301 23.0589 438.654 22.799 438.101 22.4561C437.393 22.0137 436.84 21.4109 436.442 20.6478C436.044 19.8846 435.845 19.0496 435.845 18.1427C435.845 16.1076 436.719 14.5537 438.466 13.4809C440.059 12.5076 442.027 12.021 444.372 12.021C445.644 12.021 446.828 12.1647 447.922 12.4523C449.028 12.7288 450.345 13.221 451.871 13.9288C452.324 14.139 452.64 14.244 452.817 14.244C452.994 14.244 453.22 14.1224 453.497 13.879L453.895 14.0947Z" fill="#033603"/>
<path d="M102.483 53.7703V57.2088C102.483 57.4073 102.528 57.561 102.618 57.6698C102.707 57.7723 102.867 57.8587 103.098 57.9291V58.1885H99.2943V57.9195C99.5184 57.8619 99.6753 57.7787 99.7649 57.6698C99.861 57.561 99.909 57.4073 99.909 57.2088V48.4108C99.909 48.2123 99.8642 48.0618 99.7745 47.9594C99.6849 47.8569 99.5248 47.7705 99.2943 47.7001V47.4311H106.306C107.695 47.4311 108.742 47.6392 109.447 48.0554C109.856 48.2988 110.177 48.6445 110.407 49.0927C110.638 49.541 110.753 50.0436 110.753 50.6007C110.753 51.67 110.388 52.4672 109.658 52.9923C108.928 53.5109 107.811 53.7703 106.306 53.7703H102.483ZM102.483 51.8205H106.152C106.824 51.8205 107.292 51.7565 107.554 51.6284C107.939 51.4427 108.131 51.1001 108.131 50.6007C108.131 50.1013 107.939 49.7587 107.554 49.573C107.298 49.4449 106.831 49.3809 106.152 49.3809H102.483V51.8205ZM128.986 53.7703V57.2088C128.986 57.4073 129.031 57.561 129.121 57.6698C129.21 57.7723 129.37 57.8587 129.601 57.9291V58.1885H125.797V57.9195C126.021 57.8619 126.178 57.7787 126.268 57.6698C126.364 57.561 126.412 57.4073 126.412 57.2088V48.4108C126.412 48.2123 126.367 48.0618 126.278 47.9594C126.188 47.8569 126.028 47.7705 125.797 47.7001V47.4311H132.847C133.763 47.4311 134.461 47.4791 134.941 47.5752C135.421 47.6648 135.85 47.8313 136.228 48.0746C137.003 48.5805 137.39 49.4065 137.39 50.5527C137.39 51.4235 137.15 52.1054 136.67 52.5985C136.196 53.0851 135.428 53.4373 134.365 53.655L136.401 56.498C136.772 57.0231 137.067 57.3817 137.285 57.5738C137.509 57.7595 137.762 57.8779 138.043 57.9291V58.1885H133.529V57.9291C133.862 57.8395 134.029 57.6954 134.029 57.4969C134.029 57.3561 133.926 57.1416 133.721 56.8534L131.57 53.7703H128.986ZM128.986 51.8205H132.866C133.456 51.8205 133.891 51.7565 134.173 51.6284C134.57 51.4555 134.768 51.113 134.768 50.6007C134.768 50.1461 134.627 49.8291 134.346 49.6498C134.07 49.4705 133.577 49.3809 132.866 49.3809H128.986V51.8205ZM156.2 48.4108V57.2088C156.2 57.4073 156.245 57.561 156.334 57.6698C156.424 57.7723 156.584 57.8587 156.815 57.9291V58.1885H153.011V57.9195C153.235 57.8619 153.392 57.7787 153.482 57.6698C153.578 57.561 153.626 57.4073 153.626 57.2088V48.4108C153.626 48.2123 153.581 48.0618 153.491 47.9594C153.402 47.8569 153.242 47.7705 153.011 47.7001V47.4311H156.815V47.7001C156.584 47.7641 156.424 47.8505 156.334 47.9594C156.245 48.0618 156.2 48.2123 156.2 48.4108ZM177.92 54.7884L180.523 49.0927C180.676 48.7662 180.753 48.5229 180.753 48.3628C180.753 48.0426 180.545 47.8217 180.129 47.7001V47.4311H184.288V47.7001C184.032 47.7833 183.846 47.8857 183.731 48.0074C183.615 48.1291 183.468 48.3788 183.289 48.7566L179.524 56.6805C179.389 56.9623 179.322 57.1768 179.322 57.324C179.322 57.6442 179.533 57.8459 179.956 57.9291V58.1885H175.74V57.9291C176.156 57.8459 176.364 57.6442 176.364 57.324C176.364 57.1768 176.297 56.9623 176.162 56.6805L172.397 48.7566C172.218 48.3724 172.07 48.1227 171.955 48.0074C171.846 47.8857 171.661 47.7833 171.398 47.7001V47.4311H175.711V47.7001C175.301 47.8281 175.096 48.049 175.096 48.3628C175.096 48.5037 175.176 48.747 175.336 49.0927L177.92 54.7884ZM205.585 55.4991H200.639L200.081 56.6709C199.947 56.9527 199.88 57.1736 199.88 57.3337C199.88 57.641 200.085 57.8363 200.494 57.9195V58.1885H196.537V57.9195C196.781 57.8811 196.96 57.8075 197.075 57.6986C197.197 57.5898 197.338 57.3753 197.498 57.0551L201.426 49.1024C201.573 48.8014 201.647 48.5389 201.647 48.3148C201.647 48.0522 201.468 47.8473 201.109 47.7001V47.4311H205.287V47.7001C204.935 47.8409 204.759 48.0586 204.759 48.3532C204.759 48.5645 204.839 48.8238 204.999 49.1312L209.072 56.8438C209.296 57.2664 209.472 57.5418 209.6 57.6698C209.728 57.7915 209.923 57.8779 210.186 57.9291V58.1885H205.796V57.9291C206.213 57.8587 206.421 57.6634 206.421 57.3433C206.421 57.1448 206.341 56.8982 206.181 56.6037L205.585 55.4991ZM204.807 53.9912L203.049 50.5431L201.378 53.9912H204.807ZM230.695 49.3809V57.2088C230.695 57.4073 230.74 57.561 230.83 57.6698C230.919 57.7723 231.08 57.8587 231.31 57.9291V58.1885H227.507V57.9195C227.731 57.8619 227.888 57.7787 227.977 57.6698C228.073 57.561 228.121 57.4073 228.121 57.2088V49.3809H224.952C224.747 49.3809 224.59 49.4289 224.481 49.525C224.379 49.6146 224.295 49.7747 224.231 50.0052H223.972V46.8164H224.241C224.299 47.0405 224.379 47.2006 224.481 47.2967C224.59 47.3863 224.747 47.4311 224.952 47.4311H233.865C234.07 47.4311 234.224 47.3863 234.326 47.2967C234.435 47.207 234.521 47.0469 234.585 46.8164H234.845V50.0052H234.585C234.521 49.7747 234.435 49.6146 234.326 49.525C234.224 49.4289 234.07 49.3809 233.865 49.3809H230.695ZM252.953 53.6166V56.2387H259.782C259.981 56.2387 260.131 56.1939 260.234 56.1042C260.342 56.0146 260.429 55.8513 260.493 55.6144H260.762V58.8032H260.493C260.435 58.5791 260.352 58.419 260.243 58.3229C260.134 58.2333 259.981 58.1885 259.782 58.1885H249.764V57.9195C249.988 57.8619 250.145 57.7787 250.235 57.6698C250.331 57.561 250.379 57.4073 250.379 57.2088V48.4108C250.379 48.2123 250.334 48.0618 250.245 47.9594C250.155 47.8569 249.995 47.7705 249.764 47.7001V47.4311H259.484C259.689 47.4311 259.843 47.3863 259.945 47.2967C260.054 47.207 260.141 47.0469 260.205 46.8164H260.464V50.0052H260.205C260.141 49.7683 260.054 49.605 259.945 49.5154C259.843 49.4257 259.689 49.3809 259.484 49.3809H252.953V51.7437H257.006C257.205 51.7437 257.355 51.6988 257.458 51.6092C257.567 51.5196 257.656 51.3595 257.727 51.129H257.986V54.2409H257.727C257.663 54.0104 257.576 53.8503 257.467 53.7607C257.365 53.6646 257.211 53.6166 257.006 53.6166H252.953ZM297.834 56.2387H303.856C304.061 56.2387 304.214 56.1939 304.317 56.1042C304.419 56.0146 304.506 55.8513 304.576 55.6144H304.835V58.8032H304.576C304.512 58.5727 304.426 58.4126 304.317 58.3229C304.214 58.2333 304.061 58.1885 303.856 58.1885H294.645V57.9195C294.869 57.8619 295.026 57.7787 295.115 57.6698C295.211 57.561 295.259 57.4073 295.259 57.2088V48.4108C295.259 48.2123 295.215 48.0618 295.125 47.9594C295.035 47.8569 294.875 47.7705 294.645 47.7001V47.4311H298.448V47.7001C298.218 47.7641 298.058 47.8505 297.968 47.9594C297.878 48.0618 297.834 48.2123 297.834 48.4108V56.2387ZM322.8 48.4108V57.2088C322.8 57.4073 322.845 57.561 322.934 57.6698C323.024 57.7723 323.184 57.8587 323.415 57.9291V58.1885H319.611V57.9195C319.835 57.8619 319.992 57.7787 320.082 57.6698C320.178 57.561 320.226 57.4073 320.226 57.2088V48.4108C320.226 48.2123 320.181 48.0618 320.091 47.9594C320.002 47.8569 319.842 47.7705 319.611 47.7001V47.4311H323.415V47.7001C323.184 47.7641 323.024 47.8505 322.934 47.9594C322.845 48.0618 322.8 48.2123 322.8 48.4108ZM345.864 57.8523L341.946 51.1194V57.2088C341.946 57.4073 341.99 57.561 342.08 57.6698C342.17 57.7723 342.33 57.8587 342.56 57.9291V58.1885H338.987V57.9195C339.211 57.8619 339.368 57.7787 339.458 57.6698C339.554 57.561 339.602 57.4073 339.602 57.2088V48.4108C339.602 48.2123 339.557 48.0618 339.468 47.9594C339.378 47.8505 339.218 47.7641 338.987 47.7001V47.4311H343.53V47.7001C343.229 47.7961 343.079 47.9786 343.079 48.2475C343.079 48.5101 343.188 48.8302 343.406 49.208L346.085 53.7319L348.784 49.2752C349.092 48.7694 349.245 48.4108 349.245 48.1995C349.245 47.937 349.088 47.7705 348.775 47.7001V47.4311H353.202V47.7001C352.972 47.7641 352.812 47.8505 352.722 47.9594C352.633 48.0618 352.588 48.2123 352.588 48.4108V57.2088C352.588 57.4073 352.633 57.561 352.722 57.6698C352.812 57.7787 352.972 57.8651 353.202 57.9291V58.1885H349.399V57.9195C349.623 57.8619 349.78 57.7787 349.87 57.6698C349.966 57.561 350.014 57.4073 350.014 57.2088V51.1194L345.864 57.8523ZM371.964 48.4108V57.2088C371.964 57.4073 372.009 57.561 372.098 57.6698C372.188 57.7723 372.348 57.8587 372.579 57.9291V58.1885H368.775V57.9195C368.999 57.8619 369.156 57.7787 369.246 57.6698C369.342 57.561 369.39 57.4073 369.39 57.2088V48.4108C369.39 48.2123 369.345 48.0618 369.255 47.9594C369.166 47.8569 369.006 47.7705 368.775 47.7001V47.4311H372.579V47.7001C372.348 47.7641 372.188 47.8505 372.098 47.9594C372.009 48.0618 371.964 48.2123 371.964 48.4108ZM394.087 49.3809V57.2088C394.087 57.4073 394.132 57.561 394.222 57.6698C394.311 57.7723 394.471 57.8587 394.702 57.9291V58.1885H390.899V57.9195C391.123 57.8619 391.279 57.7787 391.369 57.6698C391.465 57.561 391.513 57.4073 391.513 57.2088V49.3809H388.344C388.139 49.3809 387.982 49.4289 387.873 49.525C387.771 49.6146 387.687 49.7747 387.623 50.0052H387.364V46.8164H387.633C387.691 47.0405 387.771 47.2006 387.873 47.2967C387.982 47.3863 388.139 47.4311 388.344 47.4311H397.257C397.462 47.4311 397.615 47.3863 397.718 47.2967C397.827 47.207 397.913 47.0469 397.977 46.8164H398.237V50.0052H397.977C397.913 49.7747 397.827 49.6146 397.718 49.525C397.615 49.4289 397.462 49.3809 397.257 49.3809H394.087ZM416.345 53.6166V56.2387H423.174C423.373 56.2387 423.523 56.1939 423.625 56.1042C423.734 56.0146 423.821 55.8513 423.885 55.6144H424.154V58.8032H423.885C423.827 58.5791 423.744 58.419 423.635 58.3229C423.526 58.2333 423.373 58.1885 423.174 58.1885H413.156V57.9195C413.38 57.8619 413.537 57.7787 413.627 57.6698C413.723 57.561 413.771 57.4073 413.771 57.2088V48.4108C413.771 48.2123 413.726 48.0618 413.636 47.9594C413.547 47.8569 413.387 47.7705 413.156 47.7001V47.4311H422.876C423.081 47.4311 423.235 47.3863 423.337 47.2967C423.446 47.207 423.533 47.0469 423.597 46.8164H423.856V50.0052H423.597C423.533 49.7683 423.446 49.605 423.337 49.5154C423.235 49.4257 423.081 49.3809 422.876 49.3809H416.345V51.7437H420.398C420.597 51.7437 420.747 51.6988 420.85 51.6092C420.959 51.5196 421.048 51.3595 421.119 51.129H421.378V54.2409H421.119C421.055 54.0104 420.968 53.8503 420.859 53.7607C420.757 53.6646 420.603 53.6166 420.398 53.6166H416.345ZM440.063 57.2088V48.4108C440.063 48.2123 440.018 48.0618 439.928 47.9594C439.839 47.8569 439.678 47.7705 439.448 47.7001V47.4311H445.758C447.071 47.4311 448.105 47.5944 448.861 47.921C449.924 48.382 450.689 49.144 451.156 50.2069C451.483 50.9497 451.646 51.8173 451.646 52.8098C451.646 54.6475 451.099 56.0402 450.004 56.9879C449.511 57.4105 448.928 57.7178 448.256 57.9099C447.59 58.0956 446.757 58.1885 445.758 58.1885H439.448V57.9195C439.672 57.8619 439.829 57.7787 439.919 57.6698C440.015 57.561 440.063 57.4073 440.063 57.2088ZM442.637 56.2387H445.384C446.645 56.2387 447.561 55.9506 448.131 55.3743C448.726 54.7724 449.024 53.9176 449.024 52.8098C449.024 51.702 448.726 50.8472 448.131 50.2453C447.836 49.9444 447.471 49.7267 447.036 49.5922C446.6 49.4513 446.05 49.3809 445.384 49.3809H442.637V56.2387Z" fill="#033603"/>
<path d="M37.7132 67.9517L0 20.7256V20.7254L18.9294 1.7959H40.3799L37.8938 5.41333H20.428L4.84555 20.996L37.7384 62.186L51.0621 45.7957L53.8694 48.0778L37.7132 67.9517Z" fill="#033603"/>
<path d="M57.0876 44.6098L54.7245 41.7942L72.1784 20.8595L55.3933 5.41137H44.9917V1.79395H56.8048L77.1611 20.5291L57.0876 44.6098Z" fill="#033603"/>
<path d="M24.1035 48.139L17.219 39.4355L43.7795 1.78711H56.8043L24.1035 48.139Z" fill="#033603"/>
<path d="M65.257 58.9174H51.6899L27.1694 29.6948L38.7634 27.3428L65.257 58.9174Z" fill="#033603"/>
</svg>
