<svg width="212" height="46" viewBox="0 0 212 46" fill="none" xmlns="http://www.w3.org/2000/svg">
<path d="M25.6504 45.0013L0 12.8808V12.8806L12.8747 0.00585938H27.4641L25.7732 2.46623H13.8939L3.29567 13.0647L25.6675 41.0798L34.7296 29.932L36.6389 31.4842L25.6504 45.0013Z" fill="#033603"/>
<path d="M38.8275 29.1248L37.2203 27.2098L49.0915 12.9712L37.6752 2.46428H30.6006V0.00390625H38.6352L52.4804 12.7465L38.8275 29.1248Z" fill="#033603"/>
<path d="M16.3943 31.5259L11.7119 25.6063L29.7769 0H38.6356L16.3943 31.5259Z" fill="#033603"/>
<path d="M44.3845 38.8581H35.1569L18.4795 18.9825L26.365 17.3828L44.3845 38.8581Z" fill="#033603"/>
<path d="M67.45 36.7785C67.45 37.158 67.5093 37.4173 67.6299 37.5562C67.7498 37.6959 68.0127 37.8097 68.4181 37.8988V38.4112H62V37.8988C62.405 37.7972 62.6679 37.674 62.7882 37.5282C62.9085 37.3828 62.9688 37.1329 62.9688 36.7785V19.6331C62.9688 19.2528 62.9052 18.9907 62.7781 18.8445C62.6524 18.6995 62.3925 18.5824 62 18.4937V18H68.4181V18.4937C68.0382 18.5824 67.7818 18.6995 67.6489 18.8445C67.5161 18.9907 67.45 19.2528 67.45 19.6331V26.6199L75.6523 20.051L75.7087 20.013C76.1141 19.6837 76.3166 19.399 76.3166 19.158C76.3166 19.0191 76.2373 18.8894 76.0793 18.7688C75.9209 18.6489 75.7026 18.5569 75.4243 18.4937V18H84.0066V18.4937C82.766 19.2155 81.6647 19.9681 80.7027 20.7527C80.6517 20.7907 80.6198 20.8169 80.6076 20.8288L73.867 26.2404L81.9175 35.9239C82.2597 36.2277 82.636 36.5408 83.0475 36.8639C83.4586 37.1864 83.924 37.5315 84.4428 37.8988V38.4112H76.3924V37.8988C76.6962 37.7214 76.9148 37.5634 77.0477 37.4237C77.1802 37.2848 77.247 37.1329 77.247 36.9681C77.247 36.8291 77.1263 36.6198 76.8861 36.3415C76.7845 36.2277 76.7156 36.1454 76.6771 36.0948L70.5635 28.8796L67.45 31.2911V36.7785Z" fill="#033603"/>
<path d="M101.607 23.2792C101.607 22.8997 101.547 22.6372 101.426 22.491C101.306 22.346 101.056 22.235 100.676 22.1589V21.6465H106.639L106.62 22.1589C106.252 22.235 106.009 22.3395 105.889 22.4724C105.768 22.6049 105.702 22.8745 105.689 23.2792L105.651 32.1465C105.651 34.5516 104.989 36.254 103.667 37.2536C102.344 38.2536 100.107 38.7538 96.9554 38.7538C93.8663 38.7538 91.6605 38.2508 90.3381 37.2446C89.0152 36.2382 88.3542 34.5383 88.3542 32.1465V23.2792C88.3542 22.9126 88.2874 22.6526 88.1549 22.5007C88.0213 22.3488 87.7649 22.235 87.3857 22.1589V21.6465H93.3281V22.1589C92.9614 22.235 92.7144 22.346 92.588 22.491C92.4612 22.6372 92.3981 22.8997 92.3981 23.2792V31.4054C92.3981 32.8991 92.7525 33.9591 93.4613 34.5861C94.1701 35.2126 95.3475 35.5258 96.9931 35.5258C98.6262 35.5258 99.8032 35.194 100.525 34.529C101.246 33.8647 101.607 32.7605 101.607 31.2162V23.2792Z" fill="#033603"/>
<path d="M117.785 36.7793C117.785 37.1463 117.852 37.4055 117.985 37.557C118.117 37.7089 118.374 37.8238 118.754 37.8996V38.412H112.811V37.8996C113.177 37.8238 113.425 37.7125 113.551 37.5671C113.677 37.4217 113.741 37.1588 113.741 36.7793V23.2792C113.741 22.8997 113.677 22.6372 113.551 22.491C113.425 22.346 113.177 22.235 112.811 22.1589V21.6465H118.754V22.1589C118.374 22.235 118.117 22.3488 117.985 22.5007C117.852 22.6526 117.785 22.9126 117.785 23.2792V28.6147L123.975 23.7539C124.253 23.5514 124.431 23.3901 124.507 23.2699C124.583 23.1496 124.62 23.0135 124.62 22.8616C124.62 22.7097 124.538 22.5668 124.374 22.4343C124.209 22.3014 123.994 22.2095 123.728 22.1589V21.6465H131.665V22.1589C130.5 22.8174 129.43 23.5514 128.456 24.3614C128.342 24.4505 128.273 24.5072 128.247 24.5324L123.196 28.4247L129.69 35.9624C129.994 36.3172 130.348 36.6493 130.754 36.9592C131.158 37.2698 131.658 37.5833 132.254 37.8996V38.412H124.867V37.9183C125.133 37.8676 125.336 37.789 125.475 37.6809C125.614 37.5736 125.684 37.4314 125.684 37.2536C125.684 37.1402 125.646 37.0231 125.57 36.9028C125.494 36.7825 125.336 36.5825 125.095 36.3049L120.272 30.7605L117.785 32.6589V36.7793Z" fill="#033603"/>
<path d="M143.399 26.4315L140.798 31.8043H146.076L143.399 26.4315ZM141.292 23.7539C141.342 23.653 141.383 23.5514 141.415 23.4498C141.447 23.3489 141.463 23.2541 141.463 23.1654C141.463 22.9251 141.374 22.7223 141.197 22.5582C141.019 22.3934 140.754 22.254 140.399 22.1399V21.6465H146.855V22.1589C146.488 22.2856 146.229 22.4149 146.076 22.5481C145.925 22.6806 145.849 22.8494 145.849 23.0515C145.849 23.1406 145.861 23.2318 145.887 23.3266C145.912 23.4217 145.963 23.5639 146.039 23.7539L152.19 35.9247C152.57 36.6716 152.886 37.1617 153.139 37.3962C153.393 37.6306 153.709 37.798 154.089 37.8996V38.412H147.558V37.8996C147.924 37.7851 148.184 37.6587 148.336 37.5197C148.488 37.3804 148.564 37.2098 148.564 37.0069C148.564 36.9186 148.551 36.8235 148.526 36.7218C148.5 36.6206 148.45 36.4816 148.374 36.3049L147.33 34.2155H139.583L138.614 36.3049C138.538 36.4816 138.488 36.6206 138.462 36.7218C138.437 36.8235 138.425 36.9186 138.425 37.0069C138.425 37.2224 138.497 37.3962 138.643 37.529C138.788 37.6622 139.038 37.7851 139.393 37.8996V38.412H133.525V37.8996C134.209 37.7089 134.779 37.1337 135.235 36.1717C135.285 36.0575 135.323 35.9753 135.348 35.9247L141.292 23.7539Z" fill="#033603"/>
<path d="M162.803 35.26H166.657C168.606 35.26 170.09 34.8141 171.11 33.9211C172.129 33.0291 172.638 31.7286 172.638 30.0194C172.638 28.2983 172.135 27.0039 171.129 26.1367C170.122 25.2699 168.632 24.8361 166.657 24.8361H162.803V35.26ZM166.41 21.6465C170.005 21.6465 172.654 22.3266 174.357 23.6875C176.059 25.0484 176.911 27.159 176.911 30.0194C176.911 32.8805 176.059 34.9943 174.357 36.3613C172.654 37.7283 170.005 38.412 166.41 38.412H157.828V37.8996C158.195 37.8238 158.442 37.7125 158.569 37.5671C158.695 37.4217 158.759 37.1588 158.759 36.7793V23.2792C158.759 22.8997 158.695 22.6372 158.569 22.491C158.442 22.346 158.195 22.235 157.828 22.1589V21.6465H166.41Z" fill="#033603"/>
<path d="M186.803 36.7793C186.803 37.1463 186.87 37.4055 187.002 37.557C187.135 37.7089 187.392 37.8238 187.772 37.8996V38.412H181.828V37.8996C182.195 37.8238 182.442 37.7125 182.569 37.5671C182.695 37.4217 182.759 37.1588 182.759 36.7793V23.2792C182.759 22.8997 182.695 22.6372 182.569 22.491C182.442 22.346 182.195 22.235 181.828 22.1589V21.6465H187.772V22.1589C187.392 22.235 187.135 22.3488 187.002 22.5007C186.87 22.6526 186.803 22.9126 186.803 23.2792V36.7793Z" fill="#033603"/>
<path d="M201.31 26.4315L198.709 31.8043H203.987L201.31 26.4315ZM199.203 23.7539C199.253 23.653 199.294 23.5514 199.326 23.4498C199.357 23.3489 199.373 23.2541 199.373 23.1654C199.373 22.9251 199.285 22.7223 199.107 22.5582C198.93 22.3934 198.665 22.254 198.31 22.1399V21.6465H204.766V22.1589C204.398 22.2856 204.139 22.4149 203.987 22.5481C203.835 22.6806 203.76 22.8494 203.76 23.0515C203.76 23.1406 203.772 23.2318 203.798 23.3266C203.822 23.4217 203.873 23.5639 203.95 23.7539L210.101 35.9247C210.481 36.6716 210.797 37.1617 211.051 37.3962C211.304 37.6306 211.62 37.798 212 37.8996V38.412H205.468V37.8996C205.835 37.7851 206.095 37.6587 206.247 37.5197C206.398 37.3804 206.475 37.2098 206.475 37.0069C206.475 36.9186 206.462 36.8235 206.437 36.7218C206.411 36.6206 206.361 36.4816 206.285 36.3049L205.24 34.2155H197.494L196.525 36.3049C196.449 36.4816 196.399 36.6206 196.373 36.7218C196.348 36.8235 196.336 36.9186 196.336 37.0069C196.336 37.2224 196.408 37.3962 196.554 37.529C196.699 37.6622 196.949 37.7851 197.304 37.8996V38.412H191.437V37.8996C192.12 37.7089 192.69 37.1337 193.146 36.1717C193.196 36.0575 193.234 35.9753 193.259 35.9247L199.203 23.7539Z" fill="#033603"/>
</svg>
