<svg width="88" height="44" viewBox="0 0 88 44" fill="none" xmlns="http://www.w3.org/2000/svg">
<rect width="86.1276" height="42.3339" rx="9.45178" fill="#003473"/>
<rect x="1.07031" y="1.11914" width="86.1276" height="42.3339" rx="9.45178" fill="#003473"/>
<path d="M44.0064 33.3491C47.1943 30.4715 49.206 26.2934 49.206 21.6529C49.206 17.0113 47.1937 12.8355 44.0064 9.92612C41.2209 7.38947 37.5098 5.8418 33.425 5.8418C24.7008 5.8418 17.6133 12.928 17.6133 21.6523C17.6133 30.3788 24.7008 37.4328 33.425 37.4328C37.51 37.4334 41.2209 35.887 44.0064 33.3491Z" fill="#009DDD"/>
<path d="M44 33.3487C47.1878 30.4711 49.1995 26.2931 49.1995 21.6526C49.1995 17.0109 47.1872 12.8352 44 9.92578V33.3487Z" fill="#009DDD"/>
<path d="M54.6199 5.8418C50.5345 5.8418 46.8211 7.38947 44.0055 9.92613C43.4493 10.4517 42.9239 11.009 42.4272 11.5982H45.6138C46.0478 12.1225 46.4502 12.7117 46.8211 13.2679H41.2198C40.8806 13.8252 40.571 14.3831 40.2915 14.9388H47.7182C47.967 15.495 48.213 16.054 48.3987 16.6102H39.6445C39.4581 17.167 39.303 17.7254 39.1797 18.3118H48.8635C49.0795 19.364 49.2051 20.5094 49.2051 21.6529C49.2051 23.3857 48.9249 25.0884 48.3989 26.6661H39.6446C39.8287 27.2223 40.0457 27.7802 40.2923 28.337H47.7189C47.4412 28.8943 47.1617 29.4817 46.8212 30.0079H41.22C41.5932 30.596 41.9945 31.1527 42.4272 31.6789H45.6138C45.1196 32.267 44.5928 32.8242 44.0055 33.3498C46.8212 35.8877 50.5345 37.4342 54.6199 37.4342C63.3452 37.4342 70.4004 30.3802 70.4004 21.6537C70.3996 12.9282 63.3452 5.8418 54.6199 5.8418Z" fill="#ED1C2E"/>
<path d="M64.957 25.0592C64.957 24.7802 65.2059 24.5645 65.4837 24.5645C65.7627 24.5645 65.9785 24.7804 65.9785 25.0592C65.9785 25.3387 65.7626 25.5859 65.4837 25.5859C65.2059 25.5859 64.957 25.3387 64.957 25.0592ZM65.4837 25.462C65.6996 25.462 65.8546 25.2763 65.8546 25.0592C65.8546 24.8429 65.6995 24.6877 65.4837 24.6877C65.2667 24.6877 65.0826 24.8429 65.0826 25.0592C65.0826 25.2763 65.2667 25.462 65.4837 25.462ZM65.4217 25.2763H65.2984V24.8427H65.4835C65.5443 24.8427 65.5762 24.8427 65.6079 24.874C65.6385 24.9046 65.6687 24.9347 65.6687 24.9666C65.6687 25.0291 65.6381 25.091 65.576 25.091L65.6687 25.2761H65.5443L65.4835 25.121H65.4217V25.2763ZM65.4217 25.0291H65.4835C65.4835 25.0291 65.5142 25.0291 65.5443 25.0291C65.5443 25.0291 65.5443 24.9972 65.5443 24.9666V24.9347C65.5137 24.9347 65.4835 24.9347 65.4529 24.9347H65.4211V25.0291H65.4217Z" fill="white"/>
<path d="M31.4458 25.5819H29.4664L30.6418 19.4245L27.9506 25.5819H26.1543L25.8457 19.4551L24.6703 25.5819H22.875L24.3919 17.5684H27.4848L27.6393 22.5179L29.808 17.5684H32.9916L31.4458 25.5819Z" fill="white"/>
<path d="M53.4174 25.4893C52.8601 25.6427 52.4578 25.7046 51.993 25.7046C51.0038 25.7046 50.4453 25.2098 50.4453 24.2825C50.4453 24.0961 50.4772 23.9097 50.5072 23.6933L50.6305 23.0434L50.7254 22.5492L51.6219 17.5684H53.5707L53.2935 19.0523H54.3133L54.0355 20.6317H53.0146L52.5198 23.3537C52.4879 23.4776 52.4579 23.5707 52.4579 23.6321C52.4579 23.973 52.6749 24.1263 53.1397 24.1263C53.3557 24.1263 53.5397 24.0956 53.6653 24.0648L53.4174 25.4893Z" fill="white"/>
<path d="M59.1456 19.1187C58.9905 19.0555 58.9605 19.0555 58.9297 19.0555C58.836 19.0237 58.7746 19.0237 58.7746 18.9941C58.7115 18.9941 58.6502 18.9941 58.5586 18.9941C57.9075 18.9941 57.4439 19.2726 56.8554 20.0451L57.0405 19.0555H55.2452L54.0391 25.5845H56.0195C56.7309 21.5916 57.0097 20.8809 57.9683 20.8809C58.0301 20.8809 58.1245 20.9121 58.216 20.9121L58.433 20.9735L59.1456 19.1187Z" fill="white"/>
<path d="M45.6135 21.1244C45.6135 21.9294 46.0783 22.5169 47.1304 22.9203C47.9355 23.2595 48.0594 23.3532 48.0594 23.6629C48.0594 24.0646 47.6873 24.251 46.914 24.251C46.326 24.251 45.768 24.1578 45.1187 23.9732L44.8711 25.4894H44.9648L45.304 25.5815C45.4273 25.5815 45.6124 25.6127 45.8296 25.6127C46.2944 25.6735 46.6659 25.6735 46.9443 25.6735C49.0174 25.6735 50.0077 24.9929 50.0077 23.5084C50.0077 22.6106 49.6054 22.0852 48.5845 21.6829C47.7482 21.3732 47.6562 21.2806 47.6562 20.9711C47.6562 20.6319 47.9964 20.4455 48.6464 20.4455C49.0173 20.4455 49.5735 20.4774 50.0685 20.5375L50.3475 19.053C49.8219 18.9616 49.0487 18.9297 48.6147 18.9297C46.3878 18.9286 45.6135 19.9182 45.6135 21.1244Z" fill="white"/>
<path d="M37.82 25.5819H36.2105L36.2423 24.9001C35.7475 25.4268 35.0668 25.674 34.1692 25.674C33.1182 25.674 32.375 24.9626 32.375 23.9105C32.375 22.3316 33.6419 21.4039 35.8406 21.4039C36.0553 21.4039 36.3348 21.4039 36.6445 21.4357C36.7063 21.2193 36.7063 21.1254 36.7063 21.0334C36.7063 20.6005 36.3648 20.4453 35.4371 20.4453C34.8798 20.4453 34.2628 20.5072 33.8288 20.6005L33.551 20.6936L33.3646 20.7238L33.6424 19.27C34.6339 19.0211 35.2519 18.9297 35.9956 18.9297C37.696 18.9297 38.5631 19.5785 38.5631 20.8158C38.5631 21.1567 38.5324 21.4043 38.4092 22.1163L38.0068 24.4372L37.945 24.8389L37.8819 25.1804L37.8512 25.3957L37.82 25.5819ZM36.3968 22.6725C36.1786 22.6419 36.0872 22.6419 35.9639 22.6419C34.8492 22.6419 34.293 22.9822 34.293 23.6327C34.293 24.0344 34.5395 24.3133 34.9724 24.3133C35.7788 24.3133 36.3656 23.6327 36.3968 22.6725Z" fill="white"/>
<path d="M44.2859 25.4261C43.6065 25.6118 42.9565 25.7039 42.2747 25.7039C40.0807 25.7039 38.9336 24.6824 38.9336 22.7643C38.9336 20.536 40.3886 18.8965 42.3691 18.8965C43.9774 18.8965 45.0007 19.8248 45.0007 21.248C45.0007 21.7422 44.9376 22.2087 44.7837 22.8575H40.8522C40.8522 22.9808 40.8522 23.0114 40.8522 23.0745C40.8522 23.8171 41.4095 24.2188 42.5544 24.2188C43.2662 24.2188 43.9157 24.0956 44.5956 23.8178L44.2859 25.4261ZM43.2349 21.5594C43.2349 21.435 43.2349 21.3105 43.2349 21.2185C43.2349 20.6929 42.8934 20.3821 42.3066 20.3821C41.6873 20.3821 41.2543 20.8151 41.0675 21.5594H43.2349Z" fill="white"/>
<path d="M65.2694 22.6168C64.9597 24.7814 63.4439 25.741 61.4316 25.741C59.2363 25.741 58.3398 24.4115 58.3398 22.7407C58.3398 20.4506 59.8544 18.8711 62.2059 18.8711C64.2484 18.8711 65.3313 20.171 65.3313 21.8111C65.3319 22.2158 65.3319 22.2459 65.2694 22.6168ZM63.228 21.7805C63.228 21.0999 62.949 20.483 62.1464 20.483C61.1538 20.483 60.5358 21.6572 60.5358 22.71C60.5358 23.5769 60.9698 24.1644 61.6505 24.1644C62.0834 24.1644 63.0118 23.5769 63.1663 22.5867C63.228 22.338 63.228 22.0606 63.228 21.7805Z" fill="white"/>
</svg>
