<svg width="87" height="43" viewBox="0 0 87 43" fill="none" xmlns="http://www.w3.org/2000/svg">
<rect width="86.1276" height="42.3339" rx="9.45178" fill="white"/>
<rect x="0.5" y="0.5" width="85.1276" height="41.3339" rx="8.95178" stroke="black" stroke-opacity="0.2"/>
<path d="M69.282 21.443C69.282 29.6699 62.3131 36.3938 53.602 36.3938C44.9738 36.3938 37.9219 29.6699 37.9219 21.443C37.9219 13.2161 44.8908 6.49219 53.519 6.49219C62.3131 6.49219 69.282 13.2161 69.282 21.443Z" fill="#FFB600"/>
<path d="M53.602 6.49219C62.2301 6.49219 69.282 13.2161 69.282 21.443C69.282 29.6699 62.3131 36.3938 53.602 36.3938C44.9738 36.3938 37.9219 29.6699 37.9219 21.443" fill="#F7981D"/>
<path d="M53.6094 6.49219C62.2376 6.49219 69.2895 13.2161 69.2895 21.443C69.2895 29.6699 62.3205 36.3938 53.6094 36.3938" fill="#FF8500"/>
<path d="M32.5337 6.49219C23.9885 6.57129 17.0195 13.2161 17.0195 21.443C17.0195 29.6699 23.9885 36.3938 32.6996 36.3938C36.7648 36.3938 40.4152 34.8908 43.236 32.5176C43.8167 32.043 44.3145 31.4893 44.8123 30.9355H41.5767C41.1619 30.4609 40.7471 29.9072 40.4152 29.4325H45.9738C46.3056 28.9579 46.6375 28.4042 46.8864 27.8504H39.5026C39.2537 27.3758 39.0048 26.8221 38.8389 26.2684H47.4671C47.9649 24.7654 48.2967 23.1833 48.2967 21.5221C48.2967 20.4146 48.1308 19.3862 47.9649 18.3579H38.3411C38.4241 17.8042 38.59 17.3295 38.7559 16.7758H47.3841C47.2182 16.2221 46.9693 15.6683 46.7204 15.1937H39.4197C39.6685 14.64 40.0004 14.1653 40.3322 13.6116H45.8908C45.5589 13.0579 45.1441 12.5041 44.6463 12.0295H41.5767C42.0745 11.4758 42.5723 11.0012 43.153 10.5265C40.4152 8.07428 36.6819 6.6504 32.6167 6.6504C32.6167 6.49219 32.6167 6.49219 32.5337 6.49219Z" fill="#FF5050"/>
<path d="M17.0195 21.4469C17.0195 29.6737 23.9885 36.3976 32.6996 36.3976C36.7648 36.3976 40.4152 34.8946 43.236 32.5215C43.8167 32.0469 44.3145 31.4932 44.8123 30.9394H41.5767C41.1619 30.4648 40.7471 29.9111 40.4152 29.4364H45.9738C46.3056 28.9618 46.6375 28.4081 46.8864 27.8543H39.5026C39.2537 27.3797 39.0048 26.826 38.8389 26.2722H47.4671C47.9649 24.7693 48.2967 23.1872 48.2967 21.526C48.2967 20.4185 48.1308 19.3901 47.9649 18.3618H38.3411C38.4241 17.808 38.59 17.3334 38.7559 16.7797H47.3841C47.2182 16.226 46.9693 15.6722 46.7204 15.1976H39.4197C39.6685 14.6439 40.0004 14.1692 40.3322 13.6155H45.8908C45.5589 13.0618 45.1441 12.508 44.6463 12.0334H41.5767C42.0745 11.4797 42.5723 11.0051 43.153 10.5304C40.4152 8.07818 36.6819 6.6543 32.6167 6.6543H32.5337" fill="#E52836"/>
<path d="M32.7011 36.3976C36.7663 36.3976 40.4167 34.8946 43.2374 32.5215C43.8182 32.0469 44.316 31.4932 44.8137 30.9394H41.5782C41.1634 30.4648 40.7485 29.9111 40.4167 29.4364H45.9752C46.3071 28.9618 46.6389 28.4081 46.8878 27.8543H39.5041C39.2552 27.3797 39.0063 26.826 38.8404 26.2722H47.4686C47.9664 24.7693 48.2982 23.1872 48.2982 21.526C48.2982 20.4185 48.1323 19.3901 47.9664 18.3618H38.3426C38.4256 17.808 38.5915 17.3334 38.7574 16.7797H47.3856C47.2197 16.226 46.9708 15.6722 46.7219 15.1976H39.4211C39.67 14.6439 40.0019 14.1692 40.3337 13.6155H45.8923C45.5604 13.0618 45.1456 12.508 44.6478 12.0334H41.5782C42.076 11.4797 42.5737 11.0051 43.1545 10.5304C40.4167 8.07818 36.6833 6.6543 32.6181 6.6543H32.5352" fill="#CB2026"/>
<path d="M38.2692 25.2385L38.5181 23.8938C38.4351 23.8938 38.2692 23.9729 38.1033 23.9729C37.5225 23.9729 37.4396 23.6565 37.5225 23.4982L38.0203 20.7296H38.9329L39.1818 19.2266H38.3522L38.5181 18.2773H36.8588C36.8588 18.2773 35.8633 23.4983 35.8633 24.1311C35.8633 25.0803 36.444 25.4759 37.1907 25.4759C37.6885 25.4759 38.1033 25.3177 38.2692 25.2385Z" fill="white"/>
<path d="M38.8398 22.7103C38.8398 24.9253 40.4161 25.479 41.7436 25.479C42.988 25.479 43.4858 25.2417 43.4858 25.2417L43.8176 23.7387C43.8176 23.7387 42.9051 24.1342 42.0754 24.1342C40.2502 24.1342 40.5821 22.8686 40.5821 22.8686H43.9836C43.9836 22.8686 44.2325 21.8402 44.2325 21.4447C44.2325 20.4163 43.6517 19.1506 41.8265 19.1506C40.0843 18.9924 38.8398 20.7327 38.8398 22.7103ZM41.7436 20.4163C42.6562 20.4163 42.4902 21.4447 42.4902 21.5238H40.665C40.665 21.4447 40.831 20.4163 41.7436 20.4163Z" fill="white"/>
<path d="M52.2817 25.2395L52.6136 23.4992C52.6136 23.4992 51.784 23.8948 51.2032 23.8948C50.0417 23.8948 49.5439 23.0246 49.5439 22.0754C49.5439 20.1769 50.5395 19.1485 51.701 19.1485C52.5306 19.1485 53.1943 19.6231 53.1943 19.6231L53.4432 17.9619C53.4432 17.9619 52.4477 17.5664 51.5351 17.5664C49.6269 17.5664 47.7188 19.1485 47.7188 22.1545C47.7188 24.1321 48.7143 25.4769 50.7054 25.4769C51.3691 25.4769 52.2817 25.2395 52.2817 25.2395Z" fill="white"/>
<path d="M29.137 18.9922C27.9755 18.9922 27.1459 19.3086 27.1459 19.3086L26.897 20.6534C26.897 20.6534 27.6436 20.337 28.7222 20.337C29.3029 20.337 29.8007 20.4161 29.8007 20.8907C29.8007 21.2071 29.7177 21.2862 29.7177 21.2862C29.7177 21.2862 29.22 21.2862 28.9711 21.2862C27.5607 21.2862 25.9844 21.8399 25.9844 23.6593C25.9844 25.0832 26.9799 25.3996 27.5607 25.3996C28.7222 25.3996 29.22 24.6877 29.3029 24.6877L29.22 25.3205H30.7133L31.377 20.9698C31.377 19.0713 29.7177 18.9922 29.137 18.9922ZM29.4688 22.5519C29.4688 22.7892 29.3029 24.0549 28.3074 24.0549C27.8096 24.0549 27.6436 23.6593 27.6436 23.422C27.6436 23.0265 27.8925 22.4728 29.137 22.4728C29.3859 22.5519 29.4688 22.5519 29.4688 22.5519Z" fill="white"/>
<path d="M32.9472 25.3948C33.362 25.3948 35.4361 25.4739 35.4361 23.3381C35.4361 21.3604 33.445 21.756 33.445 20.9649C33.445 20.5694 33.7769 20.4112 34.3576 20.4112C34.6065 20.4112 35.5191 20.4903 35.5191 20.4903L35.768 19.0664C35.768 19.0664 35.1872 18.9082 34.1917 18.9082C32.9472 18.9082 31.7028 19.3828 31.7028 20.9649C31.7028 22.7843 33.7769 22.6261 33.7769 23.3381C33.7769 23.8127 33.1961 23.8918 32.7813 23.8918C32.0346 23.8918 31.288 23.6545 31.288 23.6545L31.0391 25.0784C31.122 25.2366 31.5368 25.3948 32.9472 25.3948Z" fill="white"/>
<path d="M66.0531 17.7246L65.7213 19.8604C65.7213 19.8604 65.0576 19.0694 64.145 19.0694C62.6516 19.0694 61.3242 20.8097 61.3242 22.8664C61.3242 24.1321 61.9879 25.4769 63.3983 25.4769C64.3939 25.4769 64.9746 24.844 64.9746 24.844L64.8916 25.3978H66.5509L67.7954 17.8037L66.0531 17.7246ZM65.3065 21.9172C65.3065 22.7873 64.8916 23.8948 63.979 23.8948C63.3983 23.8948 63.0664 23.4201 63.0664 22.6291C63.0664 21.3634 63.6472 20.5724 64.3939 20.5724C64.9746 20.5724 65.3065 20.9679 65.3065 21.9172Z" fill="white"/>
<path d="M20.0919 25.3187L21.0875 19.6231L21.2534 25.3187H22.4149L24.572 19.6231L23.6594 25.3187H25.4016L26.729 17.7246H23.9912L22.3319 22.3918L22.249 17.7246H19.843L18.5156 25.3187H20.0919Z" fill="white"/>
<path d="M45.8057 25.3205C46.3034 22.7101 46.3864 20.5743 47.5479 20.9698C47.7138 19.9414 47.9627 19.5459 48.1286 19.1504C48.1286 19.1504 48.0457 19.1504 47.7968 19.1504C47.0501 19.1504 46.4694 20.0996 46.4694 20.0996L46.6353 19.2295H45.059L43.9805 25.3996H45.8057V25.3205Z" fill="white"/>
<path d="M56.0979 18.9922C54.9364 18.9922 54.1068 19.3086 54.1068 19.3086L53.8579 20.6534C53.8579 20.6534 54.6046 20.337 55.6831 20.337C56.2639 20.337 56.7616 20.4161 56.7616 20.8907C56.7616 21.2071 56.6787 21.2862 56.6787 21.2862C56.6787 21.2862 56.1809 21.2862 55.932 21.2862C54.5216 21.2862 52.9453 21.8399 52.9453 23.6593C52.9453 25.0832 53.9409 25.3996 54.5216 25.3996C55.6831 25.3996 56.1809 24.6877 56.2639 24.6877L56.1809 25.3205H57.6742L58.3379 20.9698C58.4209 19.0713 56.6787 18.9922 56.0979 18.9922ZM56.5127 22.5519C56.5127 22.7892 56.3468 24.0549 55.3513 24.0549C54.8535 24.0549 54.6875 23.6593 54.6875 23.422C54.6875 23.0265 54.9364 22.4728 56.1809 22.4728C56.4298 22.5519 56.4298 22.5519 56.5127 22.5519Z" fill="white"/>
<path d="M59.7432 25.3205C60.241 22.7101 60.3239 20.5743 61.4854 20.9698C61.6513 19.9414 61.9002 19.5459 62.0662 19.1504C62.0662 19.1504 61.9832 19.1504 61.7343 19.1504C60.9876 19.1504 60.4069 20.0996 60.4069 20.0996L60.5728 19.2295H58.9965L57.918 25.3996H59.7432V25.3205Z" fill="white"/>
<path d="M35.6953 24.1311C35.6953 25.0803 36.2761 25.4759 37.0227 25.4759C37.6035 25.4759 38.1012 25.3177 38.2672 25.2385L38.5161 23.8938C38.4331 23.8938 38.2672 23.9729 38.1012 23.9729C37.5205 23.9729 37.4375 23.6565 37.5205 23.4982L38.0183 20.7296H38.9309L39.1798 19.2266H38.3501L38.5161 18.2773" fill="#DCE5E5"/>
<path d="M39.6719 22.7103C39.6719 24.9253 40.4185 25.479 41.746 25.479C42.9904 25.479 43.4882 25.2417 43.4882 25.2417L43.82 23.7387C43.82 23.7387 42.9074 24.1342 42.0778 24.1342C40.2526 24.1342 40.5845 22.8686 40.5845 22.8686H43.986C43.986 22.8686 44.2349 21.8402 44.2349 21.4447C44.2349 20.4163 43.6541 19.1506 41.8289 19.1506C40.0867 18.9924 39.6719 20.7327 39.6719 22.7103ZM41.746 20.4163C42.6586 20.4163 42.8245 21.4447 42.8245 21.5238H40.6674C40.6674 21.4447 40.8334 20.4163 41.746 20.4163Z" fill="#DCE5E5"/>
<path d="M52.2841 25.2395L52.616 23.4992C52.616 23.4992 51.7864 23.8948 51.2056 23.8948C50.0441 23.8948 49.5463 23.0246 49.5463 22.0754C49.5463 20.1769 50.5419 19.1485 51.7034 19.1485C52.533 19.1485 53.1967 19.6231 53.1967 19.6231L53.4456 17.9619C53.4456 17.9619 52.4501 17.5664 51.5375 17.5664C49.6293 17.5664 48.5508 19.1485 48.5508 22.1545C48.5508 24.1321 48.7167 25.4769 50.7078 25.4769C51.3715 25.4769 52.2841 25.2395 52.2841 25.2395Z" fill="#DCE5E5"/>
<path d="M26.897 20.7325C26.897 20.7325 27.6436 20.4161 28.7222 20.4161C29.3029 20.4161 29.8007 20.4952 29.8007 20.9698C29.8007 21.2862 29.7177 21.3653 29.7177 21.3653C29.7177 21.3653 29.22 21.3653 28.9711 21.3653C27.5607 21.3653 25.9844 21.919 25.9844 23.7384C25.9844 25.1623 26.9799 25.4787 27.5607 25.4787C28.7222 25.4787 29.22 24.7668 29.3029 24.7668L29.22 25.3996H30.7133L31.377 21.0489C31.377 19.2295 29.7177 19.1504 29.054 19.1504L26.897 20.7325ZM30.2985 22.5519C30.2985 22.7892 29.3029 24.0549 28.3074 24.0549C27.8096 24.0549 27.6436 23.6593 27.6436 23.422C27.6436 23.0265 27.8925 22.4728 29.137 22.4728C29.3859 22.5519 30.2985 22.5519 30.2985 22.5519Z" fill="#DCE5E5"/>
<path d="M31.125 25.2366C31.125 25.2366 31.6228 25.3948 33.0332 25.3948C33.448 25.3948 35.5221 25.4739 35.5221 23.3381C35.5221 21.3604 33.5309 21.756 33.5309 20.9649C33.5309 20.5694 33.8628 20.4112 34.4435 20.4112C34.6924 20.4112 35.605 20.4903 35.605 20.4903L35.8539 19.0664C35.8539 19.0664 35.2732 18.9082 34.2776 18.9082C33.0332 18.9082 32.6183 19.3828 32.6183 20.9649C32.6183 22.7843 33.8628 22.6261 33.8628 23.3381C33.8628 23.8127 33.282 23.8918 32.8672 23.8918" fill="#DCE5E5"/>
<path d="M65.7219 19.8575C65.7219 19.8575 65.0582 19.0665 64.1456 19.0665C62.6522 19.0665 62.1545 20.8068 62.1545 22.8635C62.1545 24.1291 61.9885 25.4739 63.3989 25.4739C64.3945 25.4739 64.9752 24.8411 64.9752 24.8411L64.8922 25.3948H66.5515L67.7959 17.8008L65.7219 19.8575ZM65.6389 21.9142C65.6389 22.7844 64.8922 23.8918 63.9796 23.8918C63.3989 23.8918 63.067 23.4172 63.067 22.6262C63.067 21.3605 63.6478 20.5694 64.3945 20.5694C64.9752 20.5694 65.6389 20.965 65.6389 21.9142Z" fill="#DCE5E5"/>
<path d="M20.0919 25.3187L21.0875 19.6231L21.2534 25.3187H22.4149L24.572 19.6231L23.6594 25.3187H25.4016L26.729 17.7246H24.6549L22.3319 22.3918L22.249 17.7246H21.3364L18.5156 25.3187H20.0919Z" fill="#DCE5E5"/>
<path d="M44.0664 25.3206H45.8086C46.3064 22.7101 46.3894 20.5743 47.5509 20.9698C47.7168 19.9414 47.9657 19.5459 48.1316 19.1504C48.1316 19.1504 48.0487 19.1504 47.7998 19.1504C47.0531 19.1504 46.4723 20.0996 46.4723 20.0996L46.6383 19.2295" fill="#DCE5E5"/>
<path d="M53.8579 20.7325C53.8579 20.7325 54.6046 20.4161 55.6831 20.4161C56.2638 20.4161 56.7616 20.4952 56.7616 20.9698C56.7616 21.2862 56.6787 21.3653 56.6787 21.3653C56.6787 21.3653 56.1809 21.3653 55.932 21.3653C54.5216 21.3653 52.9453 21.919 52.9453 23.7384C52.9453 25.1623 53.9409 25.4787 54.5216 25.4787C55.6831 25.4787 56.1809 24.7668 56.2638 24.7668L56.1809 25.3996H57.6742L58.3379 21.0489C58.3379 19.2295 56.6787 19.1504 56.015 19.1504L53.8579 20.7325ZM57.2594 22.5519C57.2594 22.7892 56.2638 24.0549 55.2683 24.0549C54.7705 24.0549 54.6046 23.6593 54.6046 23.422C54.6046 23.0265 54.8535 22.4728 56.0979 22.4728C56.4298 22.5519 57.2594 22.5519 57.2594 22.5519Z" fill="#DCE5E5"/>
<path d="M58.0039 25.3206H59.7461C60.2439 22.7101 60.3269 20.5743 61.4884 20.9698C61.6543 19.9414 61.9032 19.5459 62.0691 19.1504C62.0691 19.1504 61.9862 19.1504 61.7373 19.1504C60.9906 19.1504 60.4098 20.0996 60.4098 20.0996L60.5758 19.2295" fill="#DCE5E5"/>
</svg>
