<svg width="89" height="45" viewBox="0 0 89 45" fill="none" xmlns="http://www.w3.org/2000/svg">
<rect x="1" y="1.11719" width="86.1276" height="42.3339" rx="9.45178" fill="white"/>
<rect x="0.5" y="0.617188" width="87.1276" height="43.3339" rx="9.95178" stroke="black" stroke-opacity="0.2"/>
<path d="M62.8855 17.6562H59.0598C58.8347 17.6562 58.6097 17.8813 58.4972 18.1063L56.9219 28.0082C56.9219 28.2332 57.0344 28.3457 57.2594 28.3457H59.2848C59.5099 28.3457 59.6224 28.2332 59.6224 28.0082L60.0725 25.1952C60.0725 24.9701 60.2975 24.7451 60.6351 24.7451H61.8728C64.4608 24.7451 65.9236 23.5073 66.2611 21.0319C66.4862 20.0192 66.2611 19.119 65.811 18.5564C65.1359 17.9938 64.1232 17.6562 62.8855 17.6562ZM63.3356 21.3694C63.1105 22.7197 62.0978 22.7197 61.0852 22.7197H60.41L60.8601 20.1317C60.8601 20.0192 60.9726 19.9067 61.1977 19.9067H61.4227C62.0978 19.9067 62.773 19.9067 63.1105 20.3568C63.3356 20.4693 63.3356 20.8068 63.3356 21.3694Z" fill="#139AD6"/>
<path d="M35.3152 17.6562H31.4895C31.2644 17.6562 31.0394 17.8813 30.9269 18.1063L29.3516 28.0082C29.3516 28.2332 29.4641 28.3457 29.6891 28.3457H31.4895C31.7145 28.3457 31.9395 28.1207 32.0521 27.8957L32.5022 25.1952C32.5022 24.9701 32.7272 24.7451 33.0648 24.7451H34.3025C36.8905 24.7451 38.3533 23.5073 38.6908 21.0319C38.9159 20.0192 38.6908 19.119 38.2407 18.5564C37.5656 17.9938 36.6654 17.6562 35.3152 17.6562ZM35.7653 21.3694C35.5402 22.7197 34.5275 22.7197 33.5148 22.7197H32.9522L33.4023 20.1317C33.4023 20.0192 33.5148 19.9067 33.7399 19.9067H33.9649C34.6401 19.9067 35.3152 19.9067 35.6528 20.3568C35.7653 20.4693 35.8778 20.8068 35.7653 21.3694Z" fill="#263B80"/>
<path d="M46.9026 21.2582H45.1022C44.9897 21.2582 44.7647 21.3708 44.7647 21.4833L44.6521 22.0459L44.5396 21.8209C44.0895 21.2582 43.3019 21.0332 42.4017 21.0332C40.3764 21.0332 38.576 22.6085 38.2385 24.7464C38.0134 25.8716 38.351 26.8843 38.9136 27.5594C39.4762 28.2345 40.2638 28.4596 41.2765 28.4596C42.9643 28.4596 43.8645 27.4469 43.8645 27.4469L43.752 28.0095C43.752 28.2345 43.8645 28.3471 44.0895 28.3471H45.7774C46.0024 28.3471 46.2274 28.122 46.34 27.897L47.3526 21.5958C47.2401 21.4833 47.0151 21.2582 46.9026 21.2582ZM44.3146 24.8589C44.0895 25.8716 43.3019 26.6593 42.1767 26.6593C41.6141 26.6593 41.164 26.4342 40.939 26.2092C40.7139 25.8716 40.6014 25.4215 40.6014 24.8589C40.7139 23.8462 41.6141 23.0586 42.6268 23.0586C43.1894 23.0586 43.5269 23.2836 43.8645 23.5087C44.2021 23.8462 44.3146 24.4088 44.3146 24.8589Z" fill="#263B80"/>
<path d="M74.3635 21.2602H72.5632C72.4507 21.2602 72.2256 21.3727 72.2256 21.4852L72.1131 22.0478L72.0006 21.8228C71.5505 21.2602 70.7628 21.0352 69.8627 21.0352C67.8373 21.0352 66.037 22.6105 65.6994 24.7483C65.4744 25.8736 65.8119 26.8862 66.3745 27.5614C66.9371 28.2365 67.7248 28.4615 68.7375 28.4615C70.4253 28.4615 71.3254 27.4488 71.3254 27.4488L71.2129 28.0115C71.2129 28.2365 71.3254 28.349 71.5505 28.349H73.2383C73.4633 28.349 73.6884 28.124 73.8009 27.8989L74.8136 21.5978C74.7011 21.4852 74.5886 21.2602 74.3635 21.2602ZM71.7755 24.8609C71.5505 25.8736 70.7628 26.6612 69.6376 26.6612C69.075 26.6612 68.6249 26.4362 68.3999 26.2111C68.1749 25.8736 68.0623 25.4235 68.0623 24.8609C68.1749 23.8482 69.075 23.0605 70.0877 23.0605C70.6503 23.0605 70.9879 23.2856 71.3254 23.5106C71.7755 23.8482 71.888 24.4108 71.7755 24.8609Z" fill="#139AD6"/>
<path d="M56.6993 21.2578H54.7864C54.5614 21.2578 54.4489 21.3703 54.3364 21.4829L51.8609 25.3086L50.7357 21.7079C50.6232 21.4829 50.5106 21.3703 50.1731 21.3703H48.3727C48.1477 21.3703 48.0352 21.5954 48.0352 21.8204L50.0605 27.7841L48.1477 30.4846C48.0352 30.7096 48.1477 31.0472 48.3727 31.0472H50.1731C50.3981 31.0472 50.5106 30.9347 50.6231 30.8221L56.8118 21.9329C57.1494 21.5954 56.9243 21.2578 56.6993 21.2578Z" fill="#263B80"/>
<path d="M76.4972 17.9977L74.9219 28.1246C74.9219 28.3497 75.0344 28.4622 75.2594 28.4622H76.8347C77.0598 28.4622 77.2848 28.2371 77.3973 28.0121L78.9726 18.1102C78.9726 17.8852 78.8601 17.7727 78.6351 17.7727H76.8347C76.7222 17.6601 76.6097 17.7727 76.4972 17.9977Z" fill="#139AD6"/>
<path d="M21.0259 14.2819C20.2382 13.3817 18.7754 12.9316 16.7501 12.9316H11.124C10.7864 12.9316 10.4489 13.2692 10.3364 13.6068L8.08594 28.347C8.08594 28.6846 8.31098 28.9096 8.53602 28.9096H12.0242L12.9243 23.3961V23.6212C13.0369 23.2836 13.3744 22.946 13.712 22.946H15.3998C18.6629 22.946 21.1384 21.5958 21.926 17.8826C21.926 17.7701 21.926 17.6575 21.926 17.545C21.8135 17.545 21.8135 17.545 21.926 17.545C22.0386 16.0822 21.8135 15.1821 21.0259 14.2819Z" fill="#263B80"/>
<path d="M21.8105 17.541C21.8105 17.6535 21.8105 17.7661 21.8105 17.8786C21.0229 21.7043 18.5474 22.942 15.2843 22.942H13.5965C13.2589 22.942 12.9213 23.2796 12.8088 23.6172L11.6836 30.481C11.6836 30.706 11.7961 30.931 12.1337 30.931H15.0592C15.3968 30.931 15.7344 30.706 15.7344 30.3684V30.2559L16.297 26.7678V26.5427C16.297 26.2051 16.6345 25.9801 16.9721 25.9801H17.4222C20.2352 25.9801 22.4856 24.8549 23.0482 21.4793C23.2733 20.129 23.1608 18.8913 22.4856 18.1036C22.3731 17.8786 22.1481 17.6535 21.8105 17.541Z" fill="#139AD6"/>
<path d="M21.0234 17.2048C20.9109 17.2048 20.7984 17.0922 20.6858 17.0922C20.5733 17.0922 20.4608 17.0922 20.3483 16.9797C19.8982 16.8672 19.4481 16.8672 18.8855 16.8672H14.4972C14.3846 16.8672 14.2721 16.8672 14.1596 16.9797C13.9346 17.0922 13.822 17.3173 13.822 17.5423L12.9219 23.3934V23.6185C13.0344 23.2809 13.372 22.9433 13.7095 22.9433H15.3973C18.6605 22.9433 21.1359 21.5931 21.9236 17.8799C21.9236 17.7674 21.9236 17.6548 22.0361 17.5423C21.811 17.4298 21.6985 17.3173 21.4735 17.3173C21.1359 17.2048 21.1359 17.2048 21.0234 17.2048Z" fill="#232C65"/>
</svg>
