<svg width="48" height="45" viewBox="0 0 48 45" fill="none" xmlns="http://www.w3.org/2000/svg">
<rect width="48" height="45" rx="4" fill="#033603"/>
<g clip-path="url(#clip0)">
<path d="M31.7727 21.3636H25.6363V15.2273C25.6363 14.5498 25.0865 14 24.409 14H23.5909C22.9135 14 22.3636 14.5498 22.3636 15.2273V21.3636H16.2273C15.5498 21.3636 15 21.9135 15 22.5909V23.409C15 24.0865 15.5498 24.6363 16.2273 24.6363H22.3636V30.7727C22.3636 31.4501 22.9135 32 23.5909 32H24.409C25.0865 32 25.6363 31.4501 25.6363 30.7727V24.6363H31.7727C32.4501 24.6363 33 24.0865 33 23.409V22.5909C33 21.9135 32.4501 21.3636 31.7727 21.3636Z" fill="white"/>
</g>
<defs>
<clipPath id="clip0">
<rect width="18" height="18" fill="white" transform="translate(15 14)"/>
</clipPath>
</defs>
</svg>
