<svg width="20" height="20" viewBox="0 0 20 20" fill="none" xmlns="http://www.w3.org/2000/svg">
<path d="M19.4504 3.79486C19.0796 3.37128 18.551 3.13797 17.9622 3.13797H3.72665L3.58337 2.06375C3.42896 0.906525 2.62329 0 1.74911 0H0.703125C0.379486 0 0.117188 0.262299 0.117188 0.585938C0.117188 0.909576 0.379486 1.17188 0.703125 1.17188H1.74911C1.9371 1.17188 2.33521 1.56937 2.42172 2.21863L4.09897 14.7983C4.17282 15.3528 4.4577 15.8719 4.90112 16.2601C5.22995 16.548 5.61859 16.7395 6.0257 16.8196C5.85983 17.1246 5.76553 17.4741 5.76553 17.845C5.76553 19.0334 6.73233 20 7.92053 20C9.10873 20 10.0755 19.0334 10.0755 17.845C10.0755 17.491 9.98917 17.157 9.83719 16.862H12.9076C12.7556 17.157 12.6692 17.491 12.6692 17.845C12.6692 19.0334 13.636 20 14.8242 20C16.0124 20 16.9792 19.0334 16.9792 17.845C16.9792 17.491 16.8929 17.157 16.7409 16.862H18.2761C18.5995 16.862 18.862 16.5996 18.862 16.2761C18.862 15.9525 18.5995 15.6902 18.2761 15.6902H6.45615C5.88364 15.6902 5.33615 15.2107 5.26047 14.6432L5.13794 13.7239H9.69833C9.69849 13.7239 9.69864 13.7241 9.69879 13.7241C9.69894 13.7241 9.6991 13.7239 9.6994 13.7239H13.4637C13.4639 13.7239 13.4641 13.7241 13.4644 13.7241C13.4645 13.7241 13.4645 13.7239 13.4647 13.7239H16.707C17.2664 13.7239 17.8186 13.5101 18.262 13.1221C18.7054 12.7339 18.9903 12.2147 19.0642 11.6602L19.9046 5.35675C19.9825 4.7731 19.8212 4.21844 19.4504 3.79486ZM8.90366 17.845C8.90366 18.3871 8.46268 18.8281 7.92053 18.8281C7.37854 18.8281 6.93741 18.3871 6.93741 17.845C6.93741 17.303 7.37854 16.862 7.92053 16.862C8.46268 16.862 8.90366 17.303 8.90366 17.845ZM15.8073 17.845C15.8073 18.3871 15.3664 18.8281 14.8242 18.8281C14.2821 18.8281 13.8411 18.3871 13.8411 17.845C13.8411 17.303 14.2821 16.862 14.8242 16.862C15.3664 16.862 15.8073 17.303 15.8073 17.845ZM18.5686 4.5668C18.7137 4.73251 18.7756 4.95789 18.743 5.20172L18.3907 7.845H14.4038L14.6394 4.30984H17.9622C18.2083 4.30984 18.4236 4.40109 18.5686 4.5668ZM10.2475 12.552L10.0117 9.01688H13.1512L12.9155 12.552H10.2475ZM9.93362 7.845L9.69803 4.30984H13.465L13.2294 7.845H9.93362ZM8.52356 4.30984L8.75916 7.845H4.3541L3.88275 4.30984H8.52356ZM4.51035 9.01688H8.83728L9.07303 12.552H4.98169L4.51035 9.01688ZM16.707 12.552H14.09L14.3257 9.01688H18.2344L17.9027 11.5053C17.827 12.0728 17.2794 12.552 16.707 12.552Z" fill="black"/>
</svg>
