<svg width="22" height="22" viewBox="0 0 22 22" fill="none" xmlns="http://www.w3.org/2000/svg">
<g clip-path="url(#clip0)">
<path d="M20.5925 10.1037C19.5446 9.05571 18.1288 8.59448 16.757 8.71965V3.91016C16.757 2.84397 15.8896 1.97656 14.8235 1.97656H1.90506C0.89723 1.97656 0 2.82386 0 3.91016V16.8008C0 17.867 0.867367 18.7344 1.93351 18.7344C15.3016 18.69 14.9 18.8404 15.5132 18.6065L16.7414 19.8346C16.9931 20.0864 17.4011 20.0863 17.6528 19.8346L20.5925 16.8948C22.469 15.0181 22.4693 11.9806 20.5925 10.1037ZM7.13247 3.26563H9.71046V6.48828H7.13247V3.26563ZM1.93351 17.4453C1.57811 17.4453 1.28902 17.1562 1.28902 16.8008V3.91016C1.28902 3.55476 1.57816 3.26563 1.93351 3.26563H5.84349V7.13281C5.84349 7.48877 6.13203 7.77734 6.48798 7.77734H10.355C10.7109 7.77734 10.9995 7.48877 10.9995 7.13281V3.26563H14.8235C15.1789 3.26563 15.468 3.55476 15.468 3.91016V9.01974C14.8604 9.25332 14.2909 9.61443 13.8017 10.1037C11.9295 11.976 11.9295 15.0225 13.8017 16.8948L14.3521 17.4453H1.93351ZM19.681 15.9833L17.197 18.4675L14.7131 15.9833C13.3403 14.6104 13.3401 12.3883 14.7131 11.0152C16.0828 9.64545 18.3113 9.64541 19.681 11.0152C21.0538 12.3881 21.054 14.6102 19.681 15.9833Z" fill="black"/>
<path d="M17.2198 11.4597C16.0873 11.4597 15.166 12.3811 15.166 13.5136C15.166 14.6461 16.0874 15.5676 17.2198 15.5676C18.3523 15.5676 19.2736 14.6462 19.2736 13.5136C19.2736 12.3811 18.3522 11.4597 17.2198 11.4597ZM17.2198 14.2785C16.7981 14.2785 16.455 13.9354 16.455 13.5136C16.455 13.0919 16.7981 12.7488 17.2198 12.7488C17.6415 12.7488 17.9846 13.0919 17.9846 13.5136C17.9846 13.9354 17.6415 14.2785 17.2198 14.2785Z" fill="black"/>
<path d="M7.13495 12.2891H3.26363C2.90768 12.2891 2.61914 12.5776 2.61914 12.9336C2.61914 13.2895 2.90768 13.5781 3.26363 13.5781H7.13495C7.4909 13.5781 7.77944 13.2895 7.77944 12.9336C7.77944 12.5776 7.4909 12.2891 7.13495 12.2891Z" fill="black"/>
<path d="M7.13065 14.8672H3.26363C2.90768 14.8672 2.61914 15.1558 2.61914 15.5117C2.61914 15.8677 2.90768 16.1562 3.26363 16.1562H7.13065C7.48661 16.1562 7.77514 15.8677 7.77514 15.5117C7.77514 15.1558 7.48661 14.8672 7.13065 14.8672Z" fill="black"/>
</g>
<defs>
<clipPath id="clip0">
<rect width="22" height="22" fill="white"/>
</clipPath>
</defs>
</svg>
