<svg width="87" height="43" viewBox="0 0 87 43" fill="none" xmlns="http://www.w3.org/2000/svg">
<rect width="86.1276" height="42.3339" rx="9.45178" fill="white"/>
<rect x="0.5" y="0.5" width="85.1276" height="41.3339" rx="8.95178" stroke="black" stroke-opacity="0.2"/>
<path d="M35.2891 29.2187L38.2526 12.5488H42.8831L40.0122 29.2187H35.2891Z" fill="#3C58BF"/>
<path d="M35.2891 29.2187L39.0861 12.5488H42.8831L40.0122 29.2187H35.2891Z" fill="#293688"/>
<path d="M56.7671 12.735C55.8409 12.3646 54.3592 11.9941 52.507 11.9941C47.8765 11.9941 44.5425 14.3094 44.5425 17.6434C44.5425 20.1439 46.8577 21.4404 48.7099 22.2739C50.5622 23.1074 51.1178 23.663 51.1178 24.4039C51.1178 25.5153 49.6361 26.0709 48.3395 26.0709C46.4873 26.0709 45.4686 25.7931 43.8942 25.1448L43.2459 24.867L42.5977 28.664C43.709 29.1271 45.7464 29.5901 47.8765 29.5901C52.7848 29.5901 56.0262 27.2749 56.0262 23.7557C56.0262 21.8108 54.8222 20.3291 52.0439 19.1251C50.3769 18.2916 49.3582 17.8286 49.3582 16.9951C49.3582 16.2542 50.1917 15.5133 52.0439 15.5133C53.6183 15.5133 54.7296 15.7912 55.5631 16.1616L56.0262 16.3468L56.7671 12.735Z" fill="#3C58BF"/>
<path d="M56.7671 12.735C55.8409 12.3646 54.3592 11.9941 52.507 11.9941C47.8765 11.9941 45.376 14.3094 45.376 17.6434C45.376 20.1439 46.8577 21.4404 48.7099 22.2739C50.5622 23.1074 51.1178 23.663 51.1178 24.4039C51.1178 25.5153 49.6361 26.0709 48.3395 26.0709C46.4873 26.0709 45.4686 25.7931 43.8942 25.1448L43.2459 24.867L42.5977 28.664C43.709 29.1271 45.7464 29.5901 47.8765 29.5901C52.7848 29.5901 56.0262 27.2749 56.0262 23.7557C56.0262 21.8108 54.8222 20.3291 52.0439 19.1251C50.3769 18.2916 49.3582 17.8286 49.3582 16.9951C49.3582 16.2542 50.1917 15.5133 52.0439 15.5133C53.6183 15.5133 54.7296 15.7912 55.5631 16.1616L56.0262 16.3468L56.7671 12.735Z" fill="#293688"/>
<path d="M64.7325 12.5488C63.6212 12.5488 62.7877 12.6414 62.3247 13.7528L55.3789 29.2187H60.3798L61.3059 26.4404H67.233L67.7886 29.2187H72.2339L68.3443 12.5488H64.7325ZM62.6025 23.6621C62.8803 22.8286 64.4547 18.7537 64.4547 18.7537C64.4547 18.7537 64.8251 17.735 65.103 17.0867L65.3808 18.6611C65.3808 18.6611 66.3069 22.8286 66.4921 23.7547H62.6025V23.6621Z" fill="#3C58BF"/>
<path d="M65.8438 12.5488C64.7325 12.5488 63.899 12.6414 63.436 13.7528L55.3789 29.2187H60.3798L61.3059 26.4404H67.233L67.7886 29.2187H72.2339L68.3443 12.5488H65.8438ZM62.6025 23.6621C62.9729 22.736 64.4547 18.7537 64.4547 18.7537C64.4547 18.7537 64.8251 17.735 65.103 17.0867L65.3808 18.6611C65.3808 18.6611 66.3069 22.8286 66.4921 23.7547H62.6025V23.6621Z" fill="#293688"/>
<path d="M26.7622 24.2169L26.2991 21.809C25.4656 19.0307 22.7799 15.9746 19.8164 14.4928L23.9839 29.3105H28.9848L36.4863 12.6406H31.4853L26.7622 24.2169Z" fill="#3C58BF"/>
<path d="M26.7622 24.2169L26.2991 21.809C25.4656 19.0307 22.7799 15.9746 19.8164 14.4928L23.9839 29.3105H28.9848L36.4863 12.6406H32.4114L26.7622 24.2169Z" fill="#293688"/>
<path d="M13.8906 12.5488L14.7241 12.734C20.6512 14.1232 24.726 17.6424 26.3004 21.8099L24.6334 13.938C24.3556 12.8267 23.5221 12.5488 22.5034 12.5488H13.8906Z" fill="#FFBC00"/>
<path d="M13.8906 12.5488C19.8177 13.938 24.726 17.5498 26.3004 21.7173L24.726 15.1419C24.4482 14.0306 23.5221 13.3823 22.5034 13.3823L13.8906 12.5488Z" fill="#F7981D"/>
<path d="M13.8906 12.5488C19.8177 13.938 24.726 17.5498 26.3004 21.7173L25.1891 18.1055C24.9113 16.9941 24.5408 15.8828 23.2443 15.4197L13.8906 12.5488Z" fill="#ED7C00"/>
<path d="M31.3899 23.6614L28.2412 20.5127L26.7594 24.0319L26.389 21.7166C25.5555 18.9383 22.8698 15.8822 19.9062 14.4004L24.0737 29.2181H29.0747L31.3899 23.6614Z" fill="#012801"/>
<path d="M39.9966 29.2213L36.0143 25.1465L35.2734 29.2213H39.9966Z" fill="#012801"/>
<path d="M50.6548 23.4746C51.0252 23.8451 51.2104 24.1229 51.1178 24.4933C51.1178 25.6047 49.6361 26.1603 48.3395 26.1603C46.4873 26.1603 45.4686 25.8825 43.8942 25.2342L43.2459 24.9564L42.5977 28.7534C43.709 29.2165 45.7464 29.6795 47.8765 29.6795C50.84 29.6795 53.2479 28.846 54.637 27.3642L50.6548 23.4746Z" fill="#012801"/>
<path d="M56.0234 29.2199H60.3761L61.3022 26.4415H67.2293L67.785 29.2199H72.2303L70.6559 22.4593L65.0993 17.0879L65.3771 18.5697C65.3771 18.5697 66.3032 22.7371 66.4884 23.6632H62.5988C62.9692 22.7371 64.451 18.7549 64.451 18.7549C64.451 18.7549 64.8214 17.7362 65.0993 17.0879" fill="#012801"/>
</svg>
