<svg width="12" height="10" viewBox="0 0 12 10" fill="none" xmlns="http://www.w3.org/2000/svg">
<path d="M11.8082 4.53387L7.47455 0.200153C7.35084 0.0764468 7.18597 0.00854492 7.01017 0.00854492C6.83417 0.00854492 6.66939 0.0765443 6.54568 0.200153L6.15222 0.593711C6.02862 0.717222 5.96052 0.882196 5.96052 1.0581C5.96052 1.2339 6.02862 1.40444 6.15222 1.52795L8.68039 4.06168H0.648285C0.286143 4.06168 0 4.34519 0 4.70743V5.26382C0 5.62606 0.286143 5.93815 0.648285 5.93815H8.70907L6.15232 8.48604C6.02871 8.60974 5.96062 8.77023 5.96062 8.94613C5.96062 9.12184 6.02871 9.28466 6.15232 9.40827L6.54578 9.80056C6.66949 9.92427 6.83427 9.99168 7.01026 9.99168C7.18607 9.99168 7.35094 9.92339 7.47465 9.79968L11.8083 5.46606C11.9323 5.34196 12.0005 5.17631 12 5.00021C12.0004 4.82353 11.9323 4.65778 11.8082 4.53387Z" fill="#182342"/>
</svg>
