<svg width="20" height="20" viewBox="0 0 20 20" fill="none" xmlns="http://www.w3.org/2000/svg">
<g clip-path="url(#clip0)">
<path d="M19.9188 7.39965L19.919 7.39953L19.9155 7.3907C19.9152 7.38996 19.9149 7.38918 19.9146 7.38844L18.3566 3.49328C18.2675 3.27086 18.0521 3.125 17.8125 3.125H16.25V0.585938C16.25 0.262344 15.9877 0 15.6641 0H4.33594C4.01234 0 3.75 0.262344 3.75 0.585938V3.125H2.1875C1.94789 3.125 1.73246 3.27086 1.64348 3.49332L0.0854297 7.38844C0.0851172 7.38918 0.0848438 7.38996 0.0845313 7.3907L0.0810156 7.39953L0.0812891 7.39965C0.0542969 7.46699 0.0390625 7.54023 0.0390625 7.61719V8.47656C0.0390625 9.36117 0.508398 10.1379 1.21094 10.5718V19.4141C1.21094 19.7377 1.47328 20 1.79688 20H18.2031C18.5267 20 18.7891 19.7377 18.7891 19.4141V10.5718C19.4916 10.1379 19.9609 9.36113 19.9609 8.47656V7.61719C19.9609 7.54023 19.9457 7.46699 19.9188 7.39965ZM4.92188 1.17188H15.0781V4.6875H4.92188V1.17188ZM2.58418 4.29688H3.75V5.27344C3.75 5.59703 4.01234 5.85938 4.33594 5.85938H15.6641C15.9877 5.85938 16.25 5.59703 16.25 5.27344V4.29688H17.4158L18.5096 7.03125H1.49043L2.58418 4.29688ZM12.4609 8.20312H15.0391V8.47656C15.0391 9.18734 14.4608 9.76562 13.75 9.76562C13.0392 9.76562 12.4609 9.18734 12.4609 8.47656V8.20312ZM8.71094 8.20312H11.2891V8.47656C11.2891 9.18734 10.7108 9.76562 10 9.76562C9.28922 9.76562 8.71094 9.18734 8.71094 8.47656V8.20312ZM4.96094 8.20312H7.53906V8.47656C7.53906 9.18734 6.96078 9.76562 6.25 9.76562C5.53922 9.76562 4.96094 9.18734 4.96094 8.47656V8.20312ZM1.21094 8.47656V8.20312H3.78906V8.47656C3.78906 9.18734 3.21078 9.76562 2.5 9.76562C1.78922 9.76562 1.21094 9.18734 1.21094 8.47656ZM4.72656 18.8281V13.3594H8.24219V18.8281H4.72656ZM17.6172 18.8281H9.41406V12.7734C9.41406 12.4498 9.15172 12.1875 8.82812 12.1875H4.14062C3.81703 12.1875 3.55469 12.4498 3.55469 12.7734V18.8281H2.38281V10.9345C2.42168 10.9364 2.4607 10.9375 2.5 10.9375C3.25055 10.9375 3.92324 10.5994 4.375 10.0679C4.82676 10.5994 5.49945 10.9375 6.25 10.9375C7.00055 10.9375 7.67324 10.5994 8.125 10.0679C8.57676 10.5994 9.24945 10.9375 10 10.9375C10.7505 10.9375 11.4232 10.5994 11.875 10.0679C12.3268 10.5994 12.9995 10.9375 13.75 10.9375C14.5005 10.9375 15.1732 10.5994 15.625 10.0679C16.0768 10.5994 16.7495 10.9375 17.5 10.9375C17.5393 10.9375 17.5783 10.9364 17.6172 10.9345V18.8281ZM18.7891 8.47656C18.7891 9.18734 18.2108 9.76562 17.5 9.76562C16.7892 9.76562 16.2109 9.18734 16.2109 8.47656V8.20312H18.7891V8.47656Z" fill="black"/>
<path d="M6.67969 3.51562H13.3203C13.6439 3.51562 13.9062 3.25328 13.9062 2.92969C13.9062 2.60609 13.6439 2.34375 13.3203 2.34375H6.67969C6.35609 2.34375 6.09375 2.60609 6.09375 2.92969C6.09375 3.25328 6.35609 3.51562 6.67969 3.51562Z" fill="black"/>
<path d="M15.8594 12.1875H11.1719C10.8483 12.1875 10.5859 12.4498 10.5859 12.7734V16.2891C10.5859 16.6127 10.8483 16.875 11.1719 16.875H15.8594C16.183 16.875 16.4453 16.6127 16.4453 16.2891V12.7734C16.4453 12.4498 16.183 12.1875 15.8594 12.1875ZM15.2734 15.7031H11.7578V13.3594H15.2734V15.7031Z" fill="black"/>
<path d="M6.875 14.9219C6.55141 14.9219 6.28906 15.1842 6.28906 15.5078V16.2891C6.28906 16.6127 6.55141 16.875 6.875 16.875C7.19859 16.875 7.46094 16.6127 7.46094 16.2891V15.5078C7.46094 15.1842 7.19859 14.9219 6.875 14.9219Z" fill="black"/>
</g>
<defs>
<clipPath id="clip0">
<rect width="20" height="20" fill="white"/>
</clipPath>
</defs>
</svg>
