<svg width="40" height="24" viewBox="0 0 40 24" fill="none" xmlns="http://www.w3.org/2000/svg">
<path d="M38.1817 23.6364H1.8182C0.818202 23.6364 0 22.8182 0 21.8182V1.8182C0 0.818201 0.818202 0 1.8182 0H38.1818C39.1818 0 40 0.818201 40 1.8182V21.8182C39.9999 22.8182 39.1817 23.6364 38.1817 23.6364Z" fill="#0E9347"/>
<path d="M33.6352 16.3636C31.5442 16.3636 29.6352 17.3636 28.5442 19C27.6352 18.5455 26.6352 18.1818 25.4534 18.1818C22.2716 18.1818 19.6352 20.5455 19.1807 23.6364H38.1806C39.0897 23.6364 39.817 23 39.9988 22.0909C39.6352 18.9091 36.9079 16.3636 33.6352 16.3636Z" fill="#0D8944"/>
<path d="M34.5446 21.8182H5.4537C5.4537 19.8182 3.81738 18.1818 1.81738 18.1818V5.4546C3.81738 5.4546 5.4537 3.81827 5.4537 1.81828H34.5446C34.5446 3.81827 36.1809 5.4546 38.1809 5.4546V18.1818C36.1809 18.1818 34.5446 19.8182 34.5446 21.8182Z" fill="#3BB54A"/>
<path d="M33.6366 16.3636C31.5456 16.3636 29.6366 17.3636 28.5456 19C27.6366 18.5455 26.6366 18.1819 25.4548 18.1819C22.9093 18.1819 20.7275 19.6364 19.7275 21.8182H34.5457C34.5457 19.8182 36.0912 18.2727 38.0912 18.1819C36.9093 17.0909 35.3639 16.3636 33.6366 16.3636Z" fill="#0E9347"/>
<path d="M20.0003 20C24.0169 20 27.273 16.3369 27.273 11.8182C27.273 7.29951 24.0169 3.63641 20.0003 3.63641C15.9836 3.63641 12.7275 7.29951 12.7275 11.8182C12.7275 16.3369 15.9836 20 20.0003 20Z" fill="#0E9347"/>
<path d="M9.09164 13.6364C10.0958 13.6364 10.9098 12.8223 10.9098 11.8182C10.9098 10.814 10.0958 9.99998 9.09164 9.99998C8.08747 9.99998 7.27344 10.814 7.27344 11.8182C7.27344 12.8223 8.08747 13.6364 9.09164 13.6364Z" fill="#0E9347"/>
<path d="M30.909 13.6364C31.9132 13.6364 32.7272 12.8223 32.7272 11.8182C32.7272 10.814 31.9132 9.99998 30.909 9.99998C29.9049 9.99998 29.0908 10.814 29.0908 11.8182C29.0908 12.8223 29.9049 13.6364 30.909 13.6364Z" fill="#0E9347"/>
<path d="M20.9087 10.9091H19.0905C18.545 10.9091 18.1814 10.5454 18.1814 10.0001C18.1814 9.45458 18.5451 9.09099 19.0905 9.09099H21.8177C22.3632 9.09099 22.7268 8.72732 22.7268 8.18193C22.7268 7.63646 22.3631 7.27287 21.8177 7.27287H20.9087C20.9087 6.7274 20.545 6.36381 19.9996 6.36381C19.4541 6.36381 19.0905 6.72748 19.0905 7.27287C17.5451 7.27287 16.3633 8.45466 16.3633 10.0001C16.3633 11.5456 17.5451 12.7274 19.0905 12.7274H20.9087C21.4542 12.7274 21.8178 13.0911 21.8178 13.6365C21.8178 14.1819 21.4541 14.5455 20.9087 14.5455H18.1815C17.636 14.5455 17.2724 14.9092 17.2724 15.4546C17.2724 16 17.6361 16.3636 18.1815 16.3636H19.0905C19.0905 16.9091 19.4542 17.2727 19.9996 17.2727C20.5451 17.2727 20.9087 16.909 20.9087 16.3636C22.4541 16.3636 23.6359 15.1818 23.6359 13.6364C23.6359 12.0909 22.4541 10.9091 20.9087 10.9091Z" fill="#89C763"/>
</svg>
