<svg width="22" height="22" viewBox="0 0 22 22" fill="none" xmlns="http://www.w3.org/2000/svg">
<g clip-path="url(#clip0)">
<path d="M4.39953 16.83H4.08059L3.85506 17.0555L0.769531 20.1411V2.20002C0.769531 1.41528 1.41479 0.77002 2.19953 0.77002H19.7995C20.5843 0.77002 21.2295 1.41528 21.2295 2.20002V15.4C21.2295 16.1848 20.5843 16.83 19.7995 16.83H4.39953Z" stroke="black" stroke-width="2.1"/>
<path d="M4.52735 7.4067H16.9883C17.4629 7.4067 17.8476 7.06197 17.8476 6.6367C17.8476 6.21143 17.4629 5.8667 16.9883 5.8667H4.52735C4.05271 5.8667 3.66797 6.21143 3.66797 6.6367C3.66797 7.06197 4.05271 7.4067 4.52735 7.4067Z" fill="black"/>
<path d="M4.2013 11.0001H11.9346C12.2292 11.0001 12.468 10.6718 12.468 10.2668C12.468 9.86176 12.2292 9.53345 11.9346 9.53345H4.2013C3.90674 9.53345 3.66797 9.86176 3.66797 10.2668C3.66797 10.6718 3.90674 11.0001 4.2013 11.0001Z" fill="black"/>
</g>
<defs>
<clipPath id="clip0">
<rect width="22" height="22" fill="white"/>
</clipPath>
</defs>
</svg>
