<svg width="40" height="24" viewBox="0 0 40 24" fill="none" xmlns="http://www.w3.org/2000/svg">
<path d="M40.0002 2.75879L39.9999 22.0214C40.0108 22.7953 39.3947 23.4328 38.6208 23.448H1.37952C0.605601 23.4328 -0.0105443 22.7953 0.000136796 22.0214V2.75879H40.0002Z" fill="#BBD1B5"/>
<path d="M37.4924 0H1.37938C0.618587 0.00244139 0.00244139 0.618587 0 1.37938V3.44815H39.9997V1.37938C39.9997 0.620723 38.8715 0 37.4924 0Z" fill="#46B29D"/>
<path d="M5.51715 16.5518C4.66968 16.5637 3.84052 16.3028 3.15234 15.8075C2.49255 15.3457 2.09064 14.5984 2.06897 13.793C2.06897 13.4121 2.37781 13.1036 2.75867 13.1036C3.13953 13.1036 3.44836 13.4121 3.44836 13.793C3.47583 14.1626 3.67206 14.4986 3.97998 14.7043C4.91809 15.2993 6.1156 15.2993 7.05371 14.7043C7.38239 14.5187 7.58563 14.1705 7.58563 13.793C7.58563 13.4158 7.38239 13.0676 7.05371 12.8821C6.60358 12.5683 6.06586 12.4045 5.51715 12.4139C4.66968 12.4258 3.84052 12.1649 3.15234 11.6696C2.47577 11.2228 2.06836 10.4663 2.06836 9.65513C2.06836 8.84427 2.47577 8.08744 3.15234 7.64066C4.5827 6.6815 6.45099 6.6815 7.88135 7.64066C8.54144 8.1027 8.94366 8.84977 8.96564 9.65513C8.96564 10.036 8.6568 10.3448 8.27594 10.3448C7.89508 10.3448 7.58624 10.036 7.58624 9.65513C7.55878 9.28586 7.36255 8.94987 7.05463 8.74418C6.11621 8.14908 4.91901 8.14908 3.98059 8.74418C3.65222 8.92972 3.44897 9.27793 3.44897 9.65513C3.44897 10.0326 3.65222 10.3808 3.98059 10.5661C4.43103 10.8801 4.96844 11.044 5.51715 11.0345C6.36493 11.0226 7.19409 11.2835 7.88196 11.7785C8.55884 12.2253 8.96625 12.9821 8.96625 13.793C8.96625 14.6042 8.55884 15.361 7.88196 15.8075C7.19409 16.3031 6.36493 16.564 5.51715 16.5518Z" fill="#24AE5F"/>
<path d="M5.51685 8.27574C5.13599 8.27574 4.82715 7.96721 4.82715 7.58635V6.20695C4.82715 5.8261 5.13599 5.51726 5.51685 5.51726C5.89771 5.51726 6.20654 5.8261 6.20654 6.20695V7.58635C6.20654 7.96721 5.89771 8.27574 5.51685 8.27574Z" fill="#24AE5F"/>
<path d="M5.51685 17.9311C5.13599 17.9311 4.82715 17.6223 4.82715 17.2414V15.862C4.82715 15.4812 5.13599 15.1723 5.51685 15.1723C5.89771 15.1723 6.20654 15.4812 6.20654 15.862V17.2414C6.20654 17.6223 5.89771 17.9311 5.51685 17.9311Z" fill="#24AE5F"/>
<path d="M20.6896 13.1036H11.0344C10.6536 13.1036 10.3447 12.7947 10.3447 12.4139C10.3447 12.033 10.6536 11.7242 11.0344 11.7242H20.6896C21.0704 11.7242 21.3793 12.033 21.3793 12.4139C21.3793 12.7947 21.0704 13.1036 20.6896 13.1036Z" fill="#24AE5F"/>
<path d="M20.6896 16.5517H11.0344C10.6536 16.5517 10.3447 16.2429 10.3447 15.862C10.3447 15.4812 10.6536 15.1723 11.0344 15.1723H20.6896C21.0704 15.1723 21.3793 15.4812 21.3793 15.862C21.3793 16.2429 21.0704 16.5517 20.6896 16.5517Z" fill="#24AE5F"/>
<path d="M20.6896 19.9999H11.0344C10.6536 19.9999 10.3447 19.6911 10.3447 19.3102C10.3447 18.9293 10.6536 18.6205 11.0344 18.6205H20.6896C21.0704 18.6205 21.3793 18.9293 21.3793 19.3102C21.3793 19.6911 21.0704 19.9999 20.6896 19.9999Z" fill="#24AE5F"/>
<path d="M35.1721 6.89664H24.8273C24.0665 6.89878 23.4504 7.51493 23.4482 8.27572V11.0345C23.4504 11.7953 24.0665 12.4114 24.8273 12.4139H35.1721C35.9332 12.4114 36.5493 11.7953 36.5515 11.0345V8.27572C36.5493 7.51493 35.9332 6.89878 35.1721 6.89664Z" fill="white"/>
</svg>
