<svg width="20" height="20" viewBox="0 0 20 20" fill="none" xmlns="http://www.w3.org/2000/svg">
<path d="M18 0H2C0.895431 0 0 0.895431 0 2V18C0 19.1046 0.895431 20 2 20H18C19.1046 20 20 19.1046 20 18V2C20 0.895431 19.1046 0 18 0Z" fill="#033603"/>
<g clip-path="url(#clip0)">
<path d="M13.7626 8.53524H10.3535V5.12615C10.3535 4.74979 10.0481 4.44434 9.6717 4.44434H9.21719C8.84082 4.44434 8.53537 4.74979 8.53537 5.12615V8.53524H5.12628C4.74991 8.53524 4.44446 8.8407 4.44446 9.21706V9.67158C4.44446 10.0479 4.74991 10.3534 5.12628 10.3534H8.53537V13.7625C8.53537 14.1389 8.84082 14.4443 9.21719 14.4443H9.6717C10.0481 14.4443 10.3535 14.1389 10.3535 13.7625V10.3534H13.7626C14.139 10.3534 14.4444 10.0479 14.4444 9.67158V9.21706C14.4444 8.8407 14.139 8.53524 13.7626 8.53524Z" fill="white"/>
</g>
<defs>
<clipPath id="clip0">
<rect width="10" height="10" fill="white" transform="translate(4.44446 4.44434)"/>
</clipPath>
</defs>
</svg>
