<svg width="88" height="88" viewBox="0 0 88 88" fill="none" xmlns="http://www.w3.org/2000/svg">
<path d="M29.657 67.3583C29.6347 67.2483 29.602 67.14 29.5591 67.0352C29.5161 66.9321 29.4628 66.8324 29.4009 66.7396C29.3391 66.645 29.2669 66.5574 29.1878 66.4783C29.1088 66.3993 29.0211 66.3271 28.9266 66.2652C28.8338 66.2033 28.7341 66.15 28.6292 66.1071C28.5261 66.0641 28.4178 66.0297 28.3078 66.0091C28.0861 65.9644 27.8575 65.9644 27.6375 66.0091C27.5275 66.0297 27.4192 66.0641 27.3144 66.1071C27.2112 66.15 27.1116 66.2033 27.0187 66.2652C26.9242 66.3271 26.8366 66.3993 26.7575 66.4783C26.6784 66.5574 26.6063 66.645 26.5444 66.7396C26.4808 66.8324 26.4292 66.9321 26.3863 67.0352C26.3433 67.14 26.3089 67.2483 26.2883 67.3583C26.2659 67.4683 26.2539 67.5817 26.2539 67.6935C26.2539 67.8052 26.2659 67.9186 26.2883 68.0286C26.3089 68.1386 26.3433 68.2469 26.3863 68.35C26.4292 68.4549 26.4808 68.5546 26.5444 68.6474C26.6063 68.7419 26.6784 68.8296 26.7575 68.9086C26.8366 68.9877 26.9242 69.0599 27.0187 69.1217C27.1116 69.1838 27.2112 69.2371 27.3144 69.28C27.4192 69.323 27.5275 69.3574 27.6375 69.378C27.7475 69.4004 27.8609 69.4124 27.9727 69.4124C28.0844 69.4124 28.1978 69.4004 28.3078 69.378C28.4178 69.3574 28.5261 69.323 28.6292 69.28C28.7341 69.2371 28.8338 69.1836 28.9266 69.1217C29.0211 69.0599 29.1088 68.9877 29.1878 68.9086C29.2669 68.8296 29.3391 68.7419 29.4009 68.6474C29.4628 68.5546 29.5161 68.4549 29.5591 68.35C29.602 68.2469 29.6347 68.1386 29.657 68.0286C29.6794 67.9186 29.6914 67.8052 29.6914 67.6935C29.6914 67.5817 29.6794 67.4683 29.657 67.3583Z" fill="#DBF1DC" fill-opacity="0.3"/>
<path d="M79.0613 67.8878C79.0546 67.8706 79.0477 67.8536 79.0405 67.8367C77.4586 64.135 73.7485 62.7669 69.3578 64.2665L57.3836 67.5779C56.6913 65.4813 54.9644 63.6973 52.5228 62.7911C52.5076 62.7856 52.4925 62.7801 52.4772 62.775L39.3149 58.3076C38.2193 56.8915 34.7877 53.2681 28.3625 53.2681C23.8722 53.2681 19.9 56.3484 17.6275 59.706H1.71875C0.769484 59.706 0 60.4755 0 61.4247V83.0942C0 84.0435 0.769484 84.813 1.71875 84.813H11.9379C12.8872 84.813 13.6567 84.0435 13.6567 83.0942V81.6103H18.4491C19.3983 81.6103 20.1678 80.8408 20.1678 79.8915V79.3969C22.9615 79.6406 23.8803 80.1705 26.4461 81.65C28.4192 82.7878 31.4014 84.5074 36.7718 86.9221C36.7967 86.9332 36.822 86.9439 36.8473 86.9539C37.878 87.3593 39.8929 87.9963 42.377 87.9963C44.1061 87.9963 46.0628 87.6874 48.0714 86.777L74.5386 77.3005C74.5857 77.2837 74.6321 77.2647 74.6775 77.2438C77.2069 76.08 80.9763 72.8001 79.0613 67.8878ZM10.2192 81.3753H3.4375V63.1433H10.2192V81.3753ZM16.7303 78.1726H13.6567V63.1433H16.7303V78.1726ZM73.304 74.0911L46.8487 83.5633C46.8255 83.5715 46.794 83.5839 46.7711 83.5932C46.7479 83.6026 46.7247 83.6126 46.7019 83.6231C43.0174 85.3164 39.5151 84.3027 38.1425 83.769C32.955 81.4348 30.1862 79.8382 28.1633 78.6717C25.3507 77.0499 23.9955 76.2682 20.1678 75.9521V62.109C21.797 59.4387 24.9564 56.7054 28.3626 56.7054C34.204 56.7054 36.6792 60.5047 36.7764 60.658C36.9863 60.9993 37.3089 61.2566 37.6882 61.3854L51.348 66.0215C53.5296 66.8403 54.6826 68.7086 54.1527 70.5718C53.9081 71.4322 53.343 72.1458 52.5616 72.5811C51.787 73.0127 50.8915 73.1195 50.038 72.8833L34.6392 68.0034C33.7337 67.7166 32.7681 68.2178 32.4815 69.1227C32.1946 70.0276 32.6958 70.9935 33.6007 71.2804L49.0263 76.1687C49.0426 76.1738 49.059 76.1788 49.0755 76.1835C49.6913 76.3586 50.3183 76.4452 50.9415 76.4452C52.0824 76.4452 53.2108 76.1546 54.2348 75.584C55.8183 74.7017 56.9633 73.2556 57.459 71.5119C57.4986 71.3727 57.5336 71.2335 57.564 71.0943L70.4689 67.5193C72.3327 66.8826 74.7794 66.6532 75.8687 69.162C76.9962 72.1075 74.0658 73.7277 73.304 74.0911Z" fill="#DBF1DC" fill-opacity="0.3"/>
<path d="M61.7134 22.6088C61.6911 22.4988 61.6584 22.3905 61.6138 22.2857C61.5708 22.1826 61.5192 22.0829 61.4556 21.9901C61.3937 21.8955 61.3216 21.8079 61.2425 21.7288C61.1634 21.6497 61.0758 21.5776 60.9812 21.5157C60.8884 21.4538 60.7887 21.4005 60.6856 21.3576C60.5808 21.3146 60.4725 21.2802 60.3642 21.2596C60.1425 21.2149 59.9139 21.2149 59.6922 21.2596C59.5822 21.2802 59.4739 21.3146 59.3708 21.3576C59.2659 21.4005 59.1663 21.4538 59.0734 21.5157C58.9789 21.5776 58.8912 21.6497 58.8122 21.7288C58.7331 21.8079 58.6609 21.8955 58.5991 21.9901C58.5372 22.0829 58.4839 22.1826 58.4409 22.2857C58.398 22.3905 58.3636 22.4988 58.343 22.6088C58.3206 22.7188 58.3086 22.8322 58.3086 22.944C58.3086 23.0557 58.3206 23.1691 58.343 23.2791C58.3636 23.3891 58.398 23.4974 58.4409 23.6005C58.4839 23.7054 58.5372 23.8051 58.5991 23.8979C58.6609 23.9924 58.7331 24.0801 58.8122 24.1591C58.8912 24.2382 58.9789 24.3104 59.0734 24.3722C59.1663 24.4341 59.2659 24.4874 59.3708 24.5304C59.4739 24.5733 59.5822 24.606 59.6922 24.6283C59.8022 24.6507 59.9156 24.6627 60.0273 24.6627C60.1391 24.6627 60.2525 24.6507 60.3642 24.6283C60.4725 24.606 60.5808 24.5733 60.6856 24.5304C60.7887 24.4874 60.8884 24.4341 60.9812 24.3722C61.0758 24.3104 61.1634 24.2382 61.2425 24.1591C61.3216 24.0801 61.3937 23.9924 61.4556 23.8979C61.5192 23.8051 61.5708 23.7054 61.6138 23.6005C61.6584 23.4974 61.6911 23.3891 61.7134 23.2791C61.7358 23.1691 61.7461 23.0557 61.7461 22.944C61.7461 22.8322 61.7358 22.7188 61.7134 22.6088Z" fill="#DBF1DC" fill-opacity="0.3"/>
<path d="M86.2812 5.82517H76.0621C75.1128 5.82517 74.3433 6.59465 74.3433 7.54392V9.02789H69.5509C68.6017 9.02789 67.8322 9.79737 67.8322 10.7466V11.2413C65.0385 10.9974 64.1197 10.4677 61.5541 8.98819C59.581 7.85037 56.5988 6.13076 51.2282 3.71609C51.2033 3.70475 51.1782 3.69426 51.1526 3.68429C49.4044 2.99645 44.8228 1.64311 39.9293 3.86081L33.0131 6.33719L27.1832 0.507529C26.5121 -0.163643 25.4237 -0.163643 24.7526 0.507529L5.61292 19.647C4.99382 20.2663 4.87506 21.34 5.61292 22.0778L38.3185 54.7834C38.8419 55.307 40.0673 55.4653 40.7493 54.7834L58.223 37.3099C58.6773 37.3491 59.1487 37.3703 59.6373 37.3703C64.1278 37.3703 68.0998 34.2899 70.3721 30.9325H86.2812C87.2305 30.9325 88 30.163 88 29.2138V7.54392C88 6.59465 87.2305 5.82517 86.2812 5.82517ZM25.9677 4.15351L29.8851 8.07089C28.7206 8.79105 27.3744 9.17639 25.9677 9.17639C24.5609 9.17639 23.2148 8.79122 22.0504 8.07089L25.9677 4.15351ZM13.1764 24.7799L9.25907 20.8623L13.1764 16.945C13.8966 18.1094 14.2819 19.4557 14.2819 20.8623C14.2819 22.269 13.8968 23.6153 13.1764 24.7799ZM39.534 51.1373L35.6173 47.2206C38.0086 45.7449 41.059 45.7449 43.4505 47.2206L39.534 51.1373ZM45.9269 44.7445C42.1288 41.9894 36.9392 41.9894 33.1411 44.7445L15.6526 27.2559C16.9948 25.41 17.7194 23.1926 17.7194 20.8623C17.7194 18.5319 16.995 16.3147 15.6526 14.4688L19.5743 10.5473C21.4203 11.8894 23.6374 12.6141 25.9679 12.6141C28.2984 12.6141 30.5155 11.8894 32.3615 10.5473L36.079 14.2648C35.2768 14.3832 34.4946 14.6475 33.7652 15.054C32.5332 15.7405 31.5666 16.7685 30.9646 18.0121C29.0259 18.3712 27.231 19.3098 25.823 20.7176C22.0031 24.5377 22.0031 30.7532 25.8232 34.5733C27.7331 36.4832 30.2419 37.4383 32.7509 37.4383C35.2598 37.4383 37.7688 36.4834 39.6789 34.5733C40.9215 33.3307 41.7921 31.8034 42.2281 30.139L48.0313 32.1085C47.378 35.1348 48.0471 38.3187 49.852 40.8194L45.9269 44.7445ZM35.4772 27.847C35.4923 27.8525 35.5075 27.858 35.5228 27.8632L38.9596 29.0297C38.7001 30.201 38.1128 31.278 37.2482 32.1427C34.7684 34.6221 30.7335 34.6225 28.254 32.1427C25.7742 29.663 25.7742 25.6283 28.254 23.1485C28.8521 22.55 29.558 22.0823 30.3272 21.7652C30.6444 24.4055 32.5456 26.759 35.4772 27.847ZM52.3285 38.3427C51.6651 37.2616 51.2897 36.0277 51.2304 34.7684C52.0537 35.3636 53.0599 35.9468 54.2616 36.4096L52.3285 38.3427ZM67.832 28.5285C66.203 31.1991 63.0436 33.9324 59.6373 33.9324C59 33.9324 58.4028 33.887 57.8443 33.8063C57.8421 33.8059 57.8399 33.8056 57.8376 33.8052C54.1258 33.266 52.1292 31.1565 51.4711 30.3211C51.436 30.2696 51.2866 30.0742 51.2645 30.0417C51.0642 29.6838 50.7359 29.3961 50.3173 29.254L36.6518 24.6159C34.4711 23.7975 33.3183 21.93 33.8466 20.0676C33.847 20.0664 33.8473 20.0652 33.8477 20.064C33.8482 20.0626 33.8485 20.0611 33.8489 20.0597C34.0945 19.202 34.6586 18.4906 35.4382 18.0563C36.2127 17.6247 37.108 17.5177 37.9618 17.7543L53.3606 22.634C54.2657 22.9212 55.2317 22.4197 55.5184 21.5148C55.805 20.6099 55.304 19.6439 54.3991 19.3571L42.1522 15.4761L42.0453 15.3692C42.0442 15.3682 42.0432 15.367 42.042 15.366L35.7015 9.02548L41.1513 7.07401C41.1697 7.06731 41.1924 7.05889 41.2106 7.0515C41.2153 7.04961 41.2242 7.04617 41.2287 7.04428C41.2521 7.03483 41.2751 7.02486 41.2979 7.01437C44.9823 5.32106 48.4844 6.33461 49.8571 6.86845C55.0448 9.20269 57.8138 10.7992 59.8367 11.9657C62.6493 13.5877 64.0045 14.3693 67.832 14.6853V28.5285ZM74.3433 27.4947H71.2697V12.4654H74.3433V27.4947ZM84.5625 27.4947H77.7808V9.26267H84.5625V27.4947Z" fill="#DBF1DC" fill-opacity="0.3"/>
</svg>
