<svg width="42" height="42" viewBox="0 0 42 42" fill="none" xmlns="http://www.w3.org/2000/svg">
<g clip-path="url(#clip0)">
<path d="M25.0531 10.307L27.9309 12.436C28.2548 12.6756 28.0911 13.2059 27.6815 13.2084L26.7784 13.2139C26.7775 13.2139 26.7767 13.2139 26.7758 13.2139C26.5435 13.2139 26.3538 13.0259 26.3524 12.7936C26.3482 12.114 25.7943 11.5652 25.1144 11.5707C24.4349 11.5749 23.8874 12.1292 23.8915 12.8088C23.8996 14.1217 24.7887 15.2261 25.9934 15.5662V15.6258C25.9934 16.3053 26.5443 16.8563 27.2238 16.8563C27.9032 16.8563 28.4542 16.3053 28.4542 15.6258V15.5637C28.9336 15.4308 29.3724 15.1752 29.7314 14.8116C30.273 14.2632 30.5684 13.5367 30.5631 12.764V12.7563C30.557 11.8538 30.1201 10.9945 29.3944 10.4577L26.5167 8.3287C26.1898 8.08687 26.3615 7.56581 26.7687 7.56581H27.6731C27.9067 7.56581 28.0967 7.75555 28.0967 7.98876C28.0967 8.66831 28.6476 9.21923 29.3271 9.21923C30.0065 9.21923 30.5574 8.66831 30.5574 7.98876C30.5574 6.66929 29.6661 5.55465 28.4541 5.21323V5.15401C28.4541 4.47446 27.9032 3.92354 27.2237 3.92354C26.5442 3.92354 25.9933 4.47446 25.9933 5.15401V5.21159C24.7784 5.55112 23.8843 6.66716 23.8843 7.98876C23.8844 8.8989 24.3213 9.76548 25.0531 10.307Z" fill="#033603" stroke="#F8F8F8" stroke-width="0.5"/>
<path d="M27.2238 20.7797C32.9543 20.7797 37.6163 16.1189 37.6163 10.3898C37.6163 4.66077 32.9542 0 27.2238 0C21.4933 0 16.8312 4.66085 16.8312 10.3899C16.8312 16.119 21.4933 20.7797 27.2238 20.7797ZM27.2238 2.46094C31.5974 2.46094 35.1555 6.01789 35.1555 10.3899C35.1555 14.7619 31.5974 18.3189 27.2238 18.3189C22.8503 18.3189 19.2921 14.7619 19.2921 10.3899C19.2921 6.01789 22.8503 2.46094 27.2238 2.46094Z" fill="#033603" stroke="#F8F8F8" stroke-width="0.5"/>
<path d="M41.1539 23.5582C39.8231 21.8449 37.4206 21.5226 35.6912 22.7224L31.0096 25.8544C30.359 24.6431 29.0798 23.8174 27.6111 23.8174H24.2715C22.5857 22.2363 20.3352 21.3386 18.0139 21.3386C16.2716 21.3386 14.5768 21.8308 13.1128 22.762C11.7936 23.6011 10.7146 24.7602 9.9731 26.1287L9.34622 26.512L9.18379 26.037C8.96395 25.3941 8.26472 25.0509 7.62176 25.2706L0.83293 27.5904C0.190215 27.81 -0.153332 28.5098 0.0665118 29.1528L4.17406 41.1673C4.39399 41.8106 5.09347 42.1531 5.7361 41.9336L12.5249 39.614C13.1312 39.4068 13.5284 38.7451 13.2777 38.0118L24.0502 37.6783C26.9838 37.6744 29.7972 36.7734 32.1869 35.0725L40.3106 29.2941C42.1731 27.9684 42.5576 25.3641 41.1539 23.5582ZM6.10459 39.2071L2.79315 29.5212L7.25327 27.9973C7.73373 29.4026 10.0688 36.2326 10.5647 37.6832L6.10459 39.2071ZM38.884 27.2888L30.7603 33.0673C28.7841 34.4739 26.457 35.2173 24.0306 35.2173C24.018 35.2173 24.0052 35.2175 23.9926 35.2179L12.4448 35.5753L10.1619 28.8977L11.5494 28.0492C11.5497 28.049 11.55 28.0488 11.5503 28.0485C11.7546 27.9235 11.9143 27.74 12.0117 27.5414C13.1442 25.2333 15.4441 23.7994 18.0139 23.7994C19.8709 23.7994 21.5957 24.5428 22.8705 25.8927C23.1053 26.1415 23.4426 26.278 23.7651 26.278H27.6111C28.3798 26.278 29.0053 26.9031 29.0053 27.6715C29.0053 28.4319 28.3903 29.065 27.6111 29.065H20.6688C19.9893 29.065 19.4384 29.6159 19.4384 30.2954C19.4384 30.975 19.9894 31.5259 20.6688 31.5259H27.6111C28.6416 31.5259 29.6098 31.1246 30.3365 30.3968C30.845 29.8886 31.1934 29.2633 31.3577 28.5821L37.0688 24.7614C37.0757 24.7568 37.0825 24.7521 37.0894 24.7473C37.7628 24.2769 38.6957 24.4049 39.2108 25.068C39.7539 25.7669 39.6054 26.7754 38.884 27.2888Z" fill="#033603" stroke="#F8F8F8" stroke-width="0.5"/>
</g>
<defs>
<clipPath id="clip0">
<rect width="42" height="42" fill="white"/>
</clipPath>
</defs>
</svg>
