<svg width="42" height="42" viewBox="0 0 42 42" fill="none" xmlns="http://www.w3.org/2000/svg">
<path d="M36.4547 30.6897C36.2422 30.7999 36.0387 30.9086 35.8419 31.0159C34.9291 30.2795 33.2845 29.575 31.4507 30.5257C29.0426 31.7747 27.6645 32.8429 26.9538 33.4887L25.2583 33.3309L22.1448 30.8401C23.0132 31.078 23.9025 31.3082 24.6778 31.4805C25.0397 31.563 25.4095 31.6057 25.7807 31.6077C26.5495 31.6171 27.3027 31.39 27.9381 30.9571C29.6254 29.807 29.9985 27.5395 30.0135 27.4436C30.0447 27.2451 30.0019 27.0421 29.8933 26.8731C29.7848 26.7041 29.618 26.5807 29.4245 26.5265L18.5964 23.4914C18.5243 23.4712 18.4498 23.4609 18.375 23.4609H1.3125C1.09494 23.4609 0.88629 23.5474 0.732451 23.7012C0.578613 23.855 0.492188 24.0637 0.492188 24.2812C0.492188 24.4988 0.578613 24.7075 0.732451 24.8613C0.88629 25.0151 1.09494 25.1016 1.3125 25.1016H18.2622L28.2014 27.8876C28.0084 28.4356 27.6454 29.1743 27.0081 29.6055C26.4748 29.9664 25.829 30.0557 25.0334 29.8789C22.5358 29.324 18.6605 28.1049 18.6217 28.0927C17.7603 27.8287 17.1642 28.9476 17.8626 29.5156L24.4251 34.7656C24.5502 34.8657 24.702 34.927 24.8615 34.9418L27.1674 35.1563L31.9162 35.598C32.0509 35.6115 32.1868 35.591 32.3115 35.5384C32.4362 35.4858 32.5457 35.4027 32.6299 35.2967C32.641 35.2832 33.7778 33.9254 37.2092 32.1462C37.5575 31.9536 37.9511 31.8581 38.349 31.8698C38.7468 31.8815 39.1342 31.9999 39.4706 32.2127L33.7625 37.9208L24.4207 38.5435L12.1308 33.3689C12.03 33.3265 11.9218 33.3047 11.8125 33.3047H1.3125C1.09494 33.3047 0.88629 33.3911 0.732451 33.545C0.578613 33.6988 0.492188 33.9074 0.492188 34.125C0.492188 34.3426 0.578613 34.5512 0.732451 34.705C0.88629 34.8589 1.09494 34.9453 1.3125 34.9453H11.6468L23.963 40.1311C24.0637 40.1735 24.1719 40.1953 24.2812 40.1953C24.2995 40.1953 24.3176 40.1947 24.3358 40.1935L34.1796 39.5373C34.3778 39.524 34.5645 39.4393 34.705 39.2988L41.2675 32.7363C41.4144 32.5894 41.5001 32.3924 41.5073 32.1848C41.5145 31.9772 41.4428 31.7747 41.3065 31.618C40.5926 30.797 38.6596 29.5464 36.4547 30.6897ZM31.669 33.9273L29.3194 33.7088C30.2417 33.0694 31.2059 32.4926 32.2055 31.9822C33.0387 31.55 33.7568 31.6913 34.2664 31.9399C32.8757 32.8216 32.0688 33.5313 31.669 33.9273Z" fill="#033603"/>
<path d="M27.5625 19.1953C29.2823 19.1953 30.9634 18.6853 32.3933 17.7299C33.8233 16.7744 34.9378 15.4164 35.5959 13.8276C36.254 12.2387 36.4262 10.4904 36.0907 8.80363C35.7552 7.11691 34.9271 5.56755 33.711 4.35149C32.4949 3.13543 30.9456 2.30728 29.2589 1.97177C27.5721 1.63626 25.8238 1.80846 24.2349 2.46658C22.6461 3.12471 21.2881 4.23921 20.3326 5.66915C19.3772 7.09908 18.8672 8.78023 18.8672 10.5C18.8698 12.8053 19.7867 15.0155 21.4169 16.6456C23.047 18.2758 25.2572 19.1927 27.5625 19.1953ZM27.5625 3.44532C28.9578 3.44532 30.3217 3.85907 31.4819 4.63425C32.642 5.40942 33.5462 6.51122 34.0802 7.80029C34.6141 9.08937 34.7538 10.5078 34.4816 11.8763C34.2094 13.2448 33.5375 14.5018 32.5509 15.4884C31.5643 16.475 30.3073 17.1469 28.9388 17.4191C27.5703 17.6913 26.1519 17.5516 24.8628 17.0177C23.5737 16.4837 22.4719 15.5795 21.6967 14.4194C20.9216 13.2592 20.5078 11.8953 20.5078 10.5C20.51 8.62965 21.2539 6.83652 22.5765 5.51398C23.899 4.19144 25.6921 3.44749 27.5625 3.44532Z" fill="#033603"/>
<path d="M26.8242 11.3203H28.2187C28.5232 11.3206 28.8151 11.4417 29.0305 11.657C29.2458 11.8723 29.3669 12.1643 29.3672 12.4688V12.5508C29.3669 12.8553 29.2458 13.1472 29.0305 13.3625C28.8151 13.5778 28.5232 13.6989 28.2187 13.6992H26.1508C26.0908 13.6992 26.0314 13.6873 25.976 13.664C25.9206 13.6408 25.8705 13.6068 25.8284 13.564C25.7863 13.5211 25.7532 13.4703 25.731 13.4146C25.7088 13.3588 25.698 13.2991 25.6991 13.2391L25.7006 13.154C25.7045 12.9364 25.6218 12.7262 25.4708 12.5696C25.3197 12.413 25.1126 12.3229 24.895 12.319C24.6774 12.3151 24.4672 12.3978 24.3107 12.5488C24.1541 12.6999 24.0639 12.907 24.06 13.1246L24.0585 13.2096C24.0534 13.4875 24.1039 13.7637 24.2068 14.0219C24.3097 14.2801 24.463 14.5153 24.6578 14.7136C24.8526 14.9119 25.0849 15.0695 25.3413 15.177C25.5976 15.2845 25.8728 15.3399 26.1508 15.3398H26.7422V15.832C26.7422 16.0496 26.8286 16.2582 26.9824 16.4121C27.1363 16.5659 27.3449 16.6523 27.5625 16.6523C27.7801 16.6523 27.9887 16.5659 28.1425 16.4121C28.2964 16.2582 28.3828 16.0496 28.3828 15.832V15.3347C29.0925 15.292 29.7593 14.9803 30.2471 14.463C30.7348 13.9457 31.0069 13.2618 31.0078 12.5508V12.4688C31.007 11.7293 30.7129 11.0204 30.19 10.4975C29.6671 9.97462 28.9582 9.68051 28.2187 9.67969H26.8242C26.5196 9.67969 26.2275 9.55869 26.0121 9.34332C25.7968 9.12794 25.6758 8.83583 25.6758 8.53125C25.6758 8.22667 25.7968 7.93456 26.0121 7.71918C26.2275 7.50381 26.5196 7.38281 26.8242 7.38281H28.8595C28.9204 7.38285 28.9807 7.39521 29.0368 7.41915C29.0928 7.4431 29.1434 7.47814 29.1856 7.52216C29.2277 7.56618 29.2606 7.61827 29.282 7.6753C29.3035 7.73232 29.3133 7.79311 29.3107 7.854C29.3013 8.07136 29.3787 8.28354 29.5258 8.44386C29.6728 8.60417 29.8776 8.69949 30.095 8.70885C30.3123 8.7182 30.5245 8.64083 30.6848 8.49374C30.8451 8.34666 30.9405 8.14191 30.9498 7.92455C30.9619 7.64247 30.9169 7.36086 30.8173 7.09666C30.7177 6.83247 30.5657 6.59116 30.3704 6.38726C30.1751 6.18337 29.9406 6.0211 29.6809 5.91024C29.4212 5.79938 29.1418 5.74221 28.8595 5.74219H28.3828V5.25C28.3828 5.03244 28.2964 4.82379 28.1425 4.66995C27.9887 4.51611 27.7801 4.42969 27.5625 4.42969C27.3449 4.42969 27.1363 4.51611 26.9824 4.66995C26.8286 4.82379 26.7422 5.03244 26.7422 5.25V5.74424C26.0102 5.76599 25.3161 6.07484 24.8098 6.60406C24.3036 7.13328 24.0259 7.84041 24.0367 8.57268C24.0474 9.30496 24.3458 10.0036 24.8674 10.5177C25.389 11.0318 26.0919 11.3201 26.8242 11.3203Z" fill="#033603"/>
<path d="M36.0175 23.045C35.8635 22.8922 35.6552 22.8068 35.4382 22.8072C35.2213 22.8077 35.0134 22.8941 34.86 23.0475C34.7066 23.2009 34.6202 23.4088 34.6197 23.6257C34.6192 23.8427 34.7047 24.051 34.8574 24.205L37.4825 26.83C37.6363 26.9839 37.8449 27.0703 38.0625 27.0703C38.2801 27.0703 38.4887 26.9839 38.6425 26.83L41.2675 24.205C41.4203 24.051 41.5057 23.8427 41.5053 23.6257C41.5048 23.4088 41.4184 23.2009 41.265 23.0475C41.1116 22.8941 40.9037 22.8077 40.6868 22.8072C40.4698 22.8068 40.2615 22.8922 40.1075 23.045L38.8828 24.2695V19.6875C38.8828 19.4699 38.7964 19.2613 38.6425 19.1075C38.4887 18.9536 38.2801 18.8672 38.0625 18.8672C37.8449 18.8672 37.6363 18.9536 37.4824 19.1075C37.3286 19.2613 37.2422 19.4699 37.2422 19.6875V24.2695L36.0175 23.045Z" fill="#033603"/>
<path d="M38.0625 17.2266C38.2801 17.2266 38.4887 17.1401 38.6425 16.9863C38.7964 16.8325 38.8828 16.6238 38.8828 16.4062V15.75C38.8828 15.5324 38.7964 15.3238 38.6425 15.17C38.4887 15.0161 38.2801 14.9297 38.0625 14.9297C37.8449 14.9297 37.6363 15.0161 37.4825 15.17C37.3286 15.3238 37.2422 15.5324 37.2422 15.75V16.4062C37.2422 16.6238 37.3286 16.8325 37.4825 16.9863C37.6363 17.1401 37.8449 17.2266 38.0625 17.2266Z" fill="#033603"/>
<path d="M12.5449 12.3925C12.6988 12.5464 12.9074 12.6328 13.125 12.6328C13.3426 12.6328 13.5512 12.5464 13.705 12.3925L16.33 9.76754C16.4828 9.61347 16.5682 9.40518 16.5678 9.18824C16.5673 8.97131 16.4809 8.76339 16.3275 8.60999C16.1741 8.45659 15.9662 8.3702 15.7492 8.36973C15.5323 8.36925 15.324 8.45473 15.1699 8.60746L13.9453 9.83202V5.25C13.9453 5.03244 13.8589 4.82379 13.705 4.66995C13.5512 4.51611 13.3426 4.42969 13.125 4.42969C12.9074 4.42969 12.6988 4.51611 12.5449 4.66995C12.3911 4.82379 12.3047 5.03244 12.3047 5.25V9.83202L11.08 8.60746C10.926 8.45473 10.7177 8.36925 10.5007 8.36973C10.2838 8.3702 10.0759 8.45659 9.92248 8.60999C9.76909 8.76339 9.6827 8.97131 9.68222 9.18824C9.68175 9.40518 9.76722 9.61347 9.91995 9.76754L12.5449 12.3925Z" fill="#033603"/>
<path d="M13.125 2.78906C13.3426 2.78906 13.5512 2.70264 13.705 2.5488C13.8589 2.39496 13.9453 2.18631 13.9453 1.96875V1.3125C13.9453 1.09494 13.8589 0.88629 13.705 0.732451C13.5512 0.578613 13.3426 0.492188 13.125 0.492188C12.9074 0.492188 12.6988 0.578613 12.545 0.732451C12.3911 0.88629 12.3047 1.09494 12.3047 1.3125V1.96875C12.3047 2.18631 12.3911 2.39496 12.545 2.5488C12.6988 2.70264 12.9074 2.78906 13.125 2.78906Z" fill="#033603"/>
<path d="M4.66995 20.2675C4.82379 20.4214 5.03243 20.5078 5.24999 20.5078C5.46755 20.5078 5.6762 20.4214 5.83004 20.2675L8.45504 17.6425C8.60776 17.4885 8.69324 17.2802 8.69276 17.0632C8.69229 16.8463 8.6059 16.6384 8.4525 16.485C8.2991 16.3316 8.09119 16.2452 7.87425 16.2447C7.65731 16.2443 7.44902 16.3297 7.29495 16.4825L6.07031 17.707V13.125C6.07031 12.9074 5.98388 12.6988 5.83004 12.545C5.6762 12.3911 5.46755 12.3047 5.24999 12.3047C5.03243 12.3047 4.82378 12.3911 4.66994 12.545C4.51611 12.6988 4.42968 12.9074 4.42968 13.125V17.707L3.20504 16.4825C3.05097 16.3297 2.84267 16.2443 2.62574 16.2447C2.4088 16.2452 2.20088 16.3316 2.04748 16.485C1.89409 16.6384 1.8077 16.8463 1.80722 17.0632C1.80675 17.2802 1.89222 17.4885 2.04495 17.6425L4.66995 20.2675Z" fill="#033603"/>
<path d="M5.25 10.6641C5.46756 10.6641 5.67621 10.5776 5.83005 10.4238C5.98389 10.27 6.07031 10.0613 6.07031 9.84375V9.1875C6.07031 8.96994 5.98389 8.76129 5.83005 8.60745C5.67621 8.45361 5.46756 8.36719 5.25 8.36719C5.03244 8.36719 4.82379 8.45361 4.66995 8.60745C4.51611 8.76129 4.42969 8.96994 4.42969 9.1875V9.84375C4.42969 10.0613 4.51611 10.27 4.66995 10.4238C4.82379 10.5776 5.03244 10.6641 5.25 10.6641Z" fill="#033603"/>
</svg>
