<svg width="108" height="85" viewBox="0 0 108 85" fill="none" xmlns="http://www.w3.org/2000/svg">
<g opacity="0.3">
<path d="M103.888 77.6765H97.623V36.2414C97.623 34.5255 96.2297 33.1344 94.5109 33.1344H77.3272C75.6084 33.1344 74.215 34.5255 74.215 36.2414V77.6765H65.7041V23.9317C65.7041 22.2158 64.3107 20.8247 62.5919 20.8247H45.4083C43.6895 20.8247 42.2961 22.2158 42.2961 23.9317V77.6765H33.7852V32.9534C33.7852 31.2375 32.3918 29.8464 30.673 29.8464H13.4891C11.7703 29.8464 10.377 31.2375 10.377 32.9534V77.6765H4.11219C2.39339 77.6765 1 79.0676 1 80.7835C1 82.4994 2.39339 83.8905 4.11219 83.8905H103.888C105.607 83.8905 107 82.4994 107 80.7835C107 79.0676 105.607 77.6765 103.888 77.6765ZM16.6013 77.6765V36.0604H27.5608V77.6765H16.6013ZM48.5203 77.6765V27.0387H59.4797V77.6765H48.5203ZM80.4394 77.6765V39.3485H91.3989V77.6765H80.4394Z" fill="#dbf1dc" stroke="#F8F8F8" stroke-width="0.5"/>
<path d="M104.726 12.8229C104.829 11.5244 104.072 9.92983 102.339 9.52654L92.3001 7.0865C90.6321 6.6799 88.9524 7.70418 88.5473 9.37161C88.1419 11.039 89.165 12.7193 90.8324 13.1245L93.6718 13.8146L85.623 18.7815L55.1047 1.4071C54.2272 0.907282 53.1609 0.865234 52.2475 1.29462L21.9119 15.5334L7.4102 6.48312C5.95467 5.57401 4.03805 6.01811 3.12936 7.47385C2.22087 8.92938 2.66455 10.846 4.12029 11.7547L20.0563 21.7002C20.9505 22.2585 22.067 22.3251 23.0215 21.8771L53.4298 7.60393L84.1498 25.0933C84.9492 25.5125 86.0633 25.7298 87.3188 25.0372L97.0758 19.016L96.426 22.0592C95.711 26.1072 101.441 27.2568 102.503 23.3571L104.657 13.2709C104.681 13.1296 104.69 13.1495 104.726 12.8229Z" fill="#dbf1dc" stroke="#F8F8F8" stroke-width="0.5"/>
</g>
</svg>
