<svg width="99" height="99" viewBox="0 0 99 99" fill="none" xmlns="http://www.w3.org/2000/svg">
<path d="M44.8064 63.5806H41.6774V66.7096H38.5484V76.0967H44.8064V79.2257H38.5484V82.3548H41.6774V85.4838H44.8064V82.3548H47.9355V72.9677H41.6774V69.8386H47.9355V66.7096H44.8064V63.5806Z" fill="#DBF1DC" fill-opacity="0.3" stroke="#F4FBF5" stroke-width="0.5"/>
<path d="M79.2258 91.7419V57.3225H7.25806V91.7419H79.2258ZM71.6254 88.6128C72.1949 86.4241 73.908 84.7094 76.0968 84.1414V88.6128H71.6254ZM76.0968 64.9229C73.908 64.3534 72.1933 62.6403 71.6254 60.4515H76.0968V64.9229ZM68.415 60.4515C69.0768 64.3738 72.1745 67.47 76.0968 68.1333V80.9326C72.1745 81.5944 69.0784 84.6922 68.415 88.6144H53.1046C57.54 85.4963 60.4516 80.3522 60.4516 74.5322C60.4516 68.7122 57.54 63.5681 53.1062 60.4515H68.415ZM43.2419 88.6128C35.4772 88.6128 29.1613 82.2969 29.1613 74.5322C29.1613 66.7675 35.4772 60.4515 43.2419 60.4515C51.0066 60.4515 57.3226 66.7675 57.3226 74.5322C57.3226 82.2969 51.0066 88.6128 43.2419 88.6128ZM14.8585 60.4515C14.2906 62.6403 12.5758 64.355 10.3871 64.9229V60.4515H14.8585ZM10.3871 84.1414C12.5758 84.7094 14.2906 86.4241 14.8585 88.6128H10.3871V84.1414ZM18.0689 88.6128C17.4071 84.6906 14.3093 81.5944 10.3871 80.9311V68.1333C14.3093 67.4715 17.4055 64.3738 18.0689 60.4515H33.3792C28.9438 63.5681 26.0323 68.7122 26.0323 74.5322C26.0323 80.3522 28.9438 85.4963 33.3777 88.6128H18.0689Z" fill="#DBF1DC" fill-opacity="0.3" stroke="#F4FBF5" stroke-width="0.5"/>
<path d="M94.871 1H38.5484C36.8227 1 35.4194 2.40337 35.4194 4.12903V44.8065H22.9032V35.4194H16.6452C13.1938 35.4194 10.3871 38.2261 10.3871 41.6774V51.0645H1V98H85.4839V91.7419H91.7419V57.3226H94.871C96.5966 57.3226 98 55.9192 98 54.1936V4.12903C98 2.40337 96.5966 1 94.871 1ZM62.0161 4.12903H71.4032V11.3039L69.8387 9.73939L66.7097 12.8684L63.5806 9.73939L62.0161 11.3039V4.12903ZM38.5484 4.12903H58.8871V18.8574L63.5806 14.1638L66.7097 17.2929L69.8387 14.1638L74.5323 18.8574V4.12903H94.871V26.0323H69.8387V44.8065H38.5484V4.12903ZM16.6452 38.5484H19.7742V44.8065H16.6452C14.9195 44.8065 13.5161 43.4031 13.5161 41.6774C13.5161 39.9518 14.9195 38.5484 16.6452 38.5484ZM82.3548 94.871H4.12903V54.1936H82.3548V94.871ZM88.6129 88.6129H85.4839V51.0645H13.5161V47.0656C14.4408 47.6038 15.4999 47.9355 16.6452 47.9355H88.6129V88.6129ZM91.7419 54.1936V44.8065H72.9677V29.1613H94.871V54.1936H91.7419Z" fill="#DBF1DC" fill-opacity="0.3" stroke="#F4FBF5" stroke-width="0.5"/>
<path d="M76.0968 38.5483H91.7419V41.6774H76.0968V38.5483Z" fill="#DBF1DC" fill-opacity="0.3" stroke="#F4FBF5" stroke-width="0.5"/>
<path d="M76.0968 32.2905H79.2258V35.4196H76.0968V32.2905Z" fill="#DBF1DC" fill-opacity="0.3" stroke="#F4FBF5" stroke-width="0.5"/>
<path d="M82.3549 32.2905H91.742V35.4196H82.3549V32.2905Z" fill="#DBF1DC" fill-opacity="0.3" stroke="#F4FBF5" stroke-width="0.5"/>
</svg>
