<svg width="87" height="84" viewBox="0 0 87 84" fill="none" xmlns="http://www.w3.org/2000/svg">
<path d="M75.5076 63.7025C75.0665 63.9313 74.6439 64.1569 74.2353 64.3797C72.3398 62.8507 68.9251 61.3879 65.1173 63.362C60.1171 65.9555 57.2557 68.1733 55.78 69.5143L52.2594 69.1868L45.7945 64.0149C47.5976 64.5088 49.4442 64.9868 51.054 65.3445C51.8054 65.5159 52.5733 65.6045 53.3441 65.6087C54.9405 65.6283 56.5043 65.1567 57.8238 64.2578C61.3273 61.8696 62.1019 57.1615 62.1331 56.9622C62.1978 56.5501 62.109 56.1286 61.8836 55.7777C61.6581 55.4267 61.3118 55.1706 60.9101 55.0581L38.4265 48.7558C38.2769 48.7139 38.1222 48.6926 37.9668 48.6926H2.53802C2.08628 48.6926 1.65304 48.8721 1.33361 49.1915C1.01417 49.5109 0.834719 49.9442 0.834719 50.3959C0.834719 50.8477 1.01417 51.2809 1.33361 51.6004C1.65304 51.9198 2.08628 52.0992 2.53802 52.0992H37.7326L58.3705 57.8842C57.9697 59.022 57.216 60.5558 55.8925 61.4512C54.7854 62.2007 53.4444 62.386 51.7923 62.019C46.6063 60.8667 38.5595 58.3354 38.479 58.31C36.6905 57.7619 35.4527 60.0852 36.9027 61.2646L50.5292 72.1657C50.7891 72.3736 51.1041 72.5008 51.4355 72.5316L56.2233 72.977L66.0839 73.8942C66.3636 73.9223 66.6458 73.8797 66.9047 73.7704C67.1636 73.6611 67.3909 73.4886 67.5658 73.2686C67.5888 73.2405 69.9494 70.4212 77.0743 66.7269C77.7975 66.3268 78.6149 66.1285 79.441 66.1528C80.2671 66.1771 81.0714 66.423 81.7699 66.8649L69.9176 78.7171L50.5202 80.0103L25.0012 69.2657C24.792 69.1777 24.5673 69.1324 24.3403 69.1323H2.53802C2.08628 69.1323 1.65304 69.3117 1.33361 69.6312C1.01417 69.9506 0.834719 70.3839 0.834719 70.8356C0.834719 71.2873 1.01417 71.7206 1.33361 72.04C1.65304 72.3595 2.08628 72.5389 2.53802 72.5389H23.9963L49.5697 83.3067C49.7789 83.3947 50.0036 83.44 50.2306 83.4401C50.2684 83.4401 50.306 83.4387 50.3439 83.4363L70.7835 82.0737C71.1952 82.0462 71.5829 81.8703 71.8747 81.5785L85.5011 67.9521C85.806 67.6472 85.984 67.2379 85.999 66.807C86.014 66.376 85.865 65.9554 85.582 65.63C84.0996 63.9253 80.086 61.3286 75.5076 63.7025ZM65.5706 70.4251L60.6918 69.9713C62.607 68.6437 64.6091 67.446 66.6845 66.3862C68.4147 65.4888 69.9058 65.7822 70.9639 66.2985C68.0763 68.1292 66.4008 69.6029 65.5706 70.4251Z" fill="#DBF1DC" fill-opacity="0.3" stroke="#F5FBF5" stroke-width="0.5"/>
<path d="M57.0438 39.8354C60.6148 39.8354 64.1055 38.7765 67.0747 36.7926C70.0438 34.8087 72.358 31.9889 73.7245 28.6898C75.091 25.3906 75.4486 21.7604 74.7519 18.258C74.0553 14.7557 72.3357 11.5386 69.8107 9.01355C67.2856 6.48851 64.0685 4.76893 60.5662 4.07227C57.0638 3.37561 53.4336 3.73316 50.1344 5.09971C46.8353 6.46625 44.0155 8.78041 42.0316 11.7495C40.0477 14.7187 38.9888 18.2094 38.9888 21.7804C38.9942 26.5672 40.8981 31.1565 44.2829 34.5413C47.6678 37.9261 52.257 39.83 57.0438 39.8354ZM57.0438 7.13196C59.941 7.13196 62.7731 7.99108 65.182 9.60067C67.591 11.2103 69.4685 13.498 70.5772 16.1747C71.6859 18.8513 71.976 21.7966 71.4108 24.6382C70.8456 27.4797 69.4504 30.0898 67.4018 32.1384C65.3532 34.187 62.7431 35.5821 59.9016 36.1474C57.0601 36.7126 54.1148 36.4225 51.4381 35.3138C48.7615 34.2051 46.4737 32.3275 44.8641 29.9186C43.2545 27.5097 42.3954 24.6776 42.3954 21.7804C42.3999 17.8968 43.9447 14.1735 46.6908 11.4274C49.4369 8.68123 53.1602 7.13647 57.0438 7.13196Z" fill="#DBF1DC" fill-opacity="0.3" stroke="#F5FBF5" stroke-width="0.5"/>
<path d="M55.5108 23.4838H58.4064C59.0387 23.4845 59.6448 23.7359 60.0919 24.183C60.5389 24.63 60.7904 25.2362 60.7911 25.8684V26.0388C60.7904 26.671 60.5389 27.2771 60.0919 27.7242C59.6448 28.1713 59.0387 28.4227 58.4064 28.4234H54.1126C53.9879 28.4234 53.8645 28.3986 53.7496 28.3504C53.6346 28.3021 53.5304 28.2315 53.4431 28.1425C53.3558 28.0536 53.287 27.9481 53.2409 27.8323C53.1948 27.7165 53.1723 27.5926 53.1746 27.468L53.1778 27.2912C53.1859 26.8394 53.0142 26.403 52.7005 26.0778C52.3868 25.7527 51.9567 25.5655 51.505 25.5574C51.0532 25.5493 50.6168 25.721 50.2916 26.0347C49.9665 26.3484 49.7793 26.7785 49.7712 27.2302L49.768 27.4067C49.7576 27.9838 49.8622 28.5572 50.0759 29.0934C50.2896 29.6296 50.6079 30.1179 51.0124 30.5297C51.4169 30.9415 51.8994 31.2686 52.4316 31.4918C52.9639 31.7151 53.5354 31.83 54.1126 31.83H55.3405V32.852C55.3405 33.3037 55.52 33.737 55.8394 34.0564C56.1588 34.3758 56.5921 34.5553 57.0438 34.5553C57.4955 34.5553 57.9288 34.3758 58.2482 34.0564C58.5677 33.737 58.7471 33.3037 58.7471 32.852V31.8193C60.2208 31.7307 61.6052 31.0834 62.6181 30.0093C63.6309 28.9351 64.1958 27.5151 64.1977 26.0388V25.8684C64.196 24.333 63.5853 22.861 62.4996 21.7753C61.4139 20.6896 59.9419 20.0789 58.4064 20.0772H55.5108C54.8784 20.0772 54.2718 19.8259 53.8246 19.3787C53.3774 18.9315 53.1262 18.325 53.1262 17.6926C53.1262 17.0601 53.3774 16.4536 53.8246 16.0064C54.2718 15.5592 54.8784 15.3079 55.5108 15.3079H59.7369C59.8634 15.308 59.9887 15.3337 60.105 15.3834C60.2214 15.4331 60.3265 15.5059 60.414 15.5973C60.5015 15.6887 60.5697 15.7968 60.6143 15.9152C60.6589 16.0337 60.6791 16.1599 60.6737 16.2863C60.6543 16.7376 60.815 17.1782 61.1204 17.5111C61.4258 17.844 61.8509 18.0419 62.3023 18.0613C62.7536 18.0807 63.1942 17.9201 63.527 17.6147C63.8599 17.3093 64.0578 16.8841 64.0773 16.4328C64.1025 15.8471 64.0089 15.2623 63.8021 14.7138C63.5953 14.1652 63.2797 13.6641 62.8742 13.2408C62.4687 12.8174 61.9816 12.4805 61.4425 12.2503C60.9033 12.0201 60.3231 11.9014 59.7369 11.9013H58.7471V10.8793C58.7471 10.4276 58.5677 9.99434 58.2482 9.67491C57.9288 9.35548 57.4955 9.17603 57.0438 9.17603C56.5921 9.17603 56.1588 9.35548 55.8394 9.67491C55.52 9.99434 55.3405 10.4276 55.3405 10.8793V11.9056C53.8205 11.9507 52.3793 12.592 51.3281 13.6909C50.277 14.7898 49.7004 16.2581 49.7227 17.7786C49.7451 19.2991 50.3647 20.7498 51.4477 21.8173C52.5307 22.8847 53.9902 23.4834 55.5108 23.4838Z" fill="#DBF1DC" fill-opacity="0.3" stroke="#F5FBF5" stroke-width="0.5"/>
<path d="M74.6 47.8288C74.28 47.5117 73.8475 47.3342 73.3971 47.3352C72.9466 47.3362 72.5149 47.5156 72.1964 47.8341C71.8779 48.1526 71.6985 48.5843 71.6975 49.0348C71.6965 49.4852 71.874 49.9177 72.1911 50.2376L77.6417 55.6882C77.9611 56.0076 78.3944 56.1871 78.8461 56.1871C79.2979 56.1871 79.7311 56.0076 80.0505 55.6882L85.5011 50.2376C85.8182 49.9177 85.9957 49.4852 85.9947 49.0348C85.9937 48.5843 85.8144 48.1526 85.4958 47.8341C85.1773 47.5156 84.7456 47.3362 84.2952 47.3352C83.8447 47.3342 83.4122 47.5117 83.0923 47.8288L80.5494 50.3715V40.8574C80.5494 40.4056 80.37 39.9724 80.0505 39.6529C79.7311 39.3335 79.2979 39.1541 78.8461 39.1541C78.3944 39.1541 77.9611 39.3335 77.6417 39.6529C77.3223 39.9724 77.1428 40.4056 77.1428 40.8574V50.3715L74.6 47.8288Z" fill="#DBF1DC" fill-opacity="0.3" stroke="#F5FBF5" stroke-width="0.5"/>
<path d="M78.8461 35.7473C79.2979 35.7473 79.7311 35.5678 80.0505 35.2484C80.37 34.929 80.5494 34.4957 80.5494 34.044V32.6813C80.5494 32.2296 80.37 31.7963 80.0505 31.4769C79.7311 31.1575 79.2979 30.978 78.8461 30.978C78.3944 30.978 77.9611 31.1575 77.6417 31.4769C77.3223 31.7963 77.1428 32.2296 77.1428 32.6813V34.044C77.1428 34.4957 77.3223 34.929 77.6417 35.2484C77.9611 35.5678 78.3944 35.7473 78.8461 35.7473Z" fill="#DBF1DC" fill-opacity="0.3" stroke="#F5FBF5" stroke-width="0.5"/>
<path d="M25.8612 25.7102C26.1806 26.0296 26.6139 26.2091 27.0656 26.2091C27.5174 26.2091 27.9506 26.0296 28.27 25.7102L33.7206 20.2596C34.0377 19.9397 34.2152 19.5072 34.2142 19.0567C34.2132 18.6063 34.0339 18.1746 33.7153 17.8561C33.3968 17.5375 32.9651 17.3582 32.5147 17.3572C32.0642 17.3562 31.6317 17.5337 31.3118 17.8508L28.7689 20.3935V10.8793C28.7689 10.4276 28.5895 9.99434 28.27 9.67491C27.9506 9.35548 27.5174 9.17603 27.0656 9.17603C26.6139 9.17603 26.1806 9.35548 25.8612 9.67491C25.5418 9.99434 25.3623 10.4276 25.3623 10.8793V20.3935L22.8195 17.8508C22.4995 17.5337 22.067 17.3562 21.6166 17.3572C21.1661 17.3582 20.7344 17.5375 20.4159 17.8561C20.0974 18.1746 19.918 18.6063 19.917 19.0567C19.916 19.5072 20.0935 19.9397 20.4106 20.2596L25.8612 25.7102Z" fill="#DBF1DC" fill-opacity="0.3" stroke="#F5FBF5" stroke-width="0.5"/>
<path d="M27.0656 5.76926C27.5174 5.76926 27.9506 5.5898 28.27 5.27037C28.5895 4.95094 28.7689 4.51769 28.7689 4.06595V2.70331C28.7689 2.25156 28.5895 1.81832 28.27 1.49889C27.9506 1.17945 27.5174 1 27.0656 1C26.6139 1 26.1806 1.17945 25.8612 1.49889C25.5418 1.81832 25.3623 2.25156 25.3623 2.70331V4.06595C25.3623 4.51769 25.5418 4.95094 25.8612 5.27037C26.1806 5.5898 26.6139 5.76926 27.0656 5.76926Z" fill="#DBF1DC" fill-opacity="0.3" stroke="#F5FBF5" stroke-width="0.5"/>
<path d="M9.50949 42.0617C9.82892 42.3812 10.2622 42.5606 10.7139 42.5606C11.1656 42.5606 11.5989 42.3812 11.9183 42.0617L17.3689 36.6112C17.686 36.2913 17.8635 35.8588 17.8625 35.4083C17.8615 34.9579 17.6821 34.5261 17.3636 34.2076C17.0451 33.8891 16.6134 33.7097 16.1629 33.7087C15.7125 33.7077 15.28 33.8852 14.9601 34.2024L12.4172 36.745V27.2309C12.4172 26.7791 12.2377 26.3459 11.9183 26.0265C11.5989 25.707 11.1656 25.5276 10.7139 25.5276C10.2621 25.5276 9.82891 25.707 9.50947 26.0265C9.19004 26.3459 9.01059 26.7791 9.01059 27.2309V36.745L6.46772 34.2024C6.14781 33.8852 5.71531 33.7077 5.26486 33.7087C4.81441 33.7097 4.38269 33.8891 4.06417 34.2076C3.74565 34.5261 3.56628 34.9579 3.56529 35.4083C3.5643 35.8588 3.74179 36.2913 4.05891 36.6112L9.50949 42.0617Z" fill="#DBF1DC" fill-opacity="0.3" stroke="#F5FBF5" stroke-width="0.5"/>
<path d="M10.7139 22.1208C11.1656 22.1208 11.5989 21.9414 11.9183 21.6219C12.2377 21.3025 12.4172 20.8693 12.4172 20.4175V19.0549C12.4172 18.6031 12.2377 18.1699 11.9183 17.8504C11.5989 17.531 11.1656 17.3516 10.7139 17.3516C10.2621 17.3516 9.8289 17.531 9.50947 17.8504C9.19004 18.1699 9.01059 18.6031 9.01059 19.0549V20.4175C9.01059 20.8693 9.19004 21.3025 9.50947 21.6219C9.8289 21.9414 10.2621 22.1208 10.7139 22.1208Z" fill="#DBF1DC" fill-opacity="0.3" stroke="#F5FBF5" stroke-width="0.5"/>
</svg>
