<svg width="42" height="42" viewBox="0 0 42 42" fill="none" xmlns="http://www.w3.org/2000/svg">
<g clip-path="url(#clip0)">
<path d="M40.7669 34.9595H38.2846V18.5419C38.2846 17.862 37.7325 17.3108 37.0515 17.3108H30.2429C29.5618 17.3108 29.0097 17.862 29.0097 18.5419V34.9595H25.6375V13.6644C25.6375 12.9845 25.0854 12.4333 24.4043 12.4333H17.5957C16.9147 12.4333 16.3626 12.9845 16.3626 13.6644V34.9595H12.9904V17.239C12.9904 16.5592 12.4383 16.008 11.7572 16.008H4.94853C4.2675 16.008 3.7154 16.5592 3.7154 17.239V34.9595H1.23313C0.552098 34.9595 0 35.5107 0 36.1906C0 36.8705 0.552098 37.4217 1.23313 37.4217H40.7669C41.4479 37.4217 42 36.8705 42 36.1906C42 35.5107 41.4479 34.9595 40.7669 34.9595ZM6.18166 34.9595V18.4701H10.5241V34.9595H6.18166ZM18.8288 34.9595V14.8955H23.1712V34.9595H18.8288ZM31.476 34.9595V19.7729H35.8184V34.9595H31.476Z" fill="#033603" stroke="#F8F8F8" stroke-width="0.5"/>
<path d="M41.0989 9.2628C41.1397 8.74829 40.8398 8.1165 40.1532 7.9567L36.1755 6.9899C35.5146 6.82879 34.8491 7.23463 34.6886 7.89531C34.5279 8.55599 34.9333 9.22176 35.594 9.38229L36.719 9.65576L33.5299 11.6238L21.4377 4.73956C21.09 4.54152 20.6675 4.52486 20.3056 4.695L8.28584 10.3368L2.5399 6.75082C1.96318 6.39061 1.20376 6.56657 0.843714 7.14337C0.483746 7.72009 0.659544 8.4795 1.23635 8.83955L7.55063 12.7802C7.90494 13.0014 8.34731 13.0279 8.7255 12.8503L20.7741 7.19491L32.9462 14.1247C33.2629 14.2908 33.7043 14.3769 34.2018 14.1024L38.0678 11.7167L37.8103 12.9225C37.527 14.5264 39.7975 14.9819 40.2182 13.4367L41.0715 9.44032C41.0812 9.38435 41.0848 9.39222 41.0989 9.2628Z" fill="#033603" stroke="#F8F8F8" stroke-width="0.5"/>
</g>
<defs>
<clipPath id="clip0">
<rect width="42" height="42" fill="white"/>
</clipPath>
</defs>
</svg>
