<svg width="42" height="42" viewBox="0 0 42 42" fill="none" xmlns="http://www.w3.org/2000/svg">
<path d="M19.0312 26.9062H17.7188V28.2188H16.4062V32.1562H19.0312V33.4688H16.4062V34.7812H17.7188V36.0938H19.0312V34.7812H20.3438V30.8438H17.7188V29.5312H20.3438V28.2188H19.0312V26.9062Z" fill="#033603"/>
<path d="M33.4688 38.7188V24.2812H3.28125V38.7188H33.4688ZM30.2807 37.4062C30.5196 36.4882 31.2382 35.7689 32.1562 35.5307V37.4062H30.2807ZM32.1562 27.4693C31.2382 27.2304 30.5189 26.5118 30.2807 25.5938H32.1562V27.4693ZM28.9341 25.5938C29.2117 27.239 30.511 28.5377 32.1562 28.8159V34.1847C30.511 34.4623 29.2123 35.7617 28.9341 37.4069H22.512C24.3725 36.099 25.5938 33.9412 25.5938 31.5C25.5938 29.0588 24.3725 26.901 22.5127 25.5938H28.9341ZM18.375 37.4062C15.118 37.4062 12.4688 34.757 12.4688 31.5C12.4688 28.243 15.118 25.5938 18.375 25.5938C21.632 25.5938 24.2812 28.243 24.2812 31.5C24.2812 34.757 21.632 37.4062 18.375 37.4062ZM6.46931 25.5938C6.23109 26.5118 5.51184 27.2311 4.59375 27.4693V25.5938H6.46931ZM4.59375 35.5307C5.51184 35.7689 6.23109 36.4882 6.46931 37.4062H4.59375V35.5307ZM7.81594 37.4062C7.53834 35.761 6.23897 34.4623 4.59375 34.1841V28.8159C6.23897 28.5383 7.53769 27.239 7.81594 25.5938H14.238C12.3775 26.901 11.1562 29.0588 11.1562 31.5C11.1562 33.9412 12.3775 36.099 14.2373 37.4062H7.81594Z" fill="#033603"/>
<path d="M40.0312 0.65625H16.4062C15.6824 0.65625 15.0938 1.24491 15.0938 1.96875V19.0312H9.84375V15.0938H7.21875C5.77106 15.0938 4.59375 16.2711 4.59375 17.7188V21.6562H0.65625V41.3438H36.0938V38.7188H38.7188V24.2812H40.0312C40.7551 24.2812 41.3438 23.6926 41.3438 22.9688V1.96875C41.3438 1.24491 40.7551 0.65625 40.0312 0.65625ZM26.25 1.96875H30.1875V4.97831L29.5312 4.32206L28.2188 5.63456L26.9062 4.32206L26.25 4.97831V1.96875ZM16.4062 1.96875H24.9375V8.14669L26.9062 6.17794L28.2188 7.49044L29.5312 6.17794L31.5 8.14669V1.96875H40.0312V11.1562H29.5312V19.0312H16.4062V1.96875ZM7.21875 16.4062H8.53125V19.0312H7.21875C6.49491 19.0312 5.90625 18.4426 5.90625 17.7188C5.90625 16.9949 6.49491 16.4062 7.21875 16.4062ZM34.7812 40.0312H1.96875V22.9688H34.7812V40.0312ZM37.4062 37.4062H36.0938V21.6562H5.90625V19.9789C6.29409 20.2046 6.73838 20.3438 7.21875 20.3438H37.4062V37.4062ZM38.7188 22.9688V19.0312H30.8438V12.4688H40.0312V22.9688H38.7188Z" fill="#033603"/>
<path d="M32.1562 16.4062H38.7188V17.7188H32.1562V16.4062Z" fill="#033603"/>
<path d="M32.1562 13.7812H33.4688V15.0938H32.1562V13.7812Z" fill="#033603"/>
<path d="M34.7812 13.7812H38.7188V15.0938H34.7812V13.7812Z" fill="#033603"/>
</svg>
