<svg width="42" height="42" viewBox="0 0 42 42" fill="none" xmlns="http://www.w3.org/2000/svg">
<path d="M12.4688 28.2187C12.8303 28.2187 13.125 28.5127 13.125 28.875H14.4375C14.4375 27.7895 13.5542 26.9062 12.4688 26.9062V25.5937H11.1562V26.9062H9.1875V28.875C9.1875 29.9604 10.0708 30.8437 11.1562 30.8437H12.4688C12.8303 30.8437 13.125 31.1377 13.125 31.5V32.1562H11.1562C10.7947 32.1562 10.5 31.8622 10.5 31.5H9.1875C9.1875 32.5854 10.0708 33.4687 11.1562 33.4687V34.7812H12.4688V33.4687H14.4375V31.5C14.4375 30.4145 13.5542 29.5312 12.4688 29.5312H11.1562C10.7947 29.5312 10.5 29.2372 10.5 28.875V28.2187H12.4688Z" fill="#033603"/>
<path d="M37.1798 17.7187C38.5875 15.5328 39.375 12.9524 39.375 10.227V3.28124H37.6707C35.11 3.28124 32.5979 2.39989 30.597 0.799957L30.1875 0.472488L29.7773 0.799957C27.7771 2.39989 25.265 3.28124 22.7043 3.28124H21V10.227C21 12.9524 21.7875 15.5328 23.1952 17.7187H15.9213L14.5976 8.89546C14.4539 7.93996 13.6172 7.21874 12.6512 7.21874H7.21875C6.13331 7.21874 5.25 8.10205 5.25 9.18749C5.25 10.2729 6.13331 11.1562 7.21875 11.1562H13.61L15.0721 20.9048C14.7617 20.7959 14.4473 20.6968 14.1278 20.62L13.5982 19.0312H10.0275L9.49791 20.6194C8.50369 20.8589 7.56131 21.25 6.68587 21.7855L5.187 21.0361L2.66175 23.5613L3.41184 25.0596C2.87569 25.935 2.48456 26.878 2.24569 27.8722L0.65625 28.4018V31.9725L2.24437 32.5021C2.48325 33.4963 2.87438 34.4393 3.41053 35.3148L2.66044 36.813L5.18569 39.3382L6.68456 38.5888C7.56 39.1243 8.50303 39.5154 9.49659 39.755L10.0268 41.3437H13.5975L14.1271 39.755C14.2492 39.7254 14.3666 39.6841 14.4874 39.6506C15.1994 40.6724 16.3813 41.3437 17.7188 41.3437C19.8903 41.3437 21.6562 39.5778 21.6562 37.4062C21.6562 36.3969 21.2717 35.4788 20.6456 34.7812H33.1669C32.5408 35.4788 32.1562 36.3969 32.1562 37.4062C32.1562 39.5778 33.9222 41.3437 36.0938 41.3437C38.2653 41.3437 40.0312 39.5778 40.0312 37.4062C40.0312 35.2347 38.2653 33.4687 36.0938 33.4687H18.2838L17.89 30.8437H37.0571C38.7089 30.8437 40.1087 29.608 40.3128 27.9694L41.3378 19.7689L41.3438 17.7187H37.1798ZM7.21875 9.84374C6.85716 9.84374 6.5625 9.54974 6.5625 9.18749C6.5625 8.82524 6.85716 8.53124 7.21875 8.53124H12.6512C12.9734 8.53124 13.2523 8.77143 13.3002 9.09036L13.4131 9.84374H7.21875ZM40.0312 19.6468L39.7799 21.6562H36.75V19.0312H40.0312V19.6468ZM14.2413 35.5641C13.4768 35.9106 12.6623 36.0937 11.8125 36.0937C8.55619 36.0937 5.90625 33.4445 5.90625 30.1875C5.90625 26.9305 8.55619 24.2812 11.8125 24.2812C13.3094 24.2812 14.7203 24.841 15.8143 25.8523L16.968 33.5422C15.7848 33.7719 14.7906 34.5319 14.2413 35.5641ZM16.7088 22.9687H19.6875V25.5937H17.1025L16.7088 22.9687ZM21 22.9687H23.625V25.5937H21V22.9687ZM35.4375 21.6562H33.3401C34.104 21.1371 34.8036 20.5478 35.4375 19.9014V21.6562ZM28.875 22.9687H31.5V25.5937H28.875V22.9687ZM27.5625 25.5937H24.9375V22.9687H27.5625V25.5937ZM24.9375 21.6562V19.9014C25.5721 20.5478 26.2717 21.1378 27.0349 21.6562H24.9375ZM23.625 21.6562H21V19.0312H23.625V21.6562ZM23.625 26.9062V29.5312H21V26.9062H23.625ZM24.9375 26.9062H27.5625V29.5312H24.9375V26.9062ZM28.875 26.9062H31.5V29.5312H28.875V26.9062ZM32.8125 26.9062H35.4375V29.5312H32.8125V26.9062ZM32.8125 25.5937V22.9687H35.4375V25.5937H32.8125ZM36.75 22.9687H39.6158L39.2877 25.5937H36.75V22.9687ZM22.3125 4.59374H22.7043C25.3897 4.59374 28.0271 3.72552 30.1875 2.13936C32.3479 3.72552 34.9853 4.59374 37.6707 4.59374H38.0625V10.227C38.0625 15.0025 35.4093 19.2957 31.1378 21.4318C30.5498 21.7251 29.8253 21.7251 29.2379 21.4318C24.9657 19.2957 22.3125 15.0025 22.3125 10.227V4.59374ZM19.6875 19.0312V21.6562H16.5119L16.1182 19.0312H19.6875ZM13.4932 38.5514L13.1204 38.6262L12.6518 40.0312H10.9725L10.5039 38.6255L10.1305 38.5514C9.04116 38.3335 8.01806 37.9089 7.08816 37.2894L6.77184 37.0781L5.44556 37.7416L4.25841 36.5544L4.92188 35.2288L4.71056 34.9118C4.09106 33.9826 3.66647 32.9582 3.44925 31.8695L3.37509 31.4954L1.96875 31.0268V29.3475L3.37444 28.8796L3.44859 28.5055C3.66647 27.4168 4.09106 26.3924 4.70991 25.4631L4.92188 25.1462L4.25841 23.8199L5.44556 22.6327L6.77184 23.2962L7.08881 23.0849C8.01872 22.4654 9.04181 22.0408 10.1312 21.8229L10.5046 21.7488L10.9732 20.3437H12.6525L13.1211 21.7488L13.4945 21.8236C14.1172 21.9483 14.719 22.1576 15.2998 22.4181L15.5387 24.0115C14.4237 23.3362 13.1473 22.9687 11.8125 22.9687C7.83234 22.9687 4.59375 26.2073 4.59375 30.1875C4.59375 34.1676 7.83234 37.4062 11.8125 37.4062C12.4937 37.4062 13.1552 37.3026 13.7957 37.1188C13.7891 37.214 13.7812 37.3091 13.7812 37.4062C13.7812 37.7632 13.8331 38.1071 13.9223 38.4359C13.7786 38.4726 13.6388 38.5225 13.4932 38.5514ZM20.3438 37.4062C20.3438 38.8539 19.1664 40.0312 17.7188 40.0312C16.2711 40.0312 15.0938 38.8539 15.0938 37.4062C15.0938 35.9585 16.2711 34.7812 17.7188 34.7812C19.1664 34.7812 20.3438 35.9585 20.3438 37.4062ZM38.7188 37.4062C38.7188 38.8539 37.5414 40.0312 36.0938 40.0312C34.6461 40.0312 33.4688 38.8539 33.4688 37.4062C33.4688 35.9585 34.6461 34.7812 36.0938 34.7812C37.5414 34.7812 38.7188 35.9585 38.7188 37.4062ZM17.2994 26.9062H19.6875V29.5312H17.6932L17.2994 26.9062ZM37.0578 29.5312H36.75V26.9062H39.1237L39.0108 27.8066C38.8887 28.7897 38.0487 29.5312 37.0578 29.5312Z" fill="#033603"/>
<path d="M29.8272 20.2597C29.9394 20.3149 30.0641 20.3437 30.1875 20.3437C30.3155 20.3437 30.4434 20.3129 30.5504 20.2578C34.3744 18.3454 36.75 14.5024 36.75 10.227V5.88785L36.1653 5.82354C34.186 5.60698 32.235 4.95335 30.5235 3.93354L30.1875 3.73338L29.8515 3.93354C28.14 4.95335 26.1883 5.60698 24.2097 5.82354L23.625 5.88785V10.227C23.625 14.5024 26.0006 18.3454 29.8272 20.2597ZM24.9375 7.0527C26.7724 6.77838 28.5698 6.16348 30.1875 5.25588C31.8052 6.16348 33.6026 6.77838 35.4375 7.0527V10.227C35.4375 13.9151 33.4346 17.2397 30.1868 18.9682C26.9423 17.2436 24.9375 13.9177 24.9375 10.227V7.0527Z" fill="#033603"/>
<path d="M34.589 10.3077L33.661 9.37978L28.875 14.1658L27.3702 12.661L26.4423 13.589L28.875 16.0217L34.589 10.3077Z" fill="#033603"/>
</svg>
