<svg width="107" height="107" viewBox="0 0 107 107" fill="none" xmlns="http://www.w3.org/2000/svg">
<g opacity="0.3">
<path d="M106.656 0.65625H24.5917V55.8925C20.7774 56.6533 16.8811 57.0756 12.9369 57.0756H12.624C6.02464 57.0756 0.65625 62.444 0.65625 69.0434C0.65625 74.9947 5.02789 79.9306 10.7262 80.8453L12.624 84.8527V99.8175C12.624 103.589 15.6912 106.656 19.4627 106.656C23.2343 106.656 26.3014 103.589 26.3014 99.8175V82.5395C33.2376 84.1398 39.8574 86.9744 45.8687 90.9819L46.2995 91.2692H55.3659V82.7208H106.656V0.65625ZM48.5272 46.8175H46.2995L45.8687 47.1048C44.5078 48.0126 43.1075 48.8452 41.6885 49.6334V34.8498H48.5272V46.8175ZM45.1079 51.5807V86.506C36.7544 81.512 27.4349 78.5218 17.753 77.7832V60.3035C27.4349 59.5649 36.7544 56.5747 45.1079 51.5807ZM4.0756 69.0434C4.0756 64.3298 7.91041 60.495 12.624 60.495H12.9369C13.4053 60.495 13.8669 60.4556 14.3337 60.4437V77.643C13.8669 77.6311 13.4053 77.5917 12.9369 77.5917H12.624C7.91041 77.5917 4.0756 73.7569 4.0756 69.0434ZM22.8821 99.8175C22.8821 101.703 21.3485 103.237 19.4627 103.237C17.5769 103.237 16.0433 101.703 16.0433 99.8175V84.0834L14.6175 81.0726C17.4025 81.1513 20.162 81.4163 22.8821 81.8779V99.8175ZM51.9466 87.8498H48.5272V50.2369H51.9466V87.8498ZM69.0434 79.3014H62.2046V28.0111H69.0434V79.3014ZM89.5595 79.3014H82.7208V41.6885H89.5595V79.3014ZM103.237 79.3014H92.9788V38.2692H79.3014V79.3014H72.4627V24.5917H58.7853V79.3014H55.3659V46.8175H51.9466V31.4304H38.2692V51.4046C34.9678 52.9638 31.5296 54.1743 28.0111 55.0975V4.0756H103.237V79.3014Z" fill="#dbf1dc"/>
<path d="M45.1079 28.0111C48.8794 28.0111 51.9466 24.9439 51.9466 21.1724C51.9466 21.0134 51.9107 20.8664 51.9004 20.7108L59.8966 18.0454C61.1156 19.9226 63.2236 21.1724 65.624 21.1724C67.3713 21.1724 68.9493 20.4936 70.1598 19.4131L79.7066 25.7783C79.4621 26.4809 79.3014 27.2246 79.3014 28.0111C79.3014 31.7826 82.3686 34.8498 86.1401 34.8498C89.9117 34.8498 92.9788 31.7826 92.9788 28.0111C92.9788 24.2395 89.9117 21.1724 86.1401 21.1724C84.3928 21.1724 82.8148 21.8511 81.6044 22.9316L72.0575 16.5665C72.302 15.8638 72.4627 15.1201 72.4627 14.3337C72.4627 10.5621 69.3956 7.49496 65.624 7.49496C61.8525 7.49496 58.7853 10.5621 58.7853 14.3337C58.7853 14.491 58.8212 14.6397 58.8315 14.7953L50.8353 17.4607C49.6163 15.5834 47.5083 14.3337 45.1079 14.3337C41.3363 14.3337 38.2692 17.4008 38.2692 21.1724C38.2692 24.9439 41.3363 28.0111 45.1079 28.0111ZM86.1401 24.5917C88.0259 24.5917 89.5595 26.1253 89.5595 28.0111C89.5595 29.8969 88.0259 31.4304 86.1401 31.4304C84.2544 31.4304 82.7208 29.8969 82.7208 28.0111C82.7208 26.1253 84.2544 24.5917 86.1401 24.5917ZM65.624 10.9143C67.5098 10.9143 69.0434 12.4479 69.0434 14.3337C69.0434 16.2194 67.5098 17.753 65.624 17.753C63.7382 17.753 62.2046 16.2194 62.2046 14.3337C62.2046 12.4479 63.7382 10.9143 65.624 10.9143ZM45.1079 17.753C46.9936 17.753 48.5272 19.2866 48.5272 21.1724C48.5272 23.0582 46.9936 24.5917 45.1079 24.5917C43.2221 24.5917 41.6885 23.0582 41.6885 21.1724C41.6885 19.2866 43.2221 17.753 45.1079 17.753Z" fill="#dbf1dc"/>
<path d="M21.1724 70.753H24.5917V74.1724H21.1724V70.753Z" fill="#dbf1dc"/>
<path d="M21.1724 63.9143H24.5917V67.3337H21.1724V63.9143Z" fill="#dbf1dc"/>
</g>
</svg>
