<svg width="16" height="18" viewBox="0 0 16 18" fill="none" xmlns="http://www.w3.org/2000/svg">
<path d="M13.9062 2.25H10.8125V1.6875C10.8125 0.755508 10.057 0 9.125 0H6.875C5.94301 0 5.1875 0.755508 5.1875 1.6875V2.25H2.09375C1.31711 2.25 0.6875 2.87961 0.6875 3.65625V4.78125C0.6875 5.09193 0.939324 5.34375 1.25 5.34375H14.75C15.0607 5.34375 15.3125 5.09193 15.3125 4.78125V3.65625C15.3125 2.87961 14.6829 2.25 13.9062 2.25ZM6.3125 1.6875C6.3125 1.37742 6.56492 1.125 6.875 1.125H9.125C9.43508 1.125 9.6875 1.37742 9.6875 1.6875V2.25H6.3125V1.6875Z" fill="black"/>
<path d="M1.75573 6.46875C1.65536 6.46875 1.57538 6.55263 1.58016 6.6529L2.04422 16.3927C2.08711 17.2941 2.8275 18 3.72961 18H12.2719C13.174 18 13.9144 17.2941 13.9573 16.3927L14.4213 6.6529C14.4261 6.55263 14.3461 6.46875 14.2458 6.46875H1.75573ZM10.2507 7.875C10.2507 7.56422 10.5025 7.3125 10.8132 7.3125C11.124 7.3125 11.3757 7.56422 11.3757 7.875V15.1875C11.3757 15.4983 11.124 15.75 10.8132 15.75C10.5025 15.75 10.2507 15.4983 10.2507 15.1875V7.875ZM7.43824 7.875C7.43824 7.56422 7.68996 7.3125 8.00074 7.3125C8.31153 7.3125 8.56324 7.56422 8.56324 7.875V15.1875C8.56324 15.4983 8.31153 15.75 8.00074 15.75C7.68996 15.75 7.43824 15.4983 7.43824 15.1875V7.875ZM4.62575 7.875C4.62575 7.56422 4.87746 7.3125 5.18825 7.3125C5.49903 7.3125 5.75075 7.56422 5.75075 7.875V15.1875C5.75075 15.4983 5.49903 15.75 5.18825 15.75C4.87746 15.75 4.62575 15.4983 4.62575 15.1875V7.875Z" fill="black"/>
</svg>
