<svg width="26" height="22" viewBox="0 0 26 22" fill="none" xmlns="http://www.w3.org/2000/svg">
<path fill-rule="evenodd" clip-rule="evenodd" d="M18.5253 17.8774H7.37198C7.05855 17.8774 6.80351 17.6784 6.80351 17.4331V4.10184C6.80351 3.85655 7.05855 3.65747 7.37198 3.65747H11.9249V7.34577C11.9249 8.74288 13.1714 9.8787 14.7047 9.8787H19.0948V17.4331C19.0948 17.6784 18.8387 17.8774 18.5253 17.8774ZM18.7352 8.10121H14.7047C14.3012 8.10121 13.9734 7.76259 13.9734 7.34577V3.65747H14.0881L18.7352 8.10121ZM20.8769 7.50388L15.3008 2.17139C15.1072 1.98564 14.8317 1.87988 14.5418 1.87988H7.3719C5.9287 1.87988 4.75488 2.87706 4.75488 4.10175V17.433C4.75488 18.6577 5.9287 19.6548 7.3719 19.6548H18.5252C19.9684 19.6548 21.1432 18.6577 21.1432 17.433V8.10112C21.1432 7.87982 21.048 7.66741 20.8769 7.50388Z" fill="white"/>
<mask id="mask0" mask-type="alpha" maskUnits="userSpaceOnUse" x="4" y="1" width="18" height="19">
<path fill-rule="evenodd" clip-rule="evenodd" d="M18.5253 17.8774H7.37198C7.05855 17.8774 6.80351 17.6784 6.80351 17.4331V4.10184C6.80351 3.85655 7.05855 3.65747 7.37198 3.65747H11.9249V7.34577C11.9249 8.74288 13.1714 9.8787 14.7047 9.8787H19.0948V17.4331C19.0948 17.6784 18.8387 17.8774 18.5253 17.8774ZM18.7352 8.10121H14.7047C14.3012 8.10121 13.9734 7.76259 13.9734 7.34577V3.65747H14.0881L18.7352 8.10121ZM20.8769 7.50388L15.3008 2.17139C15.1072 1.98564 14.8317 1.87988 14.5418 1.87988H7.3719C5.9287 1.87988 4.75488 2.87706 4.75488 4.10175V17.433C4.75488 18.6577 5.9287 19.6548 7.3719 19.6548H18.5252C19.9684 19.6548 21.1432 18.6577 21.1432 17.433V8.10112C21.1432 7.87982 21.048 7.66741 20.8769 7.50388Z" fill="white"/>
</mask>
<g mask="url(#mask0)">
<rect x="0.657227" y="0.101562" width="24.5825" height="21.33" fill="white"/>
</g>
</svg>
