<svg width="20" height="20" viewBox="0 0 20 20" fill="none" xmlns="http://www.w3.org/2000/svg">
<path d="M17.6562 0H2.34375C1.05141 0 0 1.05141 0 2.34375V17.6562C0 18.9486 1.05141 20 2.34375 20H17.6562C18.9486 20 20 18.9486 20 17.6562V2.34375C20 1.05141 18.9486 0 17.6562 0ZM2.34375 1.5625H17.6562C18.087 1.5625 18.4375 1.91297 18.4375 2.34375V13.817L15.7784 11.1579C14.8645 10.2441 13.3777 10.2441 12.4638 11.1579L11.6016 12.0202L9.1768 9.59539C8.26301 8.68156 6.77609 8.68156 5.86223 9.59539L1.5625 13.8951V2.34375C1.5625 1.91297 1.91297 1.5625 2.34375 1.5625ZM17.6562 18.4375H2.34375C1.91297 18.4375 1.5625 18.087 1.5625 17.6562V16.1049L6.96707 10.7003C7.27176 10.3957 7.7673 10.3957 8.07191 10.7003L11.6016 14.2298L13.5687 12.2627C13.8732 11.9581 14.3689 11.9581 14.6735 12.2627L18.4375 16.0268V17.6562C18.4375 18.087 18.087 18.4375 17.6562 18.4375ZM12.6562 7.8125C13.9486 7.8125 15 6.76109 15 5.46875C15 4.17641 13.9486 3.125 12.6562 3.125C11.3639 3.125 10.3125 4.17641 10.3125 5.46875C10.3125 6.76109 11.3639 7.8125 12.6562 7.8125ZM12.6562 4.6875C13.087 4.6875 13.4375 5.03797 13.4375 5.46875C13.4375 5.89953 13.087 6.25 12.6562 6.25C12.2255 6.25 11.875 5.89953 11.875 5.46875C11.875 5.03797 12.2255 4.6875 12.6562 4.6875Z" fill="black"/>
</svg>
