<svg width="18" height="18" viewBox="0 0 18 18" fill="none" xmlns="http://www.w3.org/2000/svg">
<g clip-path="url(#clip0)">
<path d="M8.99956 8.62234C10.6266 8.62234 11.9503 7.29881 11.9503 5.67199C11.9503 4.04517 10.6266 2.72168 8.99956 2.72168C7.37253 2.72168 6.04883 4.04517 6.04883 5.67199C6.04883 7.29881 7.37253 8.62234 8.99956 8.62234ZM8.99956 3.77623C10.045 3.77623 10.8956 4.62669 10.8956 5.67199C10.8956 6.71733 10.0451 7.56779 8.99956 7.56779C7.95405 7.56779 7.10352 6.71733 7.10352 5.67199C7.10352 4.62669 7.95409 3.77623 8.99956 3.77623Z" fill="#000"/>
<path d="M5.7868 10.9734C6.58608 12.0554 6.26496 11.6346 8.56717 14.9215C8.77642 15.2214 9.2214 15.2228 9.43184 14.922C11.7445 11.6194 11.4263 12.0377 12.2125 10.9733C13.009 9.89501 13.8326 8.77999 14.284 7.47338C14.9372 5.58193 14.6548 3.71046 13.4889 2.20366C13.4889 2.20366 13.4889 2.20363 13.4889 2.20363C12.4209 0.823781 10.7427 0 8.99966 0C7.25665 0 5.57843 0.823781 4.51042 2.2037C3.34454 3.7105 3.06216 5.58201 3.71543 7.47345C4.1667 8.78003 4.99034 9.89505 5.7868 10.9734ZM5.34454 2.84903C6.21423 1.7254 7.58065 1.05455 8.99966 1.05455C10.4187 1.05455 11.7851 1.7254 12.6548 2.84903L12.6547 2.84899C13.5957 4.06512 13.8203 5.5852 13.287 7.1292C12.8884 8.28331 12.1135 9.33233 11.3641 10.3468C10.7807 11.1367 10.9553 10.8951 8.99966 13.6984C7.04607 10.8979 7.21847 11.1364 6.6352 10.3468C5.88584 9.33233 5.11096 8.28327 4.71232 7.1292C4.17907 5.58517 4.40358 4.06512 5.34454 2.84903Z" fill="#000"/>
<path d="M6.22035 13.2599C6.06482 13.0137 5.73914 12.9402 5.4929 13.0957L3.99349 14.0427C3.66639 14.2493 3.66608 14.7275 3.99349 14.9343L8.71849 17.9186C8.89051 18.0273 9.10974 18.0273 9.28173 17.9186L14.0067 14.9343C14.3339 14.7277 14.3341 14.2495 14.0067 14.0427L12.5073 13.0957C12.261 12.9402 11.9354 13.0137 11.7799 13.2599C11.6243 13.5061 11.6978 13.8318 11.9441 13.9873L12.7377 14.4885L9.00009 16.8492L5.26252 14.4885L6.05614 13.9873C6.30237 13.8318 6.37589 13.5061 6.22035 13.2599Z" fill="#000"/>
</g>
<defs>
<clipPath id="clip0">
<rect width="18" height="18" fill="#000"/>
</clipPath>
</defs>
</svg>
