<svg width="170" height="34" viewBox="0 0 170 34" fill="none" xmlns="http://www.w3.org/2000/svg">
<path d="M42.4506 13.7268L40.3791 15.4143V19.1128C40.3791 19.3217 40.4262 19.4834 40.5205 19.5979C40.6216 19.7057 40.79 19.7899 41.0258 19.8505V20.1739H36.721V19.8505C36.9635 19.7832 37.1319 19.6956 37.2262 19.5878C37.3205 19.48 37.3677 19.3217 37.3677 19.1128V7.43121C37.3677 7.22911 37.3205 7.07416 37.2262 6.96637C37.1319 6.85858 36.9635 6.771 36.721 6.70363V6.38027H41.0258V6.70363C40.7833 6.76427 40.6148 6.85184 40.5205 6.96637C40.4262 7.07416 40.3791 7.22911 40.3791 7.43121V12.2615L46.0582 7.62321C46.3209 7.40763 46.4523 7.23584 46.4523 7.10784C46.4523 6.91247 46.2569 6.77774 45.8662 6.70363V6.38027H51.5049V6.70363C51.2691 6.75079 51.1007 6.80469 50.9996 6.86532C50.8986 6.92595 50.6055 7.155 50.1205 7.55247L49.3424 8.19921L44.6536 11.9685L49.9689 18.3651C50.4607 18.9579 50.8144 19.3419 51.03 19.5171C51.2523 19.6855 51.5285 19.7966 51.8586 19.8505V20.1739H46.4725V19.8505C46.8296 19.7764 47.0081 19.6484 47.0081 19.4665C47.0081 19.3722 46.8464 19.1229 46.523 18.7187L42.4506 13.7268ZM69.5346 9.88678V15.8792C69.5346 17.2467 69.2652 18.2505 68.7262 18.8905C67.8572 19.9078 66.2201 20.4164 63.8151 20.4164C62.205 20.4164 60.9048 20.1705 59.9145 19.6787C59.2004 19.3217 58.7119 18.8131 58.4492 18.1528C58.2067 17.5465 58.0854 16.7886 58.0854 15.8792V9.88678C58.0854 9.67794 58.0383 9.51962 57.9439 9.41183C57.8496 9.30404 57.6812 9.2131 57.4387 9.13899V8.85605H61.4505V9.13899C61.2012 9.20636 61.0294 9.29731 60.9351 9.41183C60.8408 9.51962 60.7936 9.67794 60.7936 9.88678V15.3335C60.7936 15.9668 60.8475 16.4518 60.9553 16.7886C61.0698 17.1255 61.2652 17.4017 61.5414 17.6173C62.0938 18.0552 62.8921 18.2741 63.9363 18.2741C64.9805 18.2741 65.7789 18.0552 66.3313 17.6173C66.6008 17.4017 66.7894 17.1255 66.8972 16.7886C67.005 16.4518 67.0589 15.9668 67.0589 15.3335V9.88678C67.0589 9.67794 67.0117 9.51962 66.9174 9.41183C66.8298 9.30404 66.6614 9.2131 66.4121 9.13899V8.85605H70.1814V9.13899C69.9388 9.20636 69.7704 9.29731 69.6761 9.41183C69.5818 9.51962 69.5346 9.67794 69.5346 9.88678ZM82.6027 15.0101L80.996 16.3238V19.1432C80.996 19.352 81.0431 19.5137 81.1374 19.6282C81.2318 19.736 81.4002 19.8269 81.6427 19.901V20.1739H77.641V19.8909C77.8768 19.8303 78.0419 19.7427 78.1362 19.6282C78.2372 19.5137 78.2878 19.352 78.2878 19.1432V9.88678C78.2878 9.67794 78.2406 9.51962 78.1463 9.41183C78.052 9.30404 77.8836 9.2131 77.641 9.13899V8.85605H81.6427V9.13899C81.4002 9.20636 81.2318 9.29731 81.1374 9.41183C81.0431 9.51962 80.996 9.67794 80.996 9.88678V13.5954L85.2503 10.2C85.5669 9.95078 85.7252 9.73183 85.7252 9.5432C85.7252 9.3411 85.5298 9.20636 85.1391 9.13899V8.85605H90.2321V9.12889C89.9761 9.16931 89.7606 9.24678 89.5854 9.36131C89.417 9.47583 88.9926 9.82951 88.3121 10.4224L84.4924 13.464L88.6961 18.2943C89.2351 18.9208 89.6191 19.3284 89.8481 19.5171C90.0839 19.7057 90.3534 19.8337 90.6566 19.901V20.1739H85.705V19.901C86.0755 19.8135 86.2608 19.6787 86.2608 19.4968C86.2608 19.4295 86.2372 19.3655 86.1901 19.3048C86.1496 19.2375 85.9947 19.0488 85.7252 18.7389L82.6027 15.0101ZM106.706 17.3444H101.501L100.915 18.5773C100.774 18.8737 100.703 19.1061 100.703 19.2745C100.703 19.5979 100.919 19.8034 101.35 19.8909V20.1739H97.1866V19.8909C97.4425 19.8505 97.6312 19.773 97.7524 19.6585C97.8804 19.544 98.0287 19.3183 98.1971 18.9815L102.33 10.6144C102.485 10.2977 102.563 10.0215 102.563 9.78573C102.563 9.50952 102.374 9.29394 101.997 9.13899V8.85605H106.392V9.13899C106.022 9.2872 105.837 9.51625 105.837 9.82615C105.837 10.0485 105.921 10.3213 106.089 10.6447L110.374 18.7592C110.61 19.2038 110.795 19.4935 110.93 19.6282C111.064 19.7562 111.27 19.8472 111.546 19.901V20.1739H106.928V19.901C107.366 19.8269 107.585 19.6215 107.585 19.2846C107.585 19.0758 107.501 18.8164 107.332 18.5065L106.706 17.3444ZM105.887 15.7579L104.038 12.1301L102.28 15.7579H105.887ZM118.834 19.1432V9.88678C118.834 9.67794 118.787 9.51962 118.692 9.41183C118.598 9.30404 118.43 9.2131 118.187 9.13899V8.85605H124.826C126.207 8.85605 127.295 9.02783 128.09 9.37141C129.209 9.85646 130.014 10.6581 130.505 11.7765C130.849 12.5579 131.021 13.4708 131.021 14.515C131.021 16.4484 130.445 17.9137 129.293 18.9107C128.774 19.3554 128.161 19.6787 127.454 19.8808C126.753 20.0762 125.877 20.1739 124.826 20.1739H118.187V19.8909C118.423 19.8303 118.588 19.7427 118.682 19.6282C118.783 19.5137 118.834 19.352 118.834 19.1432ZM121.542 18.1225H124.432C125.759 18.1225 126.723 17.8194 127.322 17.2131C127.949 16.5798 128.262 15.6804 128.262 14.515C128.262 13.3495 127.949 12.4501 127.322 11.8169C127.012 11.5002 126.628 11.2712 126.17 11.1297C125.712 10.9815 125.133 10.9074 124.432 10.9074H121.542V18.1225ZM141.805 9.88678V19.1432C141.805 19.352 141.852 19.5137 141.947 19.6282C142.041 19.736 142.209 19.8269 142.452 19.901V20.1739H138.45V19.8909C138.686 19.8303 138.851 19.7427 138.945 19.6282C139.046 19.5137 139.097 19.352 139.097 19.1432V9.88678C139.097 9.67794 139.05 9.51962 138.955 9.41183C138.861 9.30404 138.693 9.2131 138.45 9.13899V8.85605H142.452V9.13899C142.209 9.20636 142.041 9.29731 141.947 9.41183C141.852 9.51962 141.805 9.67794 141.805 9.88678ZM158.723 17.3444H153.519L152.933 18.5773C152.792 18.8737 152.721 19.1061 152.721 19.2745C152.721 19.5979 152.936 19.8034 153.368 19.8909V20.1739H149.204V19.8909C149.46 19.8505 149.649 19.773 149.77 19.6585C149.898 19.544 150.046 19.3183 150.215 18.9815L154.348 10.6144C154.503 10.2977 154.58 10.0215 154.58 9.78573C154.58 9.50952 154.392 9.29394 154.014 9.13899V8.85605H158.41V9.13899C158.04 9.2872 157.854 9.51625 157.854 9.82615C157.854 10.0485 157.938 10.3213 158.107 10.6447L162.391 18.7592C162.627 19.2038 162.813 19.4935 162.947 19.6282C163.082 19.7562 163.287 19.8472 163.564 19.901V20.1739H158.946V19.901C159.383 19.8269 159.602 19.6215 159.602 19.2846C159.602 19.0758 159.518 18.8164 159.35 18.5065L158.723 17.3444ZM157.905 15.7579L156.056 12.1301L154.297 15.7579H157.905Z" fill="#033603"/>
<path d="M37.6173 26.2707V27.3505H40.1522C40.21 27.3505 40.2543 27.337 40.2851 27.3101C40.3158 27.2831 40.3409 27.235 40.3601 27.1657H40.4525V28.1849H40.3601C40.3409 28.1156 40.3158 28.0675 40.2851 28.0405C40.2543 28.0136 40.21 28.0001 40.1522 28.0001H36.5721V27.9077C36.6414 27.8885 36.6895 27.8635 36.7165 27.8327C36.7434 27.8019 36.7569 27.7566 36.7569 27.697V24.3622C36.7569 24.3026 36.7434 24.2573 36.7165 24.2265C36.6895 24.1957 36.6414 24.1707 36.5721 24.1515V24.0591H40.0829C40.1407 24.0591 40.185 24.0456 40.2158 24.0187C40.2466 23.9898 40.2716 23.9407 40.2908 23.8714H40.3832V24.8906H40.2908C40.2716 24.8232 40.2466 24.7761 40.2158 24.7491C40.185 24.7222 40.1407 24.7087 40.0829 24.7087H37.6173V25.6442H39.2168C39.2745 25.6442 39.3188 25.6307 39.3496 25.6037C39.3804 25.5768 39.4054 25.5287 39.4247 25.4594H39.5171V26.4555H39.4247C39.4054 26.3881 39.3804 26.3409 39.3496 26.314C39.3188 26.2851 39.2745 26.2707 39.2168 26.2707H37.6173ZM42.7686 25.8694V27.7056C42.7686 27.7653 42.7821 27.8115 42.809 27.8442C42.8379 27.8769 42.886 27.9029 42.9534 27.9222V28.0001H41.8794V27.9193C41.9467 27.902 41.9939 27.8769 42.0208 27.8442C42.0497 27.8115 42.0641 27.7653 42.0641 27.7056V25.0609C42.0641 25.0013 42.0507 24.956 42.0237 24.9252C41.9968 24.8945 41.9487 24.8685 41.8794 24.8473V24.7665H43.1209V24.8473C43.0362 24.8685 42.9938 24.906 42.9938 24.9599C42.9938 25.0061 43.0246 25.06 43.0862 25.1216L44.8185 26.8424V25.0609C44.8185 25.0013 44.8051 24.956 44.7781 24.9252C44.7512 24.8925 44.7031 24.8665 44.6338 24.8473V24.7665H45.7078V24.8473C45.6385 24.8665 45.5904 24.8925 45.5634 24.9252C45.5365 24.956 45.523 25.0013 45.523 25.0609V27.7056C45.523 27.7653 45.5365 27.8115 45.5634 27.8442C45.5904 27.875 45.6385 27.901 45.7078 27.9222V28.0001H44.55V27.9222C44.6347 27.9048 44.6771 27.8692 44.6771 27.8153C44.6771 27.7884 44.6655 27.7605 44.6424 27.7316C44.6193 27.7027 44.5664 27.646 44.4836 27.5613L42.7686 25.8694ZM48.9507 25.3526V27.7056C48.9507 27.7653 48.9642 27.8115 48.9911 27.8442C49.0181 27.875 49.0662 27.901 49.1355 27.9222V28.0001H47.9922V27.9193C48.0595 27.902 48.1067 27.8769 48.1336 27.8442C48.1625 27.8115 48.1769 27.7653 48.1769 27.7056V25.3526H47.2242C47.1626 25.3526 47.1154 25.367 47.0827 25.3959C47.0519 25.4228 47.0269 25.4709 47.0076 25.5402H46.9297V24.5817H47.0105C47.0278 24.649 47.0519 24.6972 47.0827 24.726C47.1154 24.753 47.1626 24.7665 47.2242 24.7665H49.9035C49.9651 24.7665 50.0113 24.753 50.0421 24.726C50.0748 24.6991 50.1008 24.651 50.12 24.5817H50.198V25.5402H50.12C50.1008 25.4709 50.0748 25.4228 50.0421 25.3959C50.0113 25.367 49.9651 25.3526 49.9035 25.3526H48.9507ZM52.4188 26.6258V27.414H54.4716C54.5313 27.414 54.5765 27.4005 54.6073 27.3736C54.64 27.3467 54.666 27.2976 54.6853 27.2264H54.7661V28.1849H54.6853C54.668 28.1175 54.6429 28.0694 54.6102 28.0405C54.5775 28.0136 54.5313 28.0001 54.4716 28.0001H51.4603V27.9193C51.5276 27.902 51.5748 27.8769 51.6017 27.8442C51.6306 27.8115 51.6451 27.7653 51.6451 27.7056V25.0609C51.6451 25.0013 51.6316 24.956 51.6046 24.9252C51.5777 24.8945 51.5296 24.8685 51.4603 24.8473V24.7665H54.3821C54.4437 24.7665 54.4899 24.753 54.5207 24.726C54.5534 24.6991 54.5794 24.651 54.5987 24.5817H54.6766V25.5402H54.5987C54.5794 25.469 54.5534 25.4199 54.5207 25.393C54.4899 25.366 54.4437 25.3526 54.3821 25.3526H52.4188V26.0628H53.6372C53.6969 26.0628 53.7421 26.0493 53.7729 26.0224C53.8056 25.9954 53.8326 25.9473 53.8538 25.878H53.9317V26.8135H53.8538C53.8345 26.7442 53.8085 26.6961 53.7758 26.6691C53.745 26.6402 53.6988 26.6258 53.6372 26.6258H52.4188ZM57.0996 26.672V27.7056C57.0996 27.7653 57.113 27.8115 57.14 27.8442C57.1669 27.875 57.215 27.901 57.2843 27.9222V28.0001H56.141V27.9193C56.2084 27.902 56.2555 27.8769 56.2825 27.8442C56.3114 27.8115 56.3258 27.7653 56.3258 27.7056V25.0609C56.3258 25.0013 56.3123 24.956 56.2854 24.9252C56.2584 24.8945 56.2103 24.8685 56.141 24.8473V24.7665H58.2602C58.5355 24.7665 58.7453 24.7809 58.8896 24.8098C59.034 24.8367 59.163 24.8868 59.2765 24.9599C59.5094 25.112 59.6259 25.3603 59.6259 25.7048C59.6259 25.9666 59.5537 26.1716 59.4093 26.3198C59.2669 26.4661 59.0359 26.5719 58.7164 26.6374L59.3285 27.492C59.4401 27.6498 59.5287 27.7576 59.5941 27.8153C59.6615 27.8712 59.7375 27.9068 59.8222 27.9222V28.0001H58.4652V27.9222C58.5653 27.8952 58.6153 27.8519 58.6153 27.7922C58.6153 27.7499 58.5845 27.6854 58.523 27.5988L57.8762 26.672H57.0996ZM57.0996 26.0859H58.266C58.4431 26.0859 58.574 26.0667 58.6587 26.0282C58.778 25.9762 58.8377 25.8732 58.8377 25.7192C58.8377 25.5826 58.7953 25.4873 58.7106 25.4334C58.6279 25.3795 58.4796 25.3526 58.266 25.3526H57.0996V26.0859ZM62.0575 26.672V27.7056C62.0575 27.7653 62.0709 27.8115 62.0979 27.8442C62.1248 27.875 62.173 27.901 62.2423 27.9222V28.0001H61.0989V27.9193C61.1663 27.902 61.2134 27.8769 61.2404 27.8442C61.2693 27.8115 61.2837 27.7653 61.2837 27.7056V25.0609C61.2837 25.0013 61.2702 24.956 61.2433 24.9252C61.2163 24.8945 61.1682 24.8685 61.0989 24.8473V24.7665H63.2066C63.6243 24.7665 63.939 24.829 64.1507 24.9541C64.2739 25.0273 64.3701 25.1312 64.4394 25.2659C64.5087 25.4007 64.5434 25.5518 64.5434 25.7192C64.5434 26.0407 64.4336 26.2803 64.2142 26.4381C63.9948 26.5941 63.6589 26.672 63.2066 26.672H62.0575ZM62.0575 26.0859H63.1604C63.3625 26.0859 63.503 26.0667 63.5819 26.0282C63.6974 25.9723 63.7551 25.8694 63.7551 25.7192C63.7551 25.5691 63.6974 25.4661 63.5819 25.4103C63.5049 25.3718 63.3644 25.3526 63.1604 25.3526H62.0575V26.0859ZM66.8017 26.672V27.7056C66.8017 27.7653 66.8152 27.8115 66.8421 27.8442C66.8691 27.875 66.9172 27.901 66.9865 27.9222V28.0001H65.8432V27.9193C65.9105 27.902 65.9577 27.8769 65.9846 27.8442C66.0135 27.8115 66.028 27.7653 66.028 27.7056V25.0609C66.028 25.0013 66.0145 24.956 65.9875 24.9252C65.9606 24.8945 65.9125 24.8685 65.8432 24.8473V24.7665H67.9624C68.2376 24.7665 68.4474 24.7809 68.5918 24.8098C68.7362 24.8367 68.8651 24.8868 68.9787 24.9599C69.2116 25.112 69.328 25.3603 69.328 25.7048C69.328 25.9666 69.2559 26.1716 69.1115 26.3198C68.9691 26.4661 68.7381 26.5719 68.4186 26.6374L69.0306 27.492C69.1423 27.6498 69.2308 27.7576 69.2963 27.8153C69.3636 27.8712 69.4397 27.9068 69.5244 27.9222V28.0001H68.1674V27.9222C68.2675 27.8952 68.3175 27.8519 68.3175 27.7922C68.3175 27.7499 68.2867 27.6854 68.2251 27.5988L67.5784 26.672H66.8017ZM66.8017 26.0859H67.9682C68.1452 26.0859 68.2761 26.0667 68.3608 26.0282C68.4802 25.9762 68.5398 25.8732 68.5398 25.7192C68.5398 25.5826 68.4975 25.4873 68.4128 25.4334C68.33 25.3795 68.1818 25.3526 67.9682 25.3526H66.8017V26.0859ZM71.7596 25.0609V27.7056C71.7596 27.7653 71.7731 27.8115 71.8001 27.8442C71.827 27.875 71.8751 27.901 71.9444 27.9222V28.0001H70.8011V27.9193C70.8685 27.902 70.9156 27.8769 70.9426 27.8442C70.9714 27.8115 70.9859 27.7653 70.9859 27.7056V25.0609C70.9859 25.0013 70.9724 24.956 70.9454 24.9252C70.9185 24.8945 70.8704 24.8685 70.8011 24.8473V24.7665H71.9444V24.8473C71.8751 24.8665 71.827 24.8925 71.8001 24.9252C71.7731 24.956 71.7596 25.0013 71.7596 25.0609ZM76.5126 25.0581L76.1228 25.8116L76.0535 25.7741C76.0535 25.7106 76.0333 25.6605 75.9929 25.624C75.8831 25.5258 75.7215 25.4449 75.5078 25.3814C75.2942 25.3179 75.0776 25.2861 74.8582 25.2861C74.6715 25.2861 74.5059 25.3121 74.3616 25.3641C74.1537 25.4392 74.0498 25.5479 74.0498 25.6904C74.0498 25.7847 74.0998 25.852 74.1999 25.8925C74.3 25.931 74.4934 25.9618 74.7802 25.9849L75.2364 26.0195C75.6348 26.0503 75.938 26.1273 76.1459 26.2505C76.2614 26.3198 76.3566 26.4122 76.4317 26.5276C76.526 26.672 76.5732 26.8347 76.5732 27.0156C76.5732 27.3447 76.425 27.6046 76.1286 27.7951C75.8456 27.978 75.4626 28.0694 74.9794 28.0694C74.4925 28.0694 74.0219 27.9664 73.5676 27.7605C73.5368 27.747 73.5108 27.7403 73.4896 27.7403C73.4512 27.7403 73.4155 27.7634 73.3828 27.8096L73.3106 27.7807L73.6427 26.9896L73.7149 27.0185C73.7149 27.03 73.7149 27.0377 73.7149 27.0416C73.7149 27.0916 73.7341 27.134 73.7726 27.1686C73.8688 27.2533 74.0353 27.3274 74.2721 27.3909C74.5088 27.4525 74.7427 27.4833 74.9737 27.4833C75.1777 27.4833 75.3606 27.4564 75.5222 27.4025C75.7224 27.337 75.8225 27.2312 75.8225 27.0849C75.8225 26.9675 75.7532 26.8857 75.6146 26.8395C75.5222 26.8087 75.3557 26.7827 75.1151 26.7615L74.6619 26.724C74.4174 26.7047 74.2307 26.6797 74.1017 26.6489C73.9728 26.6181 73.8602 26.5729 73.7639 26.5132C73.6407 26.4362 73.5445 26.3313 73.4752 26.1985C73.4059 26.0657 73.3713 25.9204 73.3713 25.7625C73.3713 25.4084 73.5233 25.1379 73.8275 24.9512C74.1046 24.7819 74.4472 24.6972 74.8553 24.6972C75.0766 24.6972 75.2826 24.7222 75.4732 24.7722C75.6656 24.8203 75.8947 24.906 76.1603 25.0292C76.2392 25.0658 76.2941 25.084 76.3249 25.084C76.3557 25.084 76.3951 25.0629 76.4433 25.0205L76.5126 25.0581ZM78.8922 26.6258V27.414H80.945C81.0047 27.414 81.0499 27.4005 81.0807 27.3736C81.1134 27.3467 81.1394 27.2976 81.1586 27.2264H81.2395V28.1849H81.1586C81.1413 28.1175 81.1163 28.0694 81.0836 28.0405C81.0509 28.0136 81.0047 28.0001 80.945 28.0001H77.9336V27.9193C78.001 27.902 78.0482 27.8769 78.0751 27.8442C78.104 27.8115 78.1184 27.7653 78.1184 27.7056V25.0609C78.1184 25.0013 78.1049 24.956 78.078 24.9252C78.0511 24.8945 78.0029 24.8685 77.9336 24.8473V24.7665H80.8555C80.9171 24.7665 80.9633 24.753 80.9941 24.726C81.0268 24.6991 81.0528 24.651 81.072 24.5817H81.15V25.5402H81.072C81.0528 25.469 81.0268 25.4199 80.9941 25.393C80.9633 25.366 80.9171 25.3526 80.8555 25.3526H78.8922V26.0628H80.1106C80.1703 26.0628 80.2155 26.0493 80.2463 26.0224C80.279 25.9954 80.306 25.9473 80.3271 25.878H80.4051V26.8135H80.3271C80.3079 26.7442 80.2819 26.6961 80.2492 26.6691C80.2184 26.6402 80.1722 26.6258 80.1106 26.6258H78.8922ZM86.0969 26.3919V27.6999C86.0969 27.7576 86.1104 27.8028 86.1373 27.8356C86.1662 27.8663 86.2143 27.8904 86.2817 27.9077V28.0001H85.0518V27.9077C85.121 27.8885 85.1692 27.8635 85.1961 27.8327C85.2231 27.8019 85.2365 27.7576 85.2365 27.6999V24.3622C85.2365 24.3026 85.2231 24.2573 85.1961 24.2265C85.1692 24.1957 85.121 24.1707 85.0518 24.1515V24.0591H87.5174C87.8177 24.0591 88.0554 24.0764 88.2306 24.1111C88.4077 24.1457 88.5616 24.2063 88.6925 24.2929C88.8446 24.393 88.9581 24.5287 89.0332 24.7C89.1044 24.8656 89.14 25.0427 89.14 25.2313C89.14 25.8742 88.783 26.2505 88.0689 26.3602L88.834 27.4487C88.9687 27.6392 89.0669 27.7624 89.1285 27.8182C89.192 27.8721 89.269 27.902 89.3595 27.9077V28.0001H87.9332V27.9077C88.0314 27.8923 88.0804 27.8577 88.0804 27.8038C88.0804 27.7691 88.0352 27.6854 87.9447 27.5526L87.1479 26.3919H86.0969ZM86.0969 25.7423H87.425C87.6214 25.7423 87.76 25.7366 87.8408 25.725C87.9216 25.7135 87.9957 25.6894 88.0631 25.6528C88.2094 25.5739 88.2825 25.4315 88.2825 25.2255C88.2825 25.0196 88.2094 24.8771 88.0631 24.7982C87.9938 24.7597 87.9197 24.7357 87.8408 24.726C87.7638 24.7145 87.6252 24.7087 87.425 24.7087H86.0969V25.7423ZM91.6352 26.6258V27.414H93.688C93.7476 27.414 93.7929 27.4005 93.8237 27.3736C93.8564 27.3467 93.8824 27.2976 93.9016 27.2264H93.9825V28.1849H93.9016C93.8843 28.1175 93.8593 28.0694 93.8265 28.0405C93.7938 28.0136 93.7476 28.0001 93.688 28.0001H90.6766V27.9193C90.744 27.902 90.7911 27.8769 90.8181 27.8442C90.847 27.8115 90.8614 27.7653 90.8614 27.7056V25.0609C90.8614 25.0013 90.8479 24.956 90.821 24.9252C90.794 24.8945 90.7459 24.8685 90.6766 24.8473V24.7665H93.5985C93.6601 24.7665 93.7062 24.753 93.737 24.726C93.7698 24.6991 93.7958 24.651 93.815 24.5817H93.893V25.5402H93.815C93.7958 25.469 93.7698 25.4199 93.737 25.393C93.7062 25.366 93.6601 25.3526 93.5985 25.3526H91.6352V26.0628H92.8536C92.9132 26.0628 92.9585 26.0493 92.9893 26.0224C93.022 25.9954 93.0489 25.9473 93.0701 25.878H93.1481V26.8135H93.0701C93.0509 26.7442 93.0249 26.6961 92.9921 26.6691C92.9613 26.6402 92.9152 26.6258 92.8536 26.6258H91.6352ZM98.4669 25.0581L98.0771 25.8116L98.0078 25.7741C98.0078 25.7106 97.9876 25.6605 97.9472 25.624C97.8375 25.5258 97.6758 25.4449 97.4621 25.3814C97.2485 25.3179 97.0319 25.2861 96.8125 25.2861C96.6258 25.2861 96.4603 25.3121 96.3159 25.3641C96.108 25.4392 96.0041 25.5479 96.0041 25.6904C96.0041 25.7847 96.0541 25.852 96.1542 25.8925C96.2543 25.931 96.4477 25.9618 96.7345 25.9849L97.1907 26.0195C97.5892 26.0503 97.8923 26.1273 98.1002 26.2505C98.2157 26.3198 98.311 26.4122 98.386 26.5276C98.4803 26.672 98.5275 26.8347 98.5275 27.0156C98.5275 27.3447 98.3793 27.6046 98.0829 27.7951C97.7999 27.978 97.4169 28.0694 96.9338 28.0694C96.4468 28.0694 95.9762 27.9664 95.5219 27.7605C95.4911 27.747 95.4651 27.7403 95.444 27.7403C95.4055 27.7403 95.3699 27.7634 95.3371 27.8096L95.265 27.7807L95.597 26.9896L95.6692 27.0185C95.6692 27.03 95.6692 27.0377 95.6692 27.0416C95.6692 27.0916 95.6884 27.134 95.7269 27.1686C95.8232 27.2533 95.9896 27.3274 96.2264 27.3909C96.4631 27.4525 96.697 27.4833 96.928 27.4833C97.132 27.4833 97.3149 27.4564 97.4766 27.4025C97.6767 27.337 97.7768 27.2312 97.7768 27.0849C97.7768 26.9675 97.7075 26.8857 97.5689 26.8395C97.4766 26.8087 97.3101 26.7827 97.0695 26.7615L96.6162 26.724C96.3717 26.7047 96.185 26.6797 96.0561 26.6489C95.9271 26.6181 95.8145 26.5729 95.7182 26.5132C95.5951 26.4362 95.4988 26.3313 95.4295 26.1985C95.3602 26.0657 95.3256 25.9204 95.3256 25.7625C95.3256 25.4084 95.4776 25.1379 95.7818 24.9512C96.0589 24.7819 96.4016 24.6972 96.8096 24.6972C97.031 24.6972 97.2369 24.7222 97.4275 24.7722C97.62 24.8203 97.849 24.906 98.1146 25.0292C98.1935 25.0658 98.2484 25.084 98.2792 25.084C98.31 25.084 98.3495 25.0629 98.3976 25.0205L98.4669 25.0581ZM101.707 24.6972C102.221 24.6972 102.649 24.828 102.992 25.0898C103.402 25.4055 103.607 25.8453 103.607 26.4093C103.607 26.9386 103.402 27.3611 102.992 27.6768C102.653 27.9385 102.227 28.0694 101.713 28.0694C101.199 28.0694 100.772 27.9385 100.434 27.6768C100.022 27.3611 99.8158 26.9299 99.8158 26.3833C99.8158 25.8309 100.022 25.3997 100.434 25.0898C100.774 24.8338 101.199 24.7029 101.707 24.6972ZM101.71 25.3092C101.377 25.3092 101.105 25.4161 100.896 25.6297C100.701 25.8299 100.604 26.0811 100.604 26.3833C100.604 26.6836 100.701 26.9338 100.896 27.134C101.105 27.3495 101.378 27.4573 101.713 27.4573C102.046 27.4573 102.317 27.3495 102.527 27.134C102.721 26.9357 102.818 26.6903 102.818 26.3977C102.818 26.0801 102.721 25.8241 102.527 25.6297C102.315 25.4199 102.043 25.3131 101.71 25.3092ZM108.383 25.0609V26.7731C108.383 27.1638 108.306 27.4506 108.152 27.6334C107.903 27.9241 107.436 28.0694 106.749 28.0694C106.289 28.0694 105.917 27.9992 105.634 27.8586C105.43 27.7566 105.29 27.6113 105.215 27.4227C105.146 27.2494 105.111 27.0329 105.111 26.7731V25.0609C105.111 25.0013 105.098 24.956 105.071 24.9252C105.044 24.8945 104.996 24.8685 104.927 24.8473V24.7665H106.073V24.8473C106.002 24.8665 105.953 24.8925 105.926 24.9252C105.899 24.956 105.885 25.0013 105.885 25.0609V26.6172C105.885 26.7981 105.901 26.9367 105.931 27.0329C105.964 27.1291 106.02 27.2081 106.099 27.2697C106.257 27.3948 106.485 27.4573 106.783 27.4573C107.082 27.4573 107.31 27.3948 107.467 27.2697C107.544 27.2081 107.598 27.1291 107.629 27.0329C107.66 26.9367 107.675 26.7981 107.675 26.6172V25.0609C107.675 25.0013 107.662 24.956 107.635 24.9252C107.61 24.8945 107.562 24.8685 107.491 24.8473V24.7665H108.567V24.8473C108.498 24.8665 108.45 24.8925 108.423 24.9252C108.396 24.956 108.383 25.0013 108.383 25.0609ZM110.918 26.672V27.7056C110.918 27.7653 110.932 27.8115 110.959 27.8442C110.986 27.875 111.034 27.901 111.103 27.9222V28.0001H109.96V27.9193C110.027 27.902 110.074 27.8769 110.101 27.8442C110.13 27.8115 110.144 27.7653 110.144 27.7056V25.0609C110.144 25.0013 110.131 24.956 110.104 24.9252C110.077 24.8945 110.029 24.8685 109.96 24.8473V24.7665H112.079C112.354 24.7665 112.564 24.7809 112.708 24.8098C112.853 24.8367 112.982 24.8868 113.095 24.9599C113.328 25.112 113.445 25.3603 113.445 25.7048C113.445 25.9666 113.372 26.1716 113.228 26.3198C113.086 26.4661 112.855 26.5719 112.535 26.6374L113.147 27.492C113.259 27.6498 113.347 27.7576 113.413 27.8153C113.48 27.8712 113.556 27.9068 113.641 27.9222V28.0001H112.284V27.9222C112.384 27.8952 112.434 27.8519 112.434 27.7922C112.434 27.7499 112.403 27.6854 112.342 27.5988L111.695 26.672H110.918ZM110.918 26.0859H112.085C112.262 26.0859 112.393 26.0667 112.477 26.0282C112.597 25.9762 112.656 25.8732 112.656 25.7192C112.656 25.5826 112.614 25.4873 112.529 25.4334C112.447 25.3795 112.298 25.3526 112.085 25.3526H110.918V26.0859ZM117.998 26.8424L118.486 27.5526L118.42 27.6017C118.374 27.569 118.337 27.5526 118.31 27.5526C118.277 27.5526 118.201 27.5882 118.082 27.6594C117.818 27.8134 117.585 27.9202 117.383 27.9799C117.181 28.0396 116.948 28.0694 116.685 28.0694C116.157 28.0694 115.727 27.9433 115.394 27.6912C115.205 27.5468 115.055 27.3659 114.944 27.1484C114.824 26.9136 114.765 26.6585 114.765 26.3833C114.765 26.0041 114.874 25.6692 115.094 25.3785C115.438 24.9243 115.967 24.6972 116.679 24.6972C116.942 24.6972 117.176 24.727 117.38 24.7867C117.586 24.8463 117.82 24.9532 118.082 25.1071C118.201 25.1784 118.277 25.214 118.31 25.214C118.337 25.214 118.374 25.1976 118.42 25.1649L118.486 25.2169L117.998 25.9242L117.935 25.878C117.937 25.8549 117.939 25.8405 117.94 25.8347C117.942 25.8174 117.943 25.8049 117.943 25.7972C117.943 25.7029 117.813 25.596 117.554 25.4767C117.307 25.3631 117.059 25.3064 116.809 25.3064C116.458 25.3064 116.17 25.3987 115.943 25.5835C115.683 25.7914 115.553 26.058 115.553 26.3833C115.553 26.7105 115.683 26.9781 115.943 27.1859C116.172 27.3688 116.46 27.4602 116.809 27.4602C117.082 27.4602 117.354 27.3919 117.626 27.2552C117.838 27.1474 117.943 27.0531 117.943 26.9723C117.943 26.9684 117.94 26.9415 117.935 26.8914L117.998 26.8424ZM120.805 26.6258V27.414H122.858C122.918 27.414 122.963 27.4005 122.994 27.3736C123.026 27.3467 123.052 27.2976 123.072 27.2264H123.152V28.1849H123.072C123.054 28.1175 123.029 28.0694 122.997 28.0405C122.964 28.0136 122.918 28.0001 122.858 28.0001H119.847V27.9193C119.914 27.902 119.961 27.8769 119.988 27.8442C120.017 27.8115 120.031 27.7653 120.031 27.7056V25.0609C120.031 25.0013 120.018 24.956 119.991 24.9252C119.964 24.8945 119.916 24.8685 119.847 24.8473V24.7665H122.768C122.83 24.7665 122.876 24.753 122.907 24.726C122.94 24.6991 122.966 24.651 122.985 24.5817H123.063V25.5402H122.985C122.966 25.469 122.94 25.4199 122.907 25.393C122.876 25.366 122.83 25.3526 122.768 25.3526H120.805V26.0628H122.024C122.083 26.0628 122.128 26.0493 122.159 26.0224C122.192 25.9954 122.219 25.9473 122.24 25.878H122.318V26.8135H122.24C122.221 26.7442 122.195 26.6961 122.162 26.6691C122.131 26.6402 122.085 26.6258 122.024 26.6258H120.805ZM128.01 26.4006V27.6999C128.01 27.7576 128.023 27.8028 128.05 27.8356C128.079 27.8663 128.127 27.8904 128.195 27.9077V28.0001H126.965V27.9077C127.034 27.8885 127.082 27.8635 127.109 27.8327C127.136 27.8019 127.15 27.7576 127.15 27.6999V24.3622C127.15 24.3026 127.136 24.2573 127.109 24.2265C127.082 24.1957 127.034 24.1707 126.965 24.1515V24.0591H129.425C129.711 24.0591 129.939 24.0783 130.106 24.1168C130.275 24.1553 130.425 24.2217 130.554 24.316C130.686 24.4142 130.79 24.5432 130.865 24.7029C130.94 24.8685 130.978 25.0436 130.978 25.2284C130.978 25.494 130.907 25.7269 130.764 25.9271C130.641 26.0984 130.478 26.2206 130.273 26.2938C130.071 26.365 129.788 26.4006 129.425 26.4006H128.01ZM128.01 25.751H129.324C129.585 25.751 129.769 25.7231 129.875 25.6673C129.942 25.6307 129.996 25.5729 130.037 25.494C130.079 25.4132 130.1 25.3246 130.1 25.2284C130.1 25.1341 130.079 25.0475 130.037 24.9686C129.996 24.8877 129.942 24.829 129.875 24.7924C129.771 24.7366 129.587 24.7087 129.324 24.7087H128.01V25.751ZM133.265 27.414H135.075C135.137 27.414 135.183 27.4005 135.214 27.3736C135.245 27.3467 135.271 27.2976 135.292 27.2264H135.37V28.1849H135.292C135.273 28.1156 135.247 28.0675 135.214 28.0405C135.183 28.0136 135.137 28.0001 135.075 28.0001H132.307V27.9193C132.374 27.902 132.421 27.8769 132.448 27.8442C132.477 27.8115 132.491 27.7653 132.491 27.7056V25.0609C132.491 25.0013 132.478 24.956 132.451 24.9252C132.424 24.8945 132.376 24.8685 132.307 24.8473V24.7665H133.45V24.8473C133.381 24.8665 133.333 24.8925 133.306 24.9252C133.279 24.956 133.265 25.0013 133.265 25.0609V27.414ZM139.04 27.1917H137.553L137.386 27.5439C137.345 27.6286 137.325 27.695 137.325 27.7432C137.325 27.8356 137.387 27.8943 137.51 27.9193V28.0001H136.32V27.9193C136.394 27.9077 136.447 27.8856 136.482 27.8529C136.519 27.8202 136.561 27.7557 136.609 27.6594L137.79 25.2688C137.834 25.1784 137.856 25.0994 137.856 25.0321C137.856 24.9532 137.803 24.8916 137.695 24.8473V24.7665H138.951V24.8473C138.845 24.8896 138.792 24.9551 138.792 25.0436C138.792 25.1071 138.816 25.1851 138.864 25.2775L140.088 27.5959C140.156 27.723 140.209 27.8057 140.247 27.8442C140.286 27.8808 140.344 27.9068 140.423 27.9222V28.0001H139.104V27.9222C139.229 27.901 139.291 27.8423 139.291 27.746C139.291 27.6864 139.267 27.6123 139.219 27.5237L139.04 27.1917ZM138.806 26.7384L138.278 25.7019L137.776 26.7384H138.806ZM142.471 25.8694V27.7056C142.471 27.7653 142.484 27.8115 142.511 27.8442C142.54 27.8769 142.588 27.9029 142.656 27.9222V28.0001H141.582V27.9193C141.649 27.902 141.696 27.8769 141.723 27.8442C141.752 27.8115 141.766 27.7653 141.766 27.7056V25.0609C141.766 25.0013 141.753 24.956 141.726 24.9252C141.699 24.8945 141.651 24.8685 141.582 24.8473V24.7665H142.823V24.8473C142.738 24.8685 142.696 24.906 142.696 24.9599C142.696 25.0061 142.727 25.06 142.788 25.1216L144.521 26.8424V25.0609C144.521 25.0013 144.507 24.956 144.48 24.9252C144.453 24.8925 144.405 24.8665 144.336 24.8473V24.7665H145.41V24.8473C145.341 24.8665 145.293 24.8925 145.266 24.9252C145.239 24.956 145.225 25.0013 145.225 25.0609V27.7056C145.225 27.7653 145.239 27.8115 145.266 27.8442C145.293 27.875 145.341 27.901 145.41 27.9222V28.0001H144.252V27.9222C144.337 27.9048 144.379 27.8692 144.379 27.8153C144.379 27.7884 144.368 27.7605 144.345 27.7316C144.321 27.7027 144.269 27.646 144.186 27.5613L142.471 25.8694ZM147.758 25.8694V27.7056C147.758 27.7653 147.771 27.8115 147.798 27.8442C147.827 27.8769 147.875 27.9029 147.943 27.9222V28.0001H146.869V27.9193C146.936 27.902 146.983 27.8769 147.01 27.8442C147.039 27.8115 147.053 27.7653 147.053 27.7056V25.0609C147.053 25.0013 147.04 24.956 147.013 24.9252C146.986 24.8945 146.938 24.8685 146.869 24.8473V24.7665H148.11V24.8473C148.025 24.8685 147.983 24.906 147.983 24.9599C147.983 25.0061 148.014 25.06 148.075 25.1216L149.808 26.8424V25.0609C149.808 25.0013 149.794 24.956 149.767 24.9252C149.74 24.8925 149.692 24.8665 149.623 24.8473V24.7665H150.697V24.8473C150.628 24.8665 150.58 24.8925 150.553 24.9252C150.526 24.956 150.512 25.0013 150.512 25.0609V27.7056C150.512 27.7653 150.526 27.8115 150.553 27.8442C150.58 27.875 150.628 27.901 150.697 27.9222V28.0001H149.539V27.9222C149.624 27.9048 149.666 27.8692 149.666 27.8153C149.666 27.7884 149.655 27.7605 149.632 27.7316C149.609 27.7027 149.556 27.646 149.473 27.5613L147.758 25.8694ZM153.114 25.0609V27.7056C153.114 27.7653 153.128 27.8115 153.155 27.8442C153.182 27.875 153.23 27.901 153.299 27.9222V28.0001H152.156V27.9193C152.223 27.902 152.27 27.8769 152.297 27.8442C152.326 27.8115 152.34 27.7653 152.34 27.7056V25.0609C152.34 25.0013 152.327 24.956 152.3 24.9252C152.273 24.8945 152.225 24.8685 152.156 24.8473V24.7665H153.299V24.8473C153.23 24.8665 153.182 24.8925 153.155 24.9252C153.128 24.956 153.114 25.0013 153.114 25.0609ZM155.647 25.8694V27.7056C155.647 27.7653 155.66 27.8115 155.687 27.8442C155.716 27.8769 155.764 27.9029 155.832 27.9222V28.0001H154.758V27.9193C154.825 27.902 154.872 27.8769 154.899 27.8442C154.928 27.8115 154.942 27.7653 154.942 27.7056V25.0609C154.942 25.0013 154.929 24.956 154.902 24.9252C154.875 24.8945 154.827 24.8685 154.758 24.8473V24.7665H155.999V24.8473C155.914 24.8685 155.872 24.906 155.872 24.9599C155.872 25.0061 155.903 25.06 155.964 25.1216L157.697 26.8424V25.0609C157.697 25.0013 157.683 24.956 157.656 24.9252C157.629 24.8925 157.581 24.8665 157.512 24.8473V24.7665H158.586V24.8473C158.517 24.8665 158.469 24.8925 158.442 24.9252C158.415 24.956 158.401 25.0013 158.401 25.0609V27.7056C158.401 27.7653 158.415 27.8115 158.442 27.8442C158.469 27.875 158.517 27.901 158.586 27.9222V28.0001H157.428V27.9222C157.513 27.9048 157.555 27.8692 157.555 27.8153C157.555 27.7884 157.544 27.7605 157.521 27.7316C157.498 27.7027 157.445 27.646 157.362 27.5613L155.647 25.8694ZM162.961 26.7528H162.224C162.163 26.7528 162.116 26.7663 162.083 26.7933C162.052 26.8202 162.027 26.8683 162.008 26.9376H161.93V26.083H162.008C162.027 26.1504 162.052 26.1975 162.083 26.2245C162.116 26.2514 162.163 26.2649 162.224 26.2649H163.763V26.3486C163.696 26.3679 163.648 26.3958 163.619 26.4324C163.592 26.4689 163.579 26.5209 163.579 26.5883V27.2697C163.579 27.3293 163.592 27.3755 163.619 27.4082C163.648 27.441 163.696 27.467 163.763 27.4862V27.5526C163.14 27.8971 162.518 28.0694 161.898 28.0694C161.363 28.0694 160.93 27.9433 160.599 27.6912C160.42 27.5526 160.276 27.3813 160.166 27.1773C160.037 26.9347 159.972 26.6759 159.972 26.4006C159.972 26.0195 160.09 25.6807 160.325 25.3843C160.69 24.9262 161.231 24.6972 161.947 24.6972C162.261 24.6972 162.619 24.7665 163.021 24.905C163.181 24.9589 163.274 24.9859 163.301 24.9859C163.334 24.9859 163.373 24.9705 163.417 24.9397L163.486 24.9772L163.102 25.7914L163.033 25.7568C163.033 25.7491 163.033 25.7433 163.033 25.7394C163.033 25.6682 162.962 25.5951 162.819 25.52C162.556 25.3795 162.273 25.3092 161.97 25.3092C161.622 25.3092 161.336 25.4045 161.113 25.5951C160.878 25.7953 160.761 26.0647 160.761 26.4035C160.761 26.7211 160.867 26.9752 161.081 27.1657C161.301 27.3601 161.609 27.4573 162.005 27.4573C162.382 27.4573 162.701 27.3871 162.961 27.2466V26.7528Z" fill="#033603"/>
<path d="M16.407 28.7853L0 8.23976V8.23967L8.23514 0.00448608H17.5671L16.4855 1.57823H8.88708L2.10803 8.35741L16.4179 26.2769L22.2143 19.1464L23.4356 20.1392L16.407 28.7853Z" fill="#033603"/>
<path d="M24.8353 18.6297L23.8073 17.4048L31.4005 8.29728L24.0982 1.57664H19.5731V0.00289917H24.7123L33.5682 8.15353L24.8353 18.6297Z" fill="#033603"/>
<path d="M10.4859 20.1652L7.49084 16.3787L19.0459 0H24.7122L10.4859 20.1652Z" fill="#033603"/>
<path d="M28.3893 24.855H22.487L11.8195 12.1418L16.8633 11.1186L28.3893 24.855Z" fill="#033603"/>
</svg>
