<svg width="35" height="35" viewBox="0 0 35 35" fill="none" xmlns="http://www.w3.org/2000/svg">
<rect width="35" height="35" rx="17.5" fill="#033603"/>
<g clip-path="url(#clip0)">
<path d="M24.71 16.5457L11.7103 10.5458C11.5033 10.4518 11.2563 10.5078 11.1123 10.6858C10.9673 10.8638 10.9623 11.1168 11.1003 11.2998L15.3752 16.9997L11.1003 22.6995C10.9623 22.8825 10.9673 23.1365 11.1113 23.3135C11.2083 23.4345 11.3533 23.4995 11.5003 23.4995C11.5713 23.4995 11.6423 23.4845 11.7093 23.4535L24.709 17.4536C24.887 17.3716 25 17.1947 25 16.9997C25 16.8047 24.887 16.6277 24.71 16.5457Z" fill="white"/>
</g>
<defs>
<clipPath id="clip0">
<rect width="14" height="14" fill="white" transform="translate(11 10)"/>
</clipPath>
</defs>
</svg>
