<svg width="21" height="19" viewBox="0 0 21 19" fill="none" xmlns="http://www.w3.org/2000/svg">
<path fill-rule="evenodd" clip-rule="evenodd" d="M8.93876 13.9163C8.70785 13.9163 8.48698 13.8293 8.32885 13.676L4.26025 9.72496C3.94317 9.41828 3.96073 8.93538 4.29707 8.647C4.63423 8.35863 5.16383 8.37389 5.47924 8.68057L8.9304 12.0304L15.9649 5.01032C16.2778 4.6983 16.8066 4.6777 17.1479 4.9615C17.4884 5.24529 17.5119 5.7282 17.2006 6.03869L9.55621 13.6676C9.39975 13.8247 9.17721 13.9147 8.94462 13.9163H8.93876Z" fill="#231F20"/>
<mask id="mask0" mask-type="alpha" maskUnits="userSpaceOnUse" x="4" y="4" width="14" height="10">
<path fill-rule="evenodd" clip-rule="evenodd" d="M8.93876 13.9163C8.70785 13.9163 8.48698 13.8293 8.32885 13.676L4.26025 9.72496C3.94317 9.41828 3.96073 8.93538 4.29707 8.647C4.63423 8.35863 5.16383 8.37389 5.47924 8.68057L8.9304 12.0304L15.9649 5.01032C16.2778 4.6983 16.8066 4.6777 17.1479 4.9615C17.4884 5.24529 17.5119 5.7282 17.2006 6.03869L9.55621 13.6676C9.39975 13.8247 9.17721 13.9147 8.94462 13.9163H8.93876Z" fill="white"/>
</mask>
<g mask="url(#mask0)">
<rect x="0.686523" y="0.18457" width="20.0794" height="18.3093" fill="#B7BDCB"/>
</g>
</svg>
