<svg width="20" height="20" viewBox="0 0 20 20" fill="none" xmlns="http://www.w3.org/2000/svg">
<path d="M19.7065 5.91855L17.2064 3.41855C17.1409 3.353 17.0574 3.30836 16.9664 3.29028C16.8755 3.27219 16.7813 3.28148 16.6956 3.31695C16.61 3.35243 16.5368 3.41251 16.4853 3.48959C16.4338 3.56667 16.4063 3.65729 16.4063 3.75V4.53125H15.4688V1.875C15.4682 1.41931 15.287 0.982438 14.9648 0.66022C14.6426 0.338001 14.2057 0.156757 13.75 0.15625H6.25C5.79431 0.156757 5.35743 0.338001 5.03522 0.66022C4.713 0.982438 4.53175 1.41931 4.53125 1.875V12.0312H3.59375V11.25C3.59374 11.1573 3.56625 11.0667 3.51474 10.9896C3.46323 10.9125 3.39003 10.8524 3.30438 10.817C3.21872 10.7815 3.12448 10.7722 3.03355 10.7903C2.94263 10.8084 2.85911 10.853 2.79355 10.9186L0.293548 13.4186C0.205647 13.5065 0.156265 13.6257 0.156265 13.75C0.156265 13.8743 0.205647 13.9935 0.293548 14.0814L2.79355 16.5814C3.07191 16.8779 3.60683 16.6547 3.59375 16.25V15.4688H4.53125V18.125C4.53175 18.5807 4.713 19.0176 5.03522 19.3398C5.35743 19.662 5.79431 19.8432 6.25 19.8438H13.75C14.2057 19.8432 14.6426 19.662 14.9648 19.3398C15.287 19.0176 15.4682 18.5807 15.4688 18.125V7.96875H16.4063V8.75C16.3932 9.1548 16.9281 9.37777 17.2064 9.08145L19.7065 6.58145C19.7944 6.49354 19.8437 6.37431 19.8437 6.25C19.8437 6.12569 19.7944 6.00646 19.7065 5.91855ZM6.25 1.09375H13.75C13.9571 1.09399 14.1557 1.17637 14.3022 1.32284C14.4486 1.4693 14.531 1.66787 14.5313 1.875V2.65625H5.46875V1.875C5.46898 1.66787 5.55137 1.4693 5.69783 1.32284C5.84429 1.17637 6.04287 1.09399 6.25 1.09375ZM13.75 18.9062H6.25C6.04287 18.906 5.84429 18.8236 5.69783 18.6772C5.55137 18.5307 5.46898 18.3321 5.46875 18.125V17.3438H14.5313V18.125C14.531 18.3321 14.4486 18.5307 14.3022 18.6772C14.1557 18.8236 13.9571 18.906 13.75 18.9062ZM17.3438 7.61832V7.5C17.3438 7.37568 17.2944 7.25645 17.2065 7.16854C17.1186 7.08064 16.9993 7.03125 16.875 7.03125H13.125C13.0007 7.03125 12.8815 7.08064 12.7935 7.16854C12.7056 7.25645 12.6563 7.37568 12.6563 7.5C12.6563 7.62432 12.7056 7.74355 12.7935 7.83146C12.8815 7.91936 13.0007 7.96875 13.125 7.96875H14.5313V16.4062H5.46875V15.4688H6.875C6.99932 15.4688 7.11855 15.4194 7.20645 15.3315C7.29436 15.2435 7.34375 15.1243 7.34375 15C7.34375 14.8757 7.29436 14.7565 7.20645 14.6685C7.11855 14.5806 6.99932 14.5312 6.875 14.5312H3.125C3.00067 14.5312 2.88145 14.5806 2.79354 14.6685C2.70563 14.7565 2.65624 14.8757 2.65624 15V15.1183L1.28792 13.75L2.65624 12.3817V12.5C2.65624 12.6243 2.70563 12.7435 2.79354 12.8315C2.88145 12.9194 3.00067 12.9688 3.125 12.9688H6.875C6.99932 12.9688 7.11855 12.9194 7.20645 12.8315C7.29436 12.7435 7.34375 12.6243 7.34375 12.5C7.34375 12.3757 7.29436 12.2565 7.20645 12.1685C7.11855 12.0806 6.99932 12.0312 6.875 12.0312H5.46875V3.59375H14.5313V4.53125H13.125C13.0007 4.53125 12.8815 4.58064 12.7935 4.66854C12.7056 4.75645 12.6563 4.87568 12.6563 5C12.6563 5.12432 12.7056 5.24355 12.7935 5.33146C12.8815 5.41936 13.0007 5.46875 13.125 5.46875H16.875C16.9993 5.46875 17.1186 5.41936 17.2065 5.33146C17.2944 5.24355 17.3438 5.12432 17.3438 5V4.88168L18.7121 6.25L17.3438 7.61832Z" fill="black"/>
<path d="M9.37498 7.96875H10.9375C11.0618 7.96888 11.1809 8.01831 11.2688 8.10619C11.3567 8.19407 11.4061 8.31322 11.4062 8.4375C11.4062 8.56182 11.4556 8.68105 11.5435 8.76896C11.6314 8.85686 11.7507 8.90625 11.875 8.90625C11.9993 8.90625 12.1185 8.85686 12.2064 8.76896C12.2943 8.68105 12.3437 8.56182 12.3437 8.4375C12.3433 8.06467 12.195 7.70722 11.9314 7.44359C11.6678 7.17995 11.3103 7.03166 10.9375 7.03125H10.4687V6.25C10.4687 6.12568 10.4193 6.00645 10.3314 5.91854C10.2435 5.83064 10.1243 5.78125 9.99998 5.78125C9.87566 5.78125 9.75644 5.83064 9.66853 5.91854C9.58062 6.00645 9.53123 6.12568 9.53123 6.25V7.03125H9.37498C8.91914 7.03125 8.48197 7.21233 8.15964 7.53466C7.83732 7.85699 7.65623 8.29416 7.65623 8.75C7.65623 9.20584 7.83732 9.64301 8.15964 9.96534C8.48197 10.2877 8.91914 10.4688 9.37498 10.4688H10.625C10.8322 10.4688 11.0309 10.5511 11.1774 10.6976C11.3239 10.8441 11.4062 11.0428 11.4062 11.25C11.4062 11.4572 11.3239 11.6559 11.1774 11.8024C11.0309 11.9489 10.8322 12.0312 10.625 12.0312H9.06248C8.93821 12.0311 8.81906 11.9817 8.73118 11.8938C8.6433 11.8059 8.59387 11.6868 8.59373 11.5625C8.59373 11.4382 8.54435 11.319 8.45644 11.231C8.36853 11.1431 8.2493 11.0938 8.12498 11.0938C8.00066 11.0938 7.88144 11.1431 7.79353 11.231C7.70562 11.319 7.65623 11.4382 7.65623 11.5625C7.65665 11.9353 7.80494 12.2928 8.06857 12.5564C8.33221 12.82 8.68965 12.9683 9.06248 12.9688H9.53123V13.75C9.53123 13.8743 9.58062 13.9935 9.66853 14.0815C9.75644 14.1694 9.87566 14.2188 9.99998 14.2188C10.1243 14.2188 10.2435 14.1694 10.3314 14.0815C10.4193 13.9935 10.4687 13.8743 10.4687 13.75V12.9688H10.625C11.0808 12.9688 11.518 12.7877 11.8403 12.4653C12.1627 12.143 12.3437 11.7058 12.3437 11.25C12.3437 10.7942 12.1627 10.357 11.8403 10.0347C11.518 9.71233 11.0808 9.53125 10.625 9.53125H9.37498C9.16778 9.53125 8.96907 9.44894 8.82256 9.30243C8.67604 9.15591 8.59373 8.9572 8.59373 8.75C8.59373 8.5428 8.67604 8.34409 8.82256 8.19757C8.96907 8.05106 9.16778 7.96875 9.37498 7.96875Z" fill="black"/>
</svg>
