<svg width="20" height="20" viewBox="0 0 20 20" fill="none" xmlns="http://www.w3.org/2000/svg">
<g clip-path="url(#clip0)">
<path d="M16.2143 9.77237C18.2641 7.92965 18.4319 4.77418 16.5892 2.72441C14.8991 0.844443 12.0703 0.525067 10.0036 1.98095C7.75069 0.390971 4.63544 0.928399 3.04547 3.18128C1.58653 5.2485 1.90461 8.08028 3.7858 9.77233C1.44838 11.0045 -0.0104704 13.4336 0.000118289 16.0759V18.2187C0.000118289 18.6132 0.319913 18.933 0.714414 18.933H19.2857C19.6802 18.933 20 18.6132 20 18.2187V16.0759C20.0106 13.4336 18.5517 11.0045 16.2143 9.77237ZM12.8571 2.50452C14.8268 2.50235 16.4253 4.0973 16.4275 6.06696C16.4291 7.4717 15.6059 8.74648 14.325 9.32304C14.27 9.34803 14.215 9.37088 14.1593 9.39449C13.983 9.46559 13.8012 9.52218 13.6157 9.56378C13.58 9.57165 13.5443 9.57592 13.5079 9.58307C13.3006 9.62279 13.0903 9.64405 12.8793 9.64665C12.7843 9.64665 12.6886 9.63949 12.5936 9.63095C12.5579 9.63095 12.5221 9.63095 12.4864 9.6238C12.0804 9.576 11.6855 9.45961 11.3186 9.27952C11.305 9.27307 11.2893 9.27378 11.2757 9.26809C11.2043 9.23382 11.1329 9.20381 11.0693 9.16522C11.075 9.15806 11.0786 9.15024 11.0843 9.14308C11.4118 8.72221 11.67 8.25179 11.8492 7.74952L11.8714 7.6895C11.9529 7.4496 12.0162 7.20393 12.0607 6.95449C12.0671 6.91808 12.0721 6.88304 12.0778 6.84379C12.1192 6.58987 12.1409 6.33319 12.1428 6.07592C12.1408 5.81915 12.1191 5.56293 12.0778 5.30947C12.0721 5.27235 12.0671 5.23803 12.0607 5.19878C12.0162 4.94938 11.9529 4.70366 11.8714 4.46376L11.8492 4.40375C11.67 3.90147 11.4118 3.43105 11.0843 3.01018C11.0785 3.00303 11.075 2.9952 11.0693 2.98804C11.6119 2.67147 12.2289 2.50456 12.8571 2.50452ZM3.57151 6.07596C3.56645 4.10864 5.15713 2.50971 7.12445 2.50465C8.04662 2.50226 8.93381 2.85763 9.59935 3.49597C9.64078 3.53598 9.68151 3.57595 9.72147 3.61738C9.84414 3.74591 9.95727 3.88318 10.0601 4.02808C10.0915 4.07236 10.1201 4.11953 10.1493 4.16523C10.2491 4.31887 10.3368 4.48008 10.4115 4.64737C10.4293 4.68809 10.4429 4.72953 10.4586 4.77021C10.5339 4.95524 10.5931 5.14642 10.6357 5.34162C10.6408 5.36305 10.6422 5.38447 10.6465 5.40661C10.7369 5.85013 10.7369 6.30736 10.6465 6.75087C10.6422 6.77301 10.6407 6.79444 10.6357 6.81587C10.5932 7.01107 10.5339 7.20225 10.4586 7.38728C10.4429 7.42801 10.4293 7.46944 10.4115 7.51012C10.3367 7.67715 10.2491 7.83812 10.1493 7.99155C10.12 8.03725 10.0915 8.08442 10.0601 8.1287C9.95731 8.27364 9.84414 8.41087 9.72147 8.5394C9.68146 8.58083 9.64074 8.62084 9.59935 8.66081C9.31015 8.93641 8.97671 9.16145 8.61293 9.32652C8.55509 9.35293 8.4965 9.37724 8.43723 9.39796C8.26505 9.46631 8.08789 9.52122 7.90725 9.56223C7.86226 9.57223 7.81581 9.57793 7.7701 9.58579C7.57616 9.62191 7.3795 9.64171 7.18225 9.6451H7.10369C6.90644 9.64175 6.70977 9.62191 6.51583 9.58579C6.47013 9.57793 6.42367 9.57223 6.37868 9.56223C6.19804 9.52122 6.02084 9.46631 5.8487 9.39796C5.7894 9.3744 5.73084 9.35012 5.67301 9.32652C4.39508 8.74954 3.57314 7.47806 3.57151 6.07596ZM12.8571 17.5045H1.42867V16.0759C1.4182 13.6554 2.94322 11.4944 5.22719 10.6931C6.4533 11.2036 7.83246 11.2036 9.05861 10.6931C9.29709 10.7802 9.5295 10.8831 9.75433 11.001C9.9029 11.0774 10.0401 11.1645 10.1829 11.2524C10.2758 11.3102 10.37 11.3667 10.4593 11.4302C10.5972 11.5281 10.7272 11.6345 10.855 11.7438C10.9372 11.8152 11.0186 11.8866 11.0957 11.9581C11.2136 12.0695 11.3243 12.1873 11.4307 12.3081C11.5071 12.3952 11.5814 12.4838 11.6522 12.5752C11.7457 12.6952 11.835 12.8181 11.9179 12.9445C11.9893 13.0516 12.0529 13.1631 12.1157 13.2745C12.1872 13.3973 12.2529 13.5202 12.3128 13.6481C12.3729 13.7759 12.4257 13.9159 12.4771 14.0524C12.5221 14.1709 12.57 14.2888 12.6071 14.4095C12.6571 14.5752 12.6921 14.7466 12.7271 14.9181C12.7485 15.0195 12.7764 15.1188 12.7921 15.2216C12.8344 15.5044 12.8561 15.7899 12.8571 16.0759V17.5045H12.8571ZM18.5714 17.5045H14.2857V16.0759C14.2857 15.8523 14.2729 15.6309 14.2529 15.4116C14.2471 15.3473 14.2372 15.2838 14.23 15.2195C14.2107 15.0616 14.1886 14.9052 14.1586 14.7502C14.1457 14.684 14.1322 14.6175 14.1179 14.5509C14.0836 14.3918 14.0438 14.2342 13.9986 14.078C13.9836 14.0266 13.97 13.9744 13.9543 13.9238C13.7543 13.2844 13.4645 12.6767 13.0936 12.1188L13.0657 12.0781C12.9429 11.8957 12.8117 11.7193 12.6722 11.5488L12.6672 11.5424C12.5243 11.3652 12.3693 11.1931 12.2065 11.0302C12.2158 11.0302 12.2258 11.0302 12.2358 11.0302C12.4373 11.0567 12.6403 11.071 12.8436 11.0731H12.8829C13.0711 11.0714 13.259 11.0593 13.4458 11.0367C13.5043 11.0295 13.5622 11.0188 13.6208 11.0095C13.7727 10.9862 13.9227 10.9559 14.0708 10.9188C14.1129 10.9081 14.1558 10.8981 14.1986 10.8859C14.393 10.8331 14.5838 10.7682 14.77 10.6917C17.0557 11.4922 18.5821 13.6542 18.5715 16.0759V17.5045H18.5714Z" fill="black"/>
</g>
<defs>
<clipPath id="clip0">
<rect width="20" height="20" fill="white"/>
</clipPath>
</defs>
</svg>
