<svg width="194" height="34" viewBox="0 0 194 34" fill="none" xmlns="http://www.w3.org/2000/svg">
<path d="M49.942 10.4151L47.5049 12.4005V16.7517C47.5049 16.9974 47.5603 17.1876 47.6713 17.3224C47.7902 17.4492 47.9883 17.5482 48.2657 17.6196V18H43.2012V17.6196C43.4866 17.5403 43.6847 17.4373 43.7957 17.3105C43.9066 17.1837 43.9621 16.9974 43.9621 16.7517V3.00861C43.9621 2.77084 43.9066 2.58855 43.7957 2.46174C43.6847 2.33493 43.4866 2.2319 43.2012 2.15264V1.77221H48.2657V2.15264C47.9804 2.22397 47.7823 2.32701 47.6713 2.46174C47.5603 2.58855 47.5049 2.77084 47.5049 3.00861V8.69131L54.1862 3.2345C54.4953 2.98087 54.6499 2.77877 54.6499 2.62818C54.6499 2.39834 54.42 2.23983 53.9603 2.15264V1.77221H60.5941V2.15264C60.3167 2.20812 60.1186 2.27153 59.9997 2.34286C59.8808 2.41419 59.536 2.68366 58.9654 3.15128L58.05 3.91214L52.5337 8.34655L58.787 15.872C59.3656 16.5694 59.7817 17.0212 60.0353 17.2272C60.2969 17.4254 60.6218 17.5562 61.0102 17.6196V18H54.6736V17.6196C55.0937 17.5324 55.3037 17.3818 55.3037 17.1678C55.3037 17.0568 55.1135 16.7636 54.7331 16.2881L49.942 10.4151ZM81.8055 5.89752V12.9474C81.8055 14.5563 81.4885 15.7372 80.8545 16.4902C79.8321 17.6869 77.9061 18.2853 75.0767 18.2853C73.1824 18.2853 71.6528 17.996 70.4877 17.4175C69.6476 16.9974 69.073 16.399 68.7639 15.6223C68.4785 14.909 68.3359 14.0174 68.3359 12.9474V5.89752C68.3359 5.65182 68.2804 5.46557 68.1694 5.33876C68.0585 5.21195 67.8603 5.10495 67.575 5.01777V4.68489H72.2947V5.01777C72.0015 5.09703 71.7994 5.20402 71.6884 5.33876C71.5775 5.46557 71.522 5.65182 71.522 5.89752V12.3054C71.522 13.0504 71.5854 13.6211 71.7122 14.0174C71.8469 14.4136 72.0768 14.7386 72.4017 14.9922C73.0516 15.5074 73.9908 15.765 75.2193 15.765C76.4478 15.765 77.387 15.5074 78.0369 14.9922C78.3539 14.7386 78.5758 14.4136 78.7026 14.0174C78.8295 13.6211 78.8929 13.0504 78.8929 12.3054V5.89752C78.8929 5.65182 78.8374 5.46557 78.7264 5.33876C78.6234 5.21195 78.4252 5.10495 78.132 5.01777V4.68489H82.5664V5.01777C82.2811 5.09703 82.0829 5.20402 81.972 5.33876C81.861 5.46557 81.8055 5.65182 81.8055 5.89752ZM97.1797 11.925L95.2895 13.4705V16.7874C95.2895 17.0331 95.3449 17.2233 95.4559 17.358C95.5669 17.4848 95.765 17.5918 96.0503 17.679V18H91.3425V17.6671C91.6199 17.5958 91.8141 17.4928 91.925 17.358C92.0439 17.2233 92.1033 17.0331 92.1033 16.7874V5.89752C92.1033 5.65182 92.0479 5.46557 91.9369 5.33876C91.826 5.21195 91.6278 5.10495 91.3425 5.01777V4.68489H96.0503V5.01777C95.765 5.09703 95.5669 5.20402 95.4559 5.33876C95.3449 5.46557 95.2895 5.65182 95.2895 5.89752V10.2606L100.295 6.26606C100.667 5.97281 100.853 5.71523 100.853 5.49331C100.853 5.25554 100.623 5.09703 100.164 5.01777V4.68489H106.156V5.00588C105.854 5.05343 105.601 5.14458 105.395 5.27932C105.197 5.41405 104.697 5.83015 103.897 6.52761L99.4029 10.106L104.348 15.7887C104.983 16.5258 105.434 17.0053 105.704 17.2272C105.981 17.4492 106.298 17.5998 106.655 17.679V18H100.83V17.679C101.265 17.576 101.483 17.4175 101.483 17.2035C101.483 17.1242 101.456 17.0489 101.4 16.9776C101.353 16.8983 101.17 16.6764 100.853 16.3118L97.1797 11.925ZM125.536 14.6712H119.414L118.724 16.1216C118.558 16.4703 118.474 16.7438 118.474 16.9419C118.474 17.3224 118.728 17.5641 119.235 17.6671V18H114.337V17.6671C114.638 17.6196 114.86 17.5284 115.003 17.3937C115.154 17.259 115.328 16.9934 115.526 16.5972L120.388 6.75349C120.571 6.38098 120.662 6.05603 120.662 5.77863C120.662 5.45368 120.44 5.20006 119.996 5.01777V4.68489H125.168V5.01777C124.732 5.19213 124.514 5.46161 124.514 5.82619C124.514 6.08773 124.613 6.40872 124.811 6.78915L129.852 16.3356C130.129 16.8587 130.347 17.1995 130.506 17.358C130.664 17.5086 130.906 17.6156 131.231 17.679V18H125.798V17.679C126.313 17.5918 126.57 17.3501 126.57 16.9538C126.57 16.7081 126.471 16.403 126.273 16.0384L125.536 14.6712ZM124.573 12.8047L122.398 8.53676L120.329 12.8047H124.573ZM139.805 16.7874V5.89752C139.805 5.65182 139.749 5.46557 139.638 5.33876C139.527 5.21195 139.329 5.10495 139.044 5.01777V4.68489H146.855C148.479 4.68489 149.759 4.887 150.695 5.2912C152.01 5.86185 152.957 6.80501 153.536 8.12066C153.94 9.04004 154.142 10.114 154.142 11.3424C154.142 13.6171 153.465 15.3409 152.109 16.5139C151.499 17.037 150.778 17.4175 149.946 17.6552C149.121 17.8851 148.091 18 146.855 18H139.044V17.6671C139.321 17.5958 139.515 17.4928 139.626 17.358C139.745 17.2233 139.805 17.0331 139.805 16.7874ZM142.991 15.5866H146.391C147.952 15.5866 149.086 15.23 149.791 14.5167C150.528 13.7717 150.897 12.7136 150.897 11.3424C150.897 9.97131 150.528 8.91323 149.791 8.16822C149.426 7.79571 148.975 7.52624 148.436 7.3598C147.897 7.18544 147.215 7.09825 146.391 7.09825H142.991V15.5866ZM166.83 5.89752V16.7874C166.83 17.0331 166.885 17.2233 166.996 17.358C167.107 17.4848 167.305 17.5918 167.591 17.679V18H162.883V17.6671C163.16 17.5958 163.354 17.4928 163.465 17.358C163.584 17.2233 163.644 17.0331 163.644 16.7874V5.89752C163.644 5.65182 163.588 5.46557 163.477 5.33876C163.366 5.21195 163.168 5.10495 162.883 5.01777V4.68489H167.591V5.01777C167.305 5.09703 167.107 5.20402 166.996 5.33876C166.885 5.46557 166.83 5.65182 166.83 5.89752ZM186.733 14.6712H180.611L179.921 16.1216C179.755 16.4703 179.672 16.7438 179.672 16.9419C179.672 17.3224 179.925 17.5641 180.432 17.6671V18H175.534V17.6671C175.836 17.6196 176.057 17.5284 176.2 17.3937C176.351 17.259 176.525 16.9934 176.723 16.5972L181.586 6.75349C181.768 6.38098 181.859 6.05603 181.859 5.77863C181.859 5.45368 181.637 5.20006 181.193 5.01777V4.68489H186.365V5.01777C185.929 5.19213 185.711 5.46161 185.711 5.82619C185.711 6.08773 185.81 6.40872 186.008 6.78915L191.049 16.3356C191.326 16.8587 191.544 17.1995 191.703 17.358C191.861 17.5086 192.103 17.6156 192.428 17.679V18H186.995V17.679C187.51 17.5918 187.768 17.3501 187.768 16.9538C187.768 16.7081 187.669 16.403 187.47 16.0384L186.733 14.6712ZM185.77 12.8047L183.595 8.53676L181.526 12.8047H185.77Z" fill="#DBF1DC"/>
<path d="M44.6474 26.8784V28.1488H47.6297C47.6977 28.1488 47.7497 28.1329 47.786 28.1012C47.8222 28.0695 47.8516 28.0129 47.8743 27.9314H47.983V29.1304H47.8743C47.8516 29.0489 47.8222 28.9923 47.786 28.9606C47.7497 28.9289 47.6977 28.9131 47.6297 28.9131H43.4178V28.8044C43.4993 28.7817 43.5559 28.7523 43.5876 28.716C43.6193 28.6798 43.6352 28.6266 43.6352 28.5564V24.6332C43.6352 24.563 43.6193 24.5098 43.5876 24.4736C43.5559 24.4373 43.4993 24.4079 43.4178 24.3852V24.2765H47.5482C47.6161 24.2765 47.6682 24.2607 47.7044 24.229C47.7407 24.195 47.7701 24.1373 47.7928 24.0558H47.9015V25.2548H47.7928C47.7701 25.1755 47.7407 25.1201 47.7044 25.0884C47.6682 25.0567 47.6161 25.0408 47.5482 25.0408H44.6474V26.1413H46.5292C46.5971 26.1413 46.6492 26.1255 46.6854 26.0938C46.7217 26.0621 46.7511 26.0055 46.7737 25.9239H46.8824V27.0958H46.7737C46.7511 27.0166 46.7217 26.9611 46.6854 26.9294C46.6492 26.8954 46.5971 26.8784 46.5292 26.8784H44.6474ZM50.7078 26.4063V28.5666C50.7078 28.6368 50.7237 28.6911 50.7554 28.7296C50.7893 28.7681 50.846 28.7987 50.9252 28.8213V28.9131H49.6616V28.8179C49.7409 28.7976 49.7964 28.7681 49.8281 28.7296C49.862 28.6911 49.879 28.6368 49.879 28.5666V25.4552C49.879 25.385 49.8632 25.3318 49.8315 25.2956C49.7998 25.2593 49.7432 25.2288 49.6616 25.2038V25.1087H51.1222V25.2038C51.0226 25.2288 50.9728 25.2729 50.9728 25.3363C50.9728 25.3907 51.009 25.4541 51.0815 25.5265L53.1195 27.551V25.4552C53.1195 25.385 53.1036 25.3318 53.0719 25.2956C53.0402 25.2571 52.9836 25.2265 52.9021 25.2038V25.1087H54.1657V25.2038C54.0842 25.2265 54.0275 25.2571 53.9958 25.2956C53.9641 25.3318 53.9483 25.385 53.9483 25.4552V28.5666C53.9483 28.6368 53.9641 28.6911 53.9958 28.7296C54.0275 28.7659 54.0842 28.7964 54.1657 28.8213V28.9131H52.8036V28.8213C52.9032 28.801 52.953 28.7591 52.953 28.6957C52.953 28.664 52.9395 28.6311 52.9123 28.5972C52.8851 28.5632 52.8228 28.4964 52.7255 28.3968L50.7078 26.4063ZM57.9809 25.7983V28.5666C57.9809 28.6368 57.9967 28.6911 58.0284 28.7296C58.0601 28.7659 58.1167 28.7964 58.1982 28.8213V28.9131H56.8532V28.8179C56.9324 28.7976 56.9879 28.7681 57.0196 28.7296C57.0536 28.6911 57.0705 28.6368 57.0705 28.5666V25.7983H55.9496C55.8772 25.7983 55.8217 25.8153 55.7832 25.8492C55.747 25.8809 55.7175 25.9375 55.6949 26.0191H55.6032V24.8913H55.6983C55.7186 24.9706 55.747 25.0272 55.7832 25.0612C55.8217 25.0929 55.8772 25.1087 55.9496 25.1087H59.1018C59.1742 25.1087 59.2286 25.0929 59.2648 25.0612C59.3033 25.0295 59.3339 24.9729 59.3565 24.8913H59.4482V26.0191H59.3565C59.3339 25.9375 59.3033 25.8809 59.2648 25.8492C59.2286 25.8153 59.1742 25.7983 59.1018 25.7983H57.9809ZM62.061 27.2962V28.2235H64.4761C64.5463 28.2235 64.5995 28.2077 64.6357 28.176C64.6742 28.1443 64.7048 28.0865 64.7274 28.0027H64.8225V29.1304H64.7274C64.707 29.0512 64.6776 28.9946 64.6391 28.9606C64.6006 28.9289 64.5463 28.9131 64.4761 28.9131H60.9333V28.8179C61.0125 28.7976 61.068 28.7681 61.0997 28.7296C61.1337 28.6911 61.1507 28.6368 61.1507 28.5666V25.4552C61.1507 25.385 61.1348 25.3318 61.1031 25.2956C61.0714 25.2593 61.0148 25.2288 60.9333 25.2038V25.1087H64.3708C64.4432 25.1087 64.4976 25.0929 64.5338 25.0612C64.5723 25.0295 64.6029 24.9729 64.6255 24.8913H64.7172V26.0191H64.6255C64.6029 25.9353 64.5723 25.8775 64.5338 25.8458C64.4976 25.8141 64.4432 25.7983 64.3708 25.7983H62.061V26.6339H63.4944C63.5646 26.6339 63.6178 26.618 63.654 26.5863C63.6925 26.5546 63.7242 26.498 63.7492 26.4165H63.8409V27.517H63.7492C63.7265 27.4355 63.6959 27.3789 63.6574 27.3472C63.6212 27.3132 63.5669 27.2962 63.4944 27.2962H62.061ZM67.5677 27.3506V28.5666C67.5677 28.6368 67.5836 28.6911 67.6153 28.7296C67.647 28.7659 67.7036 28.7964 67.7851 28.8213V28.9131H66.44V28.8179C66.5193 28.7976 66.5748 28.7681 66.6065 28.7296C66.6404 28.6911 66.6574 28.6368 66.6574 28.5666V25.4552C66.6574 25.385 66.6416 25.3318 66.6099 25.2956C66.5782 25.2593 66.5216 25.2288 66.44 25.2038V25.1087H68.9332C69.257 25.1087 69.5039 25.1257 69.6737 25.1597C69.8435 25.1914 69.9953 25.2503 70.1289 25.3363C70.4029 25.5152 70.5399 25.8073 70.5399 26.2127C70.5399 26.5206 70.4549 26.7618 70.2851 26.9362C70.1175 27.1083 69.8458 27.2328 69.4699 27.3098L70.19 28.3152C70.3213 28.5009 70.4255 28.6277 70.5025 28.6957C70.5818 28.7613 70.6712 28.8032 70.7708 28.8213V28.9131H69.1744V28.8213C69.2921 28.7896 69.351 28.7387 69.351 28.6685C69.351 28.6187 69.3148 28.5428 69.2423 28.4409L68.4815 27.3506H67.5677ZM67.5677 26.661H68.94C69.1483 26.661 69.3023 26.6384 69.402 26.5931C69.5424 26.532 69.6126 26.4108 69.6126 26.2297C69.6126 26.0689 69.5627 25.9568 69.4631 25.8934C69.3657 25.83 69.1914 25.7983 68.94 25.7983H67.5677V26.661ZM73.4006 27.3506V28.5666C73.4006 28.6368 73.4164 28.6911 73.4481 28.7296C73.4798 28.7659 73.5364 28.7964 73.618 28.8213V28.9131H72.2729V28.8179C72.3521 28.7976 72.4076 28.7681 72.4393 28.7296C72.4733 28.6911 72.4903 28.6368 72.4903 28.5666V25.4552C72.4903 25.385 72.4744 25.3318 72.4427 25.2956C72.411 25.2593 72.3544 25.2288 72.2729 25.2038V25.1087H74.7525C75.2439 25.1087 75.6141 25.1823 75.8632 25.3295C76.0081 25.4156 76.1213 25.5379 76.2029 25.6964C76.2844 25.8549 76.3251 26.0326 76.3251 26.2297C76.3251 26.6078 76.1961 26.8897 75.9379 27.0754C75.6798 27.2589 75.2846 27.3506 74.7525 27.3506H73.4006ZM73.4006 26.661H74.6981C74.9359 26.661 75.1012 26.6384 75.194 26.5931C75.3299 26.5274 75.3978 26.4063 75.3978 26.2297C75.3978 26.053 75.3299 25.9319 75.194 25.8662C75.1035 25.8209 74.9382 25.7983 74.6981 25.7983H73.4006V26.661ZM78.9821 27.3506V28.5666C78.9821 28.6368 78.9979 28.6911 79.0296 28.7296C79.0613 28.7659 79.1179 28.7964 79.1994 28.8213V28.9131H77.8543V28.8179C77.9336 28.7976 77.9891 28.7681 78.0208 28.7296C78.0547 28.6911 78.0717 28.6368 78.0717 28.5666V25.4552C78.0717 25.385 78.0559 25.3318 78.0242 25.2956C77.9925 25.2593 77.9359 25.2288 77.8543 25.2038V25.1087H80.3475C80.6713 25.1087 80.9182 25.1257 81.088 25.1597C81.2578 25.1914 81.4096 25.2503 81.5432 25.3363C81.8172 25.5152 81.9542 25.8073 81.9542 26.2127C81.9542 26.5206 81.8693 26.7618 81.6994 26.9362C81.5319 27.1083 81.2601 27.2328 80.8842 27.3098L81.6043 28.3152C81.7357 28.5009 81.8398 28.6277 81.9168 28.6957C81.9961 28.7613 82.0855 28.8032 82.1852 28.8213V28.9131H80.5887V28.8213C80.7064 28.7896 80.7653 28.7387 80.7653 28.6685C80.7653 28.6187 80.7291 28.5428 80.6566 28.4409L79.8958 27.3506H78.9821ZM78.9821 26.661H80.3543C80.5627 26.661 80.7166 26.6384 80.8163 26.5931C80.9567 26.532 81.0269 26.4108 81.0269 26.2297C81.0269 26.0689 80.9771 25.9568 80.8774 25.8934C80.78 25.83 80.6057 25.7983 80.3543 25.7983H78.9821V26.661ZM84.8149 25.4552V28.5666C84.8149 28.6368 84.8307 28.6911 84.8624 28.7296C84.8941 28.7659 84.9508 28.7964 85.0323 28.8213V28.9131H83.6872V28.8179C83.7664 28.7976 83.8219 28.7681 83.8536 28.7296C83.8876 28.6911 83.9046 28.6368 83.9046 28.5666V25.4552C83.9046 25.385 83.8887 25.3318 83.857 25.2956C83.8253 25.2593 83.7687 25.2288 83.6872 25.2038V25.1087H85.0323V25.2038C84.9508 25.2265 84.8941 25.2571 84.8624 25.2956C84.8307 25.3318 84.8149 25.385 84.8149 25.4552ZM90.4066 25.4518L89.948 26.3383L89.8665 26.2942C89.8665 26.2195 89.8427 26.1606 89.7951 26.1176C89.6661 26.0021 89.4759 25.907 89.2245 25.8322C88.9731 25.7575 88.7184 25.7201 88.4602 25.7201C88.2406 25.7201 88.0458 25.7507 87.876 25.8119C87.6314 25.9002 87.5092 26.0281 87.5092 26.1957C87.5092 26.3066 87.568 26.3859 87.6858 26.4335C87.8035 26.4787 88.0311 26.515 88.3685 26.5422L88.9052 26.5829C89.374 26.6191 89.7306 26.7097 89.9752 26.8546C90.111 26.9362 90.2231 27.0449 90.3114 27.1807C90.4224 27.3506 90.4779 27.5419 90.4779 27.7548C90.4779 28.142 90.3035 28.4477 89.9548 28.6719C89.6219 28.887 89.1713 28.9946 88.6029 28.9946C88.03 28.9946 87.4763 28.8734 86.9419 28.6311C86.9057 28.6153 86.8751 28.6074 86.8502 28.6074C86.8049 28.6074 86.763 28.6345 86.7245 28.6889L86.6396 28.6549L87.0302 27.7242L87.1151 27.7582C87.1151 27.7718 87.1151 27.7808 87.1151 27.7853C87.1151 27.8442 87.1378 27.894 87.1831 27.9348C87.2963 28.0344 87.4922 28.1216 87.7707 28.1963C88.0492 28.2688 88.3244 28.305 88.5961 28.305C88.8361 28.305 89.0513 28.2733 89.2415 28.2099C89.477 28.1329 89.5947 28.0084 89.5947 27.8363C89.5947 27.6982 89.5132 27.6019 89.3502 27.5476C89.2415 27.5113 89.0456 27.4808 88.7625 27.4559L88.2293 27.4117C87.9417 27.3891 87.722 27.3596 87.5703 27.3234C87.4186 27.2872 87.2861 27.2339 87.1729 27.1637C87.028 27.0732 86.9147 26.9498 86.8332 26.7935C86.7517 26.6373 86.7109 26.4663 86.7109 26.2806C86.7109 25.8639 86.8898 25.5458 87.2476 25.3261C87.5737 25.1269 87.9768 25.0272 88.4568 25.0272C88.7173 25.0272 88.9596 25.0567 89.1837 25.1155C89.4102 25.1721 89.6797 25.2729 89.9922 25.4178C90.085 25.4609 90.1495 25.4824 90.1858 25.4824C90.222 25.4824 90.2684 25.4575 90.325 25.4076L90.4066 25.4518ZM93.2061 27.2962V28.2235H95.6212C95.6914 28.2235 95.7446 28.2077 95.7808 28.176C95.8193 28.1443 95.8499 28.0865 95.8725 28.0027H95.9677V29.1304H95.8725C95.8522 29.0512 95.8227 28.9946 95.7842 28.9606C95.7457 28.9289 95.6914 28.9131 95.6212 28.9131H92.0784V28.8179C92.1577 28.7976 92.2132 28.7681 92.2449 28.7296C92.2788 28.6911 92.2958 28.6368 92.2958 28.5666V25.4552C92.2958 25.385 92.28 25.3318 92.2483 25.2956C92.2165 25.2593 92.1599 25.2288 92.0784 25.2038V25.1087H95.5159C95.5884 25.1087 95.6427 25.0929 95.6789 25.0612C95.7174 25.0295 95.748 24.9729 95.7706 24.8913H95.8624V26.0191H95.7706C95.748 25.9353 95.7174 25.8775 95.6789 25.8458C95.6427 25.8141 95.5884 25.7983 95.5159 25.7983H93.2061V26.6339H94.6395C94.7097 26.6339 94.7629 26.618 94.7992 26.5863C94.8377 26.5546 94.8694 26.498 94.8943 26.4165H94.986V27.517H94.8943C94.8716 27.4355 94.8411 27.3789 94.8026 27.3472C94.7663 27.3132 94.712 27.2962 94.6395 27.2962H93.2061ZM101.682 27.0211V28.5598C101.682 28.6277 101.698 28.6809 101.73 28.7194C101.764 28.7557 101.82 28.784 101.9 28.8044V28.9131H100.453V28.8044C100.534 28.7817 100.591 28.7523 100.623 28.716C100.654 28.6798 100.67 28.6277 100.67 28.5598V24.6332C100.67 24.563 100.654 24.5098 100.623 24.4736C100.591 24.4373 100.534 24.4079 100.453 24.3852V24.2765H103.353C103.707 24.2765 103.986 24.2969 104.192 24.3377C104.401 24.3784 104.582 24.4498 104.736 24.5517C104.915 24.6694 105.048 24.8291 105.137 25.0306C105.221 25.2254 105.262 25.4337 105.262 25.6556C105.262 26.4119 104.842 26.8546 104.002 26.9837L104.902 28.2643C105.061 28.4885 105.176 28.6334 105.249 28.6991C105.324 28.7625 105.414 28.7976 105.521 28.8044V28.9131H103.843V28.8044C103.958 28.7862 104.016 28.7455 104.016 28.6821C104.016 28.6413 103.963 28.5428 103.856 28.3866L102.919 27.0211H101.682ZM101.682 26.2568H103.245C103.476 26.2568 103.639 26.25 103.734 26.2364C103.829 26.2229 103.916 26.1946 103.995 26.1515C104.168 26.0587 104.254 25.8911 104.254 25.6488C104.254 25.4065 104.168 25.2389 103.995 25.1461C103.914 25.1008 103.827 25.0725 103.734 25.0612C103.643 25.0476 103.48 25.0408 103.245 25.0408H101.682V26.2568ZM108.198 27.2962V28.2235H110.613C110.683 28.2235 110.736 28.2077 110.773 28.176C110.811 28.1443 110.842 28.0865 110.864 28.0027H110.959V29.1304H110.864C110.844 29.0512 110.814 28.9946 110.776 28.9606C110.737 28.9289 110.683 28.9131 110.613 28.9131H107.07V28.8179C107.149 28.7976 107.205 28.7681 107.237 28.7296C107.271 28.6911 107.288 28.6368 107.288 28.5666V25.4552C107.288 25.385 107.272 25.3318 107.24 25.2956C107.208 25.2593 107.152 25.2288 107.07 25.2038V25.1087H110.508C110.58 25.1087 110.634 25.0929 110.671 25.0612C110.709 25.0295 110.74 24.9729 110.762 24.8913H110.854V26.0191H110.762C110.74 25.9353 110.709 25.8775 110.671 25.8458C110.634 25.8141 110.58 25.7983 110.508 25.7983H108.198V26.6339H109.631C109.701 26.6339 109.755 26.618 109.791 26.5863C109.829 26.5546 109.861 26.498 109.886 26.4165H109.978V27.517H109.886C109.863 27.4355 109.833 27.3789 109.794 27.3472C109.758 27.3132 109.704 27.2962 109.631 27.2962H108.198ZM116.235 25.4518L115.777 26.3383L115.695 26.2942C115.695 26.2195 115.671 26.1606 115.624 26.1176C115.495 26.0021 115.304 25.907 115.053 25.8322C114.802 25.7575 114.547 25.7201 114.289 25.7201C114.069 25.7201 113.874 25.7507 113.705 25.8119C113.46 25.9002 113.338 26.0281 113.338 26.1957C113.338 26.3066 113.397 26.3859 113.514 26.4335C113.632 26.4787 113.86 26.515 114.197 26.5422L114.734 26.5829C115.203 26.6191 115.559 26.7097 115.804 26.8546C115.94 26.9362 116.052 27.0449 116.14 27.1807C116.251 27.3506 116.306 27.5419 116.306 27.7548C116.306 28.142 116.132 28.4477 115.783 28.6719C115.451 28.887 115 28.9946 114.432 28.9946C113.859 28.9946 113.305 28.8734 112.771 28.6311C112.734 28.6153 112.704 28.6074 112.679 28.6074C112.634 28.6074 112.592 28.6345 112.553 28.6889L112.468 28.6549L112.859 27.7242L112.944 27.7582C112.944 27.7718 112.944 27.7808 112.944 27.7853C112.944 27.8442 112.966 27.894 113.012 27.9348C113.125 28.0344 113.321 28.1216 113.599 28.1963C113.878 28.2688 114.153 28.305 114.425 28.305C114.665 28.305 114.88 28.2733 115.07 28.2099C115.306 28.1329 115.423 28.0084 115.423 27.8363C115.423 27.6982 115.342 27.6019 115.179 27.5476C115.07 27.5113 114.874 27.4808 114.591 27.4559L114.058 27.4117C113.77 27.3891 113.551 27.3596 113.399 27.3234C113.247 27.2872 113.115 27.2339 113.001 27.1637C112.857 27.0732 112.743 26.9498 112.662 26.7935C112.58 26.6373 112.54 26.4663 112.54 26.2806C112.54 25.8639 112.718 25.5458 113.076 25.3261C113.402 25.1269 113.805 25.0272 114.285 25.0272C114.546 25.0272 114.788 25.0567 115.012 25.1155C115.239 25.1721 115.508 25.2729 115.821 25.4178C115.914 25.4609 115.978 25.4824 116.014 25.4824C116.051 25.4824 116.097 25.4575 116.154 25.4076L116.235 25.4518ZM120.047 25.0272C120.652 25.0272 121.155 25.1812 121.558 25.4892C122.041 25.8605 122.282 26.378 122.282 27.0415C122.282 27.6642 122.041 28.1612 121.558 28.5326C121.16 28.8406 120.658 28.9946 120.054 28.9946C119.449 28.9946 118.948 28.8406 118.549 28.5326C118.064 28.1612 117.822 27.654 117.822 27.0109C117.822 26.361 118.064 25.8537 118.549 25.4892C118.95 25.188 119.449 25.034 120.047 25.0272ZM120.05 25.7473C119.659 25.7473 119.339 25.873 119.092 26.1244C118.864 26.3599 118.749 26.6554 118.749 27.0109C118.749 27.3642 118.864 27.6585 119.092 27.894C119.339 28.1477 119.66 28.2745 120.054 28.2745C120.445 28.2745 120.765 28.1477 121.012 27.894C121.24 27.6608 121.355 27.3721 121.355 27.0279C121.355 26.6542 121.24 26.3531 121.012 26.1244C120.763 25.8775 120.442 25.7518 120.05 25.7473ZM127.901 25.4552V27.4695C127.901 27.9291 127.81 28.2665 127.629 28.4817C127.337 28.8236 126.787 28.9946 125.978 28.9946C125.437 28.9946 125 28.9119 124.667 28.7466C124.427 28.6266 124.263 28.4556 124.175 28.2337C124.093 28.0299 124.052 27.7752 124.052 27.4695V25.4552C124.052 25.385 124.036 25.3318 124.005 25.2956C123.973 25.2593 123.916 25.2288 123.835 25.2038V25.1087H125.183V25.2038C125.1 25.2265 125.042 25.2571 125.01 25.2956C124.979 25.3318 124.963 25.385 124.963 25.4552V27.286C124.963 27.4989 124.981 27.6619 125.017 27.7752C125.056 27.8884 125.121 27.9812 125.214 28.0537C125.4 28.2009 125.668 28.2745 126.019 28.2745C126.37 28.2745 126.638 28.2009 126.824 28.0537C126.915 27.9812 126.978 27.8884 127.014 27.7752C127.051 27.6619 127.069 27.4989 127.069 27.286V25.4552C127.069 25.385 127.053 25.3318 127.021 25.2956C126.992 25.2593 126.935 25.2288 126.851 25.2038V25.1087H128.118V25.2038C128.037 25.2265 127.98 25.2571 127.948 25.2956C127.917 25.3318 127.901 25.385 127.901 25.4552ZM130.884 27.3506V28.5666C130.884 28.6368 130.9 28.6911 130.931 28.7296C130.963 28.7659 131.02 28.7964 131.101 28.8213V28.9131H129.756V28.8179C129.835 28.7976 129.891 28.7681 129.923 28.7296C129.957 28.6911 129.973 28.6368 129.973 28.5666V25.4552C129.973 25.385 129.958 25.3318 129.926 25.2956C129.894 25.2593 129.838 25.2288 129.756 25.2038V25.1087H132.249C132.573 25.1087 132.82 25.1257 132.99 25.1597C133.16 25.1914 133.311 25.2503 133.445 25.3363C133.719 25.5152 133.856 25.8073 133.856 26.2127C133.856 26.5206 133.771 26.7618 133.601 26.9362C133.434 27.1083 133.162 27.2328 132.786 27.3098L133.506 28.3152C133.637 28.5009 133.742 28.6277 133.819 28.6957C133.898 28.7613 133.987 28.8032 134.087 28.8213V28.9131H132.49V28.8213C132.608 28.7896 132.667 28.7387 132.667 28.6685C132.667 28.6187 132.631 28.5428 132.558 28.4409L131.798 27.3506H130.884ZM130.884 26.661H132.256C132.464 26.661 132.618 26.6384 132.718 26.5931C132.858 26.532 132.929 26.4108 132.929 26.2297C132.929 26.0689 132.879 25.9568 132.779 25.8934C132.682 25.83 132.507 25.7983 132.256 25.7983H130.884V26.661ZM139.213 27.551L139.787 28.3866L139.709 28.4443C139.655 28.4058 139.612 28.3866 139.58 28.3866C139.542 28.3866 139.452 28.4285 139.312 28.5122C139.002 28.6934 138.728 28.8191 138.49 28.8893C138.252 28.9595 137.978 28.9946 137.668 28.9946C137.047 28.9946 136.541 28.8463 136.149 28.5496C135.927 28.3798 135.751 28.1669 135.62 27.911C135.479 27.6348 135.409 27.3347 135.409 27.0109C135.409 26.5648 135.538 26.1708 135.796 25.8288C136.201 25.2944 136.823 25.0272 137.661 25.0272C137.971 25.0272 138.246 25.0623 138.486 25.1325C138.729 25.2027 139.004 25.3284 139.312 25.5095C139.452 25.5933 139.542 25.6352 139.58 25.6352C139.612 25.6352 139.655 25.616 139.709 25.5775L139.787 25.6386L139.213 26.4708L139.139 26.4165C139.141 26.3893 139.143 26.3723 139.145 26.3655C139.148 26.3451 139.149 26.3304 139.149 26.3214C139.149 26.2104 138.996 26.0847 138.69 25.9443C138.4 25.8107 138.108 25.7439 137.814 25.7439C137.402 25.7439 137.062 25.8526 136.795 26.07C136.489 26.3146 136.336 26.6282 136.336 27.0109C136.336 27.3959 136.489 27.7106 136.795 27.9552C137.064 28.1703 137.404 28.2779 137.814 28.2779C138.135 28.2779 138.456 28.1975 138.775 28.0367C139.024 27.9099 139.149 27.7989 139.149 27.7038C139.149 27.6993 139.145 27.6676 139.139 27.6087L139.213 27.551ZM142.516 27.2962V28.2235H144.931C145.001 28.2235 145.054 28.2077 145.09 28.176C145.129 28.1443 145.159 28.0865 145.182 28.0027H145.277V29.1304H145.182C145.162 29.0512 145.132 28.9946 145.094 28.9606C145.055 28.9289 145.001 28.9131 144.931 28.9131H141.388V28.8179C141.467 28.7976 141.523 28.7681 141.554 28.7296C141.588 28.6911 141.605 28.6368 141.605 28.5666V25.4552C141.605 25.385 141.589 25.3318 141.558 25.2956C141.526 25.2593 141.469 25.2288 141.388 25.2038V25.1087H144.825C144.898 25.1087 144.952 25.0929 144.988 25.0612C145.027 25.0295 145.057 24.9729 145.08 24.8913H145.172V26.0191H145.08C145.057 25.9353 145.027 25.8775 144.988 25.8458C144.952 25.8141 144.898 25.7983 144.825 25.7983H142.516V26.6339H143.949C144.019 26.6339 144.072 26.618 144.109 26.5863C144.147 26.5546 144.179 26.498 144.204 26.4165H144.295V27.517H144.204C144.181 27.4355 144.15 27.3789 144.112 27.3472C144.076 27.3132 144.021 27.2962 143.949 27.2962H142.516ZM150.992 27.0313V28.5598C150.992 28.6277 151.008 28.6809 151.039 28.7194C151.073 28.7557 151.13 28.784 151.209 28.8044V28.9131H149.762V28.8044C149.844 28.7817 149.9 28.7523 149.932 28.716C149.964 28.6798 149.979 28.6277 149.979 28.5598V24.6332C149.979 24.563 149.964 24.5098 149.932 24.4736C149.9 24.4373 149.844 24.4079 149.762 24.3852V24.2765H152.656C152.993 24.2765 153.261 24.2992 153.458 24.3445C153.657 24.3898 153.832 24.4679 153.984 24.5789C154.14 24.6943 154.263 24.8461 154.351 25.034C154.439 25.2288 154.483 25.4348 154.483 25.6522C154.483 25.9647 154.4 26.2387 154.232 26.4742C154.087 26.6758 153.895 26.8195 153.655 26.9056C153.417 26.9894 153.084 27.0313 152.656 27.0313H150.992ZM150.992 26.267H152.537C152.845 26.267 153.061 26.2342 153.186 26.1685C153.265 26.1255 153.329 26.0576 153.376 25.9647C153.426 25.8696 153.451 25.7654 153.451 25.6522C153.451 25.5413 153.426 25.4394 153.376 25.3465C153.329 25.2514 153.265 25.1823 153.186 25.1393C153.064 25.0736 152.847 25.0408 152.537 25.0408H150.992V26.267ZM157.174 28.2235H159.304C159.377 28.2235 159.431 28.2077 159.467 28.176C159.503 28.1443 159.534 28.0865 159.559 28.0027H159.651V29.1304H159.559C159.536 29.0489 159.506 28.9923 159.467 28.9606C159.431 28.9289 159.377 28.9131 159.304 28.9131H156.047V28.8179C156.126 28.7976 156.181 28.7681 156.213 28.7296C156.247 28.6911 156.264 28.6368 156.264 28.5666V25.4552C156.264 25.385 156.248 25.3318 156.216 25.2956C156.185 25.2593 156.128 25.2288 156.047 25.2038V25.1087H157.392V25.2038C157.31 25.2265 157.254 25.2571 157.222 25.2956C157.19 25.3318 157.174 25.385 157.174 25.4552V28.2235ZM163.968 27.962H162.219L162.022 28.3764C161.975 28.476 161.951 28.5541 161.951 28.6107C161.951 28.7194 162.023 28.7885 162.168 28.8179V28.9131H160.769V28.8179C160.855 28.8044 160.918 28.7783 160.959 28.7398C161.002 28.7013 161.052 28.6255 161.108 28.5122L162.498 25.6998C162.55 25.5933 162.576 25.5005 162.576 25.4212C162.576 25.3284 162.512 25.2559 162.386 25.2038V25.1087H163.863V25.2038C163.739 25.2537 163.676 25.3307 163.676 25.4348C163.676 25.5095 163.705 25.6013 163.761 25.71L165.201 28.4375C165.281 28.587 165.343 28.6843 165.388 28.7296C165.434 28.7727 165.503 28.8032 165.595 28.8213V28.9131H164.043V28.8213C164.19 28.7964 164.264 28.7274 164.264 28.6141C164.264 28.5439 164.236 28.4568 164.179 28.3526L163.968 27.962ZM163.693 27.4287L163.072 26.2093L162.481 27.4287H163.693ZM168.004 26.4063V28.5666C168.004 28.6368 168.02 28.6911 168.052 28.7296C168.086 28.7681 168.143 28.7987 168.222 28.8213V28.9131H166.958V28.8179C167.038 28.7976 167.093 28.7681 167.125 28.7296C167.159 28.6911 167.176 28.6368 167.176 28.5666V25.4552C167.176 25.385 167.16 25.3318 167.128 25.2956C167.096 25.2593 167.04 25.2288 166.958 25.2038V25.1087H168.419V25.2038C168.319 25.2288 168.269 25.2729 168.269 25.3363C168.269 25.3907 168.306 25.4541 168.378 25.5265L170.416 27.551V25.4552C170.416 25.385 170.4 25.3318 170.369 25.2956C170.337 25.2571 170.28 25.2265 170.199 25.2038V25.1087H171.462V25.2038C171.381 25.2265 171.324 25.2571 171.292 25.2956C171.261 25.3318 171.245 25.385 171.245 25.4552V28.5666C171.245 28.6368 171.261 28.6911 171.292 28.7296C171.324 28.7659 171.381 28.7964 171.462 28.8213V28.9131H170.1V28.8213C170.2 28.801 170.25 28.7591 170.25 28.6957C170.25 28.664 170.236 28.6311 170.209 28.5972C170.182 28.5632 170.119 28.4964 170.022 28.3968L168.004 26.4063ZM174.225 26.4063V28.5666C174.225 28.6368 174.24 28.6911 174.272 28.7296C174.306 28.7681 174.363 28.7987 174.442 28.8213V28.9131H173.178V28.8179C173.258 28.7976 173.313 28.7681 173.345 28.7296C173.379 28.6911 173.396 28.6368 173.396 28.5666V25.4552C173.396 25.385 173.38 25.3318 173.348 25.2956C173.316 25.2593 173.26 25.2288 173.178 25.2038V25.1087H174.639V25.2038C174.539 25.2288 174.489 25.2729 174.489 25.3363C174.489 25.3907 174.526 25.4541 174.598 25.5265L176.636 27.551V25.4552C176.636 25.385 176.62 25.3318 176.589 25.2956C176.557 25.2571 176.5 25.2265 176.419 25.2038V25.1087H177.682V25.2038C177.601 25.2265 177.544 25.2571 177.513 25.2956C177.481 25.3318 177.465 25.385 177.465 25.4552V28.5666C177.465 28.6368 177.481 28.6911 177.513 28.7296C177.544 28.7659 177.601 28.7964 177.682 28.8213V28.9131H176.32V28.8213C176.42 28.801 176.47 28.7591 176.47 28.6957C176.47 28.664 176.456 28.6311 176.429 28.5972C176.402 28.5632 176.34 28.4964 176.242 28.3968L174.225 26.4063ZM180.526 25.4552V28.5666C180.526 28.6368 180.542 28.6911 180.574 28.7296C180.605 28.7659 180.662 28.7964 180.743 28.8213V28.9131H179.398V28.8179C179.478 28.7976 179.533 28.7681 179.565 28.7296C179.599 28.6911 179.616 28.6368 179.616 28.5666V25.4552C179.616 25.385 179.6 25.3318 179.568 25.2956C179.537 25.2593 179.48 25.2288 179.398 25.2038V25.1087H180.743V25.2038C180.662 25.2265 180.605 25.2571 180.574 25.2956C180.542 25.3318 180.526 25.385 180.526 25.4552ZM183.506 26.4063V28.5666C183.506 28.6368 183.522 28.6911 183.553 28.7296C183.587 28.7681 183.644 28.7987 183.723 28.8213V28.9131H182.459V28.8179C182.539 28.7976 182.594 28.7681 182.626 28.7296C182.66 28.6911 182.677 28.6368 182.677 28.5666V25.4552C182.677 25.385 182.661 25.3318 182.629 25.2956C182.598 25.2593 182.541 25.2288 182.459 25.2038V25.1087H183.92V25.2038C183.82 25.2288 183.771 25.2729 183.771 25.3363C183.771 25.3907 183.807 25.4541 183.879 25.5265L185.917 27.551V25.4552C185.917 25.385 185.901 25.3318 185.87 25.2956C185.838 25.2571 185.781 25.2265 185.7 25.2038V25.1087H186.964V25.2038C186.882 25.2265 186.825 25.2571 186.794 25.2956C186.762 25.3318 186.746 25.385 186.746 25.4552V28.5666C186.746 28.6368 186.762 28.6911 186.794 28.7296C186.825 28.7659 186.882 28.7964 186.964 28.8213V28.9131H185.601V28.8213C185.701 28.801 185.751 28.7591 185.751 28.6957C185.751 28.664 185.737 28.6311 185.71 28.5972C185.683 28.5632 185.621 28.4964 185.523 28.3968L183.506 26.4063ZM192.11 27.4457H191.244C191.172 27.4457 191.116 27.4615 191.078 27.4932C191.041 27.5249 191.012 27.5815 190.989 27.6631H190.898V26.6576H190.989C191.012 26.7369 191.041 26.7924 191.078 26.8241C191.116 26.8558 191.172 26.8716 191.244 26.8716H193.055V26.9701C192.975 26.9928 192.919 27.0256 192.885 27.0686C192.853 27.1117 192.837 27.1728 192.837 27.2521V28.0537C192.837 28.1239 192.853 28.1782 192.885 28.2167C192.919 28.2552 192.975 28.2858 193.055 28.3084V28.3866C192.321 28.7919 191.589 28.9946 190.86 28.9946C190.231 28.9946 189.721 28.8463 189.332 28.5496C189.121 28.3866 188.951 28.185 188.822 27.945C188.67 27.6597 188.595 27.3551 188.595 27.0313C188.595 26.5829 188.733 26.1844 189.009 25.8356C189.439 25.2967 190.076 25.0272 190.918 25.0272C191.287 25.0272 191.708 25.1087 192.182 25.2718C192.37 25.3352 192.479 25.3669 192.511 25.3669C192.55 25.3669 192.595 25.3488 192.647 25.3125L192.728 25.3567L192.277 26.3146L192.195 26.2738C192.195 26.2648 192.195 26.258 192.195 26.2534C192.195 26.1696 192.111 26.0836 191.944 25.9953C191.634 25.83 191.301 25.7473 190.945 25.7473C190.535 25.7473 190.199 25.8594 189.936 26.0836C189.66 26.3191 189.522 26.6361 189.522 27.0347C189.522 27.4083 189.648 27.7072 189.899 27.9314C190.157 28.1601 190.519 28.2745 190.986 28.2745C191.43 28.2745 191.805 28.1918 192.11 28.0265V27.4457Z" fill="#DBF1DC"/>
<path d="M19.3024 33.8642L0.00012207 9.69304V9.69294L9.68852 0.00448608H20.6673L19.3948 1.85595H10.4555L2.48016 9.83146L19.3153 30.9132L26.1346 22.5244L27.5714 23.6924L19.3024 33.8642Z" fill="#DBF1DC"/>
<path d="M29.2182 21.9173L28.0087 20.4762L36.9419 9.76152L28.351 1.85488H23.0273V0.00341797H29.0734L39.4921 9.59239L29.2182 21.9173Z" fill="#DBF1DC"/>
<path d="M12.3365 23.7237L8.81287 19.2691L22.407 0H29.0733L12.3365 23.7237Z" fill="#DBF1DC"/>
<path d="M33.3993 29.2411H26.4554L13.9054 14.2845L19.8394 13.0807L33.3993 29.2411Z" fill="#DBF1DC"/>
</svg>
